<svg width="232" height="216" viewBox="0 0 232 216" fill="none" xmlns="http://www.w3.org/2000/svg">
<rect width="232" height="216" rx="16" fill="white"/>
<path d="M16.232 26.848H18.312C18.312 26.88 18.648 28.432 20.648 28.432C22.488 28.432 23.512 26.88 23.512 24.88H23.464C23.464 24.88 22.696 26.128 20.44 26.128C17.832 26.128 16.04 24.512 16.04 22.416C16.04 20.16 17.88 18.64 20.712 18.64C23.992 18.64 25.592 20.784 25.592 24.112V24.496C25.592 27.584 23.944 30.16 20.648 30.16C17.416 30.16 16.232 27.968 16.232 26.848ZM20.696 24.432C22.152 24.432 23.288 23.664 23.288 22.4C23.288 21.152 22.2 20.368 20.696 20.368C19.192 20.368 18.104 21.152 18.104 22.4C18.104 23.664 19.24 24.432 20.696 24.432ZM36.785 21.952H34.705C34.705 21.92 34.417 20.368 32.481 20.368C30.689 20.368 29.745 21.856 29.745 23.856H29.793C29.793 23.856 30.561 22.704 32.817 22.704C35.425 22.704 37.217 24.288 37.217 26.384C37.217 28.64 35.377 30.16 32.545 30.16C29.265 30.16 27.665 28.016 27.665 24.688V24.304C27.665 21.216 29.233 18.64 32.481 18.64C35.665 18.64 36.785 20.832 36.785 21.952ZM32.561 24.368C31.105 24.368 29.969 25.136 29.969 26.4C29.969 27.648 31.057 28.432 32.561 28.432C34.065 28.432 35.153 27.648 35.153 26.4C35.153 25.136 34.017 24.368 32.561 24.368ZM47.7738 23.696H45.4698V30H43.6778V23.696H42.3338V22.688L43.6778 22.16V21.776C43.6778 19.632 44.9738 18.64 47.0698 18.64C48.0938 18.64 48.7818 19.072 48.7818 19.072V20.704C48.7818 20.704 48.3018 20.272 47.3738 20.272C46.2538 20.272 45.4698 20.752 45.4698 21.952V22.16H47.7738V23.696ZM49.9929 27.072V23.696H48.6969V22.56L50.6169 20.4H51.7849V22.16H54.5209V23.696H51.7849V26.832C51.7849 28.176 52.5689 28.528 53.4809 28.528C54.2969 28.528 54.7609 28.192 54.7609 28.192V29.856C54.7609 29.856 54.1689 30.16 53.2409 30.16C51.2249 30.16 49.9929 29.216 49.9929 27.072ZM55.8081 23.28V22.272C55.8081 19.504 59.7121 20.624 59.7121 19.072C59.7121 18.64 59.3921 18.32 58.6401 18.32C57.8561 18.32 57.5521 18.72 57.5521 19.168V19.312H56.0161V19.168C56.0161 17.856 56.9281 17.04 58.6401 17.04C60.3521 17.04 61.2481 17.872 61.2481 18.992C61.2481 21.584 57.3601 21.024 57.3601 22H61.2001V23.28H55.8081Z" fill="black"/>
<path d="M15.48 40.192V39.244L17.304 37.6H18.084V46H17.292V38.584L15.48 40.192ZM20.0091 46V45.352C20.0091 42.208 25.8291 42.592 25.8291 39.952C25.8291 38.788 24.8571 38.2 23.4531 38.2C22.0611 38.2 21.0771 38.8 21.0771 40.06V40.3H20.2851V40.06C20.2851 38.392 21.6051 37.48 23.4531 37.48C25.3131 37.48 26.6211 38.38 26.6211 39.952C26.6211 43.132 20.8251 42.844 20.8251 45.28H26.6811V46H20.0091ZM31.9584 41.416L30.4704 42.904L31.9584 44.392L31.4664 44.884L29.9784 43.396L28.4904 44.884L27.9984 44.392L29.4864 42.904L27.9984 41.416L28.4904 40.924L29.9784 42.412L31.4664 40.924L31.9584 41.416ZM36.8387 46.12C34.8467 46.12 33.4547 45.208 33.4547 43.684C33.4547 41.944 35.3267 41.608 35.3267 41.608V41.572C35.3267 41.572 33.7187 41.284 33.7187 39.748C33.7187 38.344 34.9667 37.48 36.8387 37.48C38.7107 37.48 39.9587 38.344 39.9587 39.748C39.9587 41.284 38.3507 41.572 38.3507 41.572V41.608C38.3507 41.608 40.2227 41.944 40.2227 43.684C40.2227 45.208 38.8307 46.12 36.8387 46.12ZM36.8387 45.376C38.3747 45.376 39.4067 44.8 39.4067 43.684C39.4067 42.568 38.3507 41.992 36.8387 41.992C35.3267 41.992 34.2707 42.568 34.2707 43.684C34.2707 44.8 35.3027 45.376 36.8387 45.376ZM36.8387 41.248C38.2547 41.248 39.1427 40.648 39.1427 39.748C39.1427 38.812 38.2547 38.224 36.8387 38.224C35.4227 38.224 34.5347 38.812 34.5347 39.748C34.5347 40.648 35.4227 41.248 36.8387 41.248ZM45.6811 41.416L44.1931 42.904L45.6811 44.392L45.1891 44.884L43.7011 43.396L42.2131 44.884L41.7211 44.392L43.2091 42.904L41.7211 41.416L42.2131 40.924L43.7011 42.412L45.1891 40.924L45.6811 41.416ZM50.5613 46.12C48.5693 46.12 47.1773 45.208 47.1773 43.684C47.1773 41.944 49.0493 41.608 49.0493 41.608V41.572C49.0493 41.572 47.4413 41.284 47.4413 39.748C47.4413 38.344 48.6893 37.48 50.5613 37.48C52.4333 37.48 53.6813 38.344 53.6813 39.748C53.6813 41.284 52.0733 41.572 52.0733 41.572V41.608C52.0733 41.608 53.9453 41.944 53.9453 43.684C53.9453 45.208 52.5533 46.12 50.5613 46.12ZM50.5613 45.376C52.0973 45.376 53.1293 44.8 53.1293 43.684C53.1293 42.568 52.0733 41.992 50.5613 41.992C49.0493 41.992 47.9933 42.568 47.9933 43.684C47.9933 44.8 49.0253 45.376 50.5613 45.376ZM50.5613 41.248C51.9773 41.248 52.8653 40.648 52.8653 39.748C52.8653 38.812 51.9773 38.224 50.5613 38.224C49.1453 38.224 48.2573 38.812 48.2573 39.748C48.2573 40.648 49.1453 41.248 50.5613 41.248ZM59.7906 39.82V40.12H61.6986V40.816H59.7906V46H59.0466V40.816H58.0266V40.12H59.0466V39.76C59.0466 38.14 59.9466 37.48 61.0866 37.48C61.8546 37.48 62.2866 37.744 62.2866 37.744V38.464C62.2866 38.464 61.8906 38.176 61.1466 38.176C60.3666 38.176 59.7906 38.584 59.7906 39.82ZM63.3708 43.9V40.816H62.3508V40.12H63.3708V38.8H64.1148V40.12H66.3708V40.816H64.1148V43.816C64.1148 45.004 64.6908 45.424 65.4708 45.424C66.2148 45.424 66.6108 45.136 66.6108 45.136V45.844C66.6108 45.844 66.1788 46.12 65.4108 46.12C64.2708 46.12 63.3708 45.46 63.3708 43.9Z" fill="black"/>
<path fill-rule="evenodd" clip-rule="evenodd" d="M94.6549 101.887L226.45 171.692L226.305 171.998L94.4926 102.184L4.69539 149.57L4.55029 149.264L94.3305 101.887V52H94.6549V101.887Z" fill="black"/>
<path d="M73.9752 114.285L75.6718 115.177L77.294 114.314L95.3004 104.738L96.2412 104.238C96.4601 104.122 96.5981 103.885 96.5981 103.626V88.4684L94.2981 87.2593C94.1124 87.1617 93.8938 87.1637 93.7097 87.2646L73.9507 98.0956C73.4134 98.3901 73.0763 98.9759 73.0763 99.6149V112.752C73.0763 113.402 73.4244 113.995 73.9752 114.285Z" fill="#37AFB7"/>
<path fill-rule="evenodd" clip-rule="evenodd" d="M94.3732 87.1054C94.1412 86.9834 93.8678 86.9859 93.6378 87.112L73.8788 97.943C73.2878 98.2669 72.9168 98.9114 72.9168 99.6143V112.752C72.9168 113.466 73.2998 114.119 73.9057 114.438L75.675 115.368L96.3171 104.39C96.5906 104.245 96.7632 103.949 96.7632 103.626V88.3617L94.3732 87.1054ZM93.7873 87.4159C93.9253 87.3402 94.0893 87.3387 94.2286 87.4119L96.241 88.4698L75.954 99.4242C75.6829 99.5706 75.5124 99.8649 75.5124 100.186V114.9L74.0504 114.131C73.5546 113.87 73.2413 113.336 73.2413 112.752V99.6143C73.2413 99.0392 73.5448 98.5119 74.0283 98.2468L93.7873 87.4159ZM75.8368 114.898V100.186C75.8368 99.9934 75.9391 99.8169 76.1018 99.729L96.4387 88.7476V103.626C96.4387 103.82 96.3352 103.997 96.1711 104.084L75.8368 114.898Z" fill="black"/>
<path fill-rule="evenodd" clip-rule="evenodd" d="M132.774 144.109H131.476V146.849C131.476 147.227 131.767 147.534 132.125 147.534C132.483 147.534 132.774 147.227 132.774 146.849V144.109Z" fill="white"/>
<path fill-rule="evenodd" clip-rule="evenodd" d="M131.315 143.945H132.937V146.856C132.937 147.329 132.574 147.712 132.126 147.712C131.678 147.712 131.315 147.329 131.315 146.856V143.945ZM131.639 144.288V146.856C131.639 147.14 131.857 147.369 132.126 147.369C132.395 147.369 132.613 147.14 132.613 146.856V144.288H131.639Z" fill="black"/>
<path fill-rule="evenodd" clip-rule="evenodd" d="M76.3251 114.492H75.0273V117.232C75.0273 117.61 75.3179 117.916 75.6762 117.916C76.0346 117.916 76.3251 117.61 76.3251 117.232V114.492Z" fill="white"/>
<path fill-rule="evenodd" clip-rule="evenodd" d="M74.8662 114.32H76.4884V117.231C76.4884 117.704 76.1253 118.087 75.6773 118.087C75.2294 118.087 74.8662 117.704 74.8662 117.231V114.32ZM75.1907 114.663V117.231C75.1907 117.515 75.4085 117.744 75.6773 117.744C75.9461 117.744 76.164 117.515 76.164 117.231V114.663H75.1907Z" fill="black"/>
<path d="M74.8662 114.38V111.955C74.8662 110.587 75.638 109.35 76.829 108.809L91.0882 102.338V86.5941C91.0882 85.3257 91.7525 84.1613 92.8146 83.5678L95.1321 82.2729C96.0559 81.7568 97.1587 81.742 98.0946 82.2331L113.637 90.3889L130.508 99.2419L152.878 110.981C153.981 111.56 154.678 112.747 154.678 114.047V118.945V128.704V134.825C154.678 134.956 154.608 135.075 154.496 135.133L134.218 145.596C133.311 146.064 132.249 146.059 131.345 145.584L108.703 133.669L92.7605 125.28L76.1239 116.525C75.3533 116.12 74.8662 115.289 74.8662 114.38Z" fill="#37AFB7"/>
<path fill-rule="evenodd" clip-rule="evenodd" d="M98.0235 82.3857C97.1343 81.9191 96.0867 81.9332 95.2091 82.4236L92.8916 83.7185C91.8826 84.2823 91.2515 85.3885 91.2515 86.5934V102.231L107.636 110.839V95.4445C107.636 94.0474 108.403 92.7768 109.602 92.1862L113.264 90.3833L98.0235 82.3857ZM113.636 90.5782L109.739 92.4965C108.654 93.0308 107.96 94.1804 107.96 95.4445V111.009L123.703 119.28L124.123 104.423C124.161 103.075 124.911 101.863 126.064 101.284L130.138 99.2379L113.636 90.5782ZM130.507 99.4317L126.204 101.593C125.16 102.117 124.482 103.214 124.447 104.433L124.023 119.448L147.867 131.975L154.517 128.596V114.047C154.517 113.331 154.295 112.652 153.905 112.1L150.727 114.001C149.761 114.578 149.164 115.659 149.164 116.831V122.197H148.84V116.831C148.84 115.536 149.499 114.341 150.567 113.703L153.694 111.833C153.445 111.55 153.146 111.312 152.807 111.134L130.507 99.4317ZM154.517 128.976L134.687 139.053C133.62 139.595 132.942 140.734 132.942 141.984V145.768C133.356 145.747 133.766 145.638 134.148 145.441L154.426 134.978C154.482 134.949 154.517 134.89 154.517 134.824V128.976ZM132.618 145.767V141.984C132.618 140.602 133.367 139.343 134.546 138.744L147.497 132.163L123.858 119.744L110.576 126.714C109.528 127.263 108.866 128.392 108.866 129.626V133.562L131.419 145.43C131.798 145.629 132.206 145.742 132.618 145.767ZM108.542 133.392V129.626C108.542 128.262 109.274 127.015 110.432 126.407L123.494 119.552L107.798 111.306L94.6424 118.156C93.5901 118.704 92.9238 119.835 92.9238 121.073V125.173L108.542 133.392ZM92.5994 125.002V121.073C92.5994 119.705 93.3358 118.455 94.4988 117.849L107.433 111.115L91.0843 102.526L76.8942 108.966C75.7627 109.479 75.0295 110.654 75.0295 111.954V114.38C75.0295 115.223 75.4818 115.995 76.1974 116.371L92.5994 125.002ZM90.9271 102.225V86.5934C90.9271 85.2616 91.6246 84.039 92.7398 83.4159L95.0573 82.1209C96.0273 81.579 97.1852 81.5634 98.1679 82.0791L152.952 110.827C154.11 111.435 154.842 112.682 154.842 114.047V134.824C154.842 135.02 154.736 135.2 154.569 135.286L134.29 145.749C133.338 146.24 132.223 146.236 131.274 145.737L76.0526 116.678C75.2269 116.243 74.7051 115.353 74.7051 114.38V111.954C74.7051 110.518 75.5154 109.219 76.766 108.651L90.9271 102.225Z" fill="black"/>
<path d="M134.649 145.957L135.618 146.466C136.076 146.707 136.615 146.705 137.071 146.462L137.968 145.986L155.974 136.41L156.38 136.194C156.927 135.903 157.272 135.312 157.272 134.665V120.14L155.415 119.164C154.951 118.92 154.404 118.925 153.944 119.177L133.75 130.247V144.424C133.75 145.074 134.098 145.667 134.649 145.957Z" fill="#37AFB7"/>
<path fill-rule="evenodd" clip-rule="evenodd" d="M155.486 119.01C154.976 118.742 154.374 118.747 153.868 119.024L133.587 130.142V144.423C133.587 145.138 133.97 145.791 134.576 146.109L135.545 146.619C136.048 146.883 136.641 146.882 137.143 146.615L156.452 136.347C157.053 136.027 157.433 135.376 157.433 134.665V120.033L155.486 119.01ZM154.018 119.328C154.432 119.101 154.924 119.097 155.342 119.317L156.911 120.141L136.954 130.918C136.565 131.128 136.107 131.143 135.706 130.959L134.126 130.232L154.018 119.328ZM133.911 130.507L135.576 131.273C136.066 131.498 136.626 131.479 137.102 131.223L157.109 120.419V134.665C157.109 135.247 156.798 135.779 156.306 136.041L136.997 146.309C136.586 146.528 136.101 146.529 135.689 146.312L134.72 145.803C134.225 145.542 133.911 145.008 133.911 144.423V130.507Z" fill="black"/>
<path d="M46.7908 126.974L62.6884 135.363L64.3106 134.5L82.317 124.925L83.6147 124.235V108.655L75.666 104.46L67.7172 100.266L46.7908 111.737V126.974Z" fill="white"/>
<path fill-rule="evenodd" clip-rule="evenodd" d="M67.7186 100.078L46.6314 111.637V127.084L62.6915 135.559L83.7798 124.345V108.554L67.7186 100.078ZM67.7214 100.462L83.2582 108.661L62.6896 119.768L47.1538 111.737L67.7214 100.462ZM46.9559 112.016L62.529 120.066V135.091L46.9559 126.873V112.016ZM62.8534 135.09V120.064L83.4553 108.939V124.134L62.8534 135.09Z" fill="black"/>
<path fill-rule="evenodd" clip-rule="evenodd" d="M72.5841 114.732L60.1245 108.074L60.7107 106.852L73.8819 113.89V120.646H72.5841V114.732Z" fill="#F0512D"/>
<path d="M46.7908 112.255L62.6884 120.644L64.3106 119.782L82.317 110.206L83.6147 109.516V93.936L75.666 89.7415L67.7172 85.5469L46.7908 97.0178V112.255Z" fill="#E7C89E"/>
<path fill-rule="evenodd" clip-rule="evenodd" d="M67.7186 85.3594L46.6314 96.9184V112.366L62.6915 120.841L83.7798 109.626V93.8349L67.7186 85.3594ZM67.7214 85.7437L83.2582 93.9425L62.6896 105.049L47.1538 97.018L67.7214 85.7437ZM46.9559 97.2969L62.529 105.347V120.372L46.9559 112.154V97.2969ZM62.8534 120.371V105.345L83.4553 94.2206V109.415L62.8534 120.371Z" fill="black"/>
<path fill-rule="evenodd" clip-rule="evenodd" d="M72.5861 100.013L56.8921 91.9824L57.4583 90.75L73.8838 99.1551V105.919H72.5861V100.013Z" fill="#F0512D"/>
<path d="M26.0325 138.279L41.9301 146.668L43.5523 145.805L61.5587 136.23L62.8564 135.539V119.959L54.9077 115.765L46.9589 111.57L26.0325 123.041V138.279Z" fill="#E7C89E"/>
<path fill-rule="evenodd" clip-rule="evenodd" d="M46.9603 111.383L25.8731 122.942V138.389L41.9332 146.864L63.0215 135.649V119.858L46.9603 111.383ZM46.9631 111.767L62.4999 119.966L41.9313 131.072L26.3955 123.041L46.9631 111.767ZM26.1976 123.32L41.7707 131.371V146.395L26.1976 138.178V123.32ZM42.0951 146.395V131.369L62.697 120.244V135.439L42.0951 146.395Z" fill="black"/>
<path fill-rule="evenodd" clip-rule="evenodd" d="M51.8258 126.036L39.3662 119.378L39.9524 118.156L53.1236 125.195V131.95H51.8258V126.036Z" fill="#F0512D"/>
<path d="M26.0325 123.552L41.9301 131.941L43.5523 131.079L61.5587 121.503L62.8564 120.813V105.233L54.9077 101.038L46.9589 96.8438L26.0325 108.315V123.552Z" fill="#E7C89E"/>
<path fill-rule="evenodd" clip-rule="evenodd" d="M46.9603 96.6562L25.8731 108.215V123.663L41.9332 132.138L63.0215 120.923V105.132L46.9603 96.6562ZM46.9631 97.0406L62.4999 105.239L41.9313 116.346L26.3955 108.315L46.9631 97.0406ZM26.1976 108.594L41.7707 116.644V131.669L26.1976 123.451V108.594ZM42.0951 131.668V116.642L62.697 105.517V120.712L42.0951 131.668Z" fill="black"/>
<path fill-rule="evenodd" clip-rule="evenodd" d="M51.827 111.302L36.603 102.934L37.2025 101.719L53.1248 110.471V117.221H51.827V111.302Z" fill="#F0512D"/>
<path d="M65.7757 137.255L81.6732 145.644L83.2954 144.782L101.302 135.206L102.6 134.516V118.936L94.6508 114.741L86.7021 110.547L65.7757 122.018V137.255Z" fill="#E7C89E"/>
<path fill-rule="evenodd" clip-rule="evenodd" d="M86.7035 110.359L65.6163 121.918V137.366L81.6763 145.841L102.765 134.626V118.835L86.7035 110.359ZM86.7063 110.744L102.243 118.942L81.6745 130.049L66.1386 122.018L86.7063 110.744ZM65.9407 122.297L81.5138 130.347V145.372L65.9407 137.154V122.297ZM81.8383 145.371V130.345L102.44 119.221V134.415L81.8383 145.371Z" fill="black"/>
<path fill-rule="evenodd" clip-rule="evenodd" d="M91.5724 125.02L79.9331 119.044L80.5008 117.812L92.8701 124.163V127.502H91.5724V125.02Z" fill="#F0512D"/>
<path d="M45.0086 148.552L60.9061 156.941L62.5283 156.079L80.5348 146.503L81.8325 145.813V130.233L73.8837 126.038L65.935 121.844L45.0086 133.315V148.552Z" fill="#E7C89E"/>
<path fill-rule="evenodd" clip-rule="evenodd" d="M65.9364 121.656L44.8492 133.215V148.663L60.9092 157.138L81.9976 145.923V130.132L65.9364 121.656ZM65.9392 122.041L81.4759 130.239L60.9074 141.346L45.3715 133.315L65.9392 122.041ZM45.1736 133.594L60.7467 141.644V156.669L45.1736 148.451V133.594ZM61.0712 156.668V141.642L81.6731 130.517V145.712L61.0712 156.668Z" fill="black"/>
<path fill-rule="evenodd" clip-rule="evenodd" d="M70.8024 136.31L58.3428 129.652L58.929 128.43L72.1001 135.468V142.224H70.8024V136.31Z" fill="#F0512D"/>
<path d="M83.7827 102.336L41.93 124.422V125.449L62.6941 136.406L104.547 114.492V113.293L83.7827 102.336Z" fill="#837477"/>
<path fill-rule="evenodd" clip-rule="evenodd" d="M83.7802 102.141L41.7652 124.312V146.504H42.0896V125.722L62.5294 136.508V157.461H62.8538V136.509L104.382 114.764V135.718H104.707V113.184L83.7802 102.141ZM104.382 114.382L62.8538 136.126V135.31L104.382 113.565V114.382ZM104.18 113.289L62.6913 135.013L42.2924 124.417L83.7802 102.523L104.18 113.289ZM42.0896 124.693L62.5294 135.31V136.125L42.0896 125.339V124.693Z" fill="black"/>
<path d="M92.8712 100.79V112.261L89.5956 114.009L77.1358 120.657L66.2671 114.829V103.359L82.1646 95.1406L92.8712 100.79Z" fill="#ADAEB3"/>
<path d="M88.9995 104.5L77.9995 110V119L88.9995 113V104.5Z" fill="#BDBCBC"/>
<path fill-rule="evenodd" clip-rule="evenodd" d="M82.1626 94.9531L93.0306 100.688V112.37L77.1328 120.853L66.1021 114.938V103.255L82.1626 94.9531ZM66.4265 103.637V114.728L76.9708 120.382V109.125L66.4265 103.637ZM77.2952 109.125V120.382L89.4306 113.907V102.782L77.2952 109.125ZM89.755 102.612V113.734L92.7061 112.16V101.07L89.755 102.612ZM92.5042 100.793L77.1329 108.828L66.6321 103.363L82.1611 95.3352L92.5042 100.793ZM92.5439 102.058V104.153L89.9484 105.522V103.428L92.5439 102.058ZM90.2728 103.639V104.968L92.2195 103.941V102.612L90.2728 103.639ZM89.1373 104.114V113.055L77.6197 119.221V110.104L89.1373 104.114ZM77.9441 110.317V118.663L88.8128 112.845V104.665L77.9441 110.317Z" fill="black"/>
<path d="M92.0546 110.168C92.0546 110.83 91.7641 111.584 91.4057 111.584C91.0473 111.584 90.7568 111.266 90.7568 110.604C90.7568 109.942 91.0473 109.188 91.4057 109.188C91.7641 109.188 92.0546 109.506 92.0546 110.168Z" fill="white"/>
<path fill-rule="evenodd" clip-rule="evenodd" d="M91.0955 109.718C90.9883 109.966 90.9201 110.295 90.9201 110.603C90.9201 110.91 90.9876 111.114 91.0769 111.238C91.1632 111.357 91.2774 111.413 91.4068 111.413C91.4393 111.413 91.486 111.396 91.5453 111.334C91.6045 111.272 91.6644 111.177 91.7181 111.053C91.8253 110.805 91.8935 110.475 91.8935 110.167C91.8935 109.861 91.826 109.656 91.7367 109.533C91.6504 109.413 91.5362 109.358 91.4068 109.358C91.3743 109.358 91.3276 109.375 91.2683 109.437C91.2092 109.499 91.1492 109.594 91.0955 109.718ZM91.0401 109.193C91.1361 109.093 91.2601 109.016 91.4068 109.016C91.6358 109.016 91.846 109.12 91.9946 109.325C92.1401 109.526 92.2179 109.812 92.2179 110.167C92.2179 110.522 92.1408 110.9 92.0132 111.195C91.9494 111.342 91.8696 111.477 91.7735 111.577C91.6775 111.677 91.5535 111.755 91.4068 111.755C91.1778 111.755 90.9676 111.651 90.819 111.446C90.6735 111.244 90.5957 110.958 90.5957 110.603C90.5957 110.249 90.6728 109.871 90.8004 109.576C90.8642 109.428 90.944 109.294 91.0401 109.193Z" fill="black"/>
<path d="M57.1822 123.225C57.1822 124.549 58.9253 125.622 61.0755 125.622C63.2257 125.622 64.9688 124.549 64.9688 123.225C64.9688 121.901 63.2257 120.828 61.0755 120.828C58.9253 120.828 57.1822 121.901 57.1822 123.225Z" fill="white"/>
<path fill-rule="evenodd" clip-rule="evenodd" d="M63.7495 121.677C64.4291 122.096 64.8093 122.649 64.8093 123.224C64.8093 123.8 64.4291 124.353 63.7495 124.771C63.0739 125.187 62.1298 125.45 61.0783 125.45C60.0267 125.45 59.0827 125.187 58.4071 124.771C57.7275 124.353 57.3472 123.8 57.3472 123.224C57.3472 122.649 57.7275 122.096 58.4071 121.677C59.0827 121.261 60.0267 120.999 61.0783 120.999C62.1298 120.999 63.0739 121.261 63.7495 121.677ZM63.913 121.382C63.1795 120.93 62.1769 120.656 61.0783 120.656C59.9796 120.656 58.9771 120.93 58.2436 121.382C57.5141 121.831 57.0228 122.476 57.0228 123.224C57.0228 123.972 57.5141 124.618 58.2436 125.067C58.9771 125.519 59.9796 125.792 61.0783 125.792C62.1769 125.792 63.1795 125.519 63.913 125.067C64.6425 124.618 65.1338 123.972 65.1338 123.224C65.1338 122.476 64.6425 121.831 63.913 121.382Z" fill="black"/>
<path d="M61.4019 119.461H60.753V123.228H61.4019V119.461Z" fill="white"/>
<path fill-rule="evenodd" clip-rule="evenodd" d="M61.239 119.461V123.228H61.5635V119.461H61.239ZM60.9146 123.228V119.461H60.5902V123.228H60.9146Z" fill="black"/>
<path d="M61.0755 109.531C62.5089 109.531 63.671 110.298 63.671 111.243L64.9688 118.092C64.9688 119.415 63.2257 120.489 61.0755 120.489C58.9253 120.489 57.1822 119.415 57.1822 118.092L58.48 111.243C58.48 110.298 59.642 109.531 61.0755 109.531Z" fill="#F8DD4D"/>
<path fill-rule="evenodd" clip-rule="evenodd" d="M62.8276 110.177C63.27 110.469 63.5116 110.85 63.5116 111.243V111.26L64.8092 118.107C64.8021 118.677 64.4227 119.224 63.7495 119.638C63.0739 120.054 62.1298 120.317 61.0783 120.317C60.0267 120.317 59.0827 120.054 58.4071 119.638C57.7339 119.224 57.3545 118.677 57.3473 118.107L58.645 111.26V111.243C58.645 110.85 58.8866 110.469 59.329 110.177C59.769 109.887 60.3871 109.702 61.0783 109.702C61.7695 109.702 62.3875 109.887 62.8276 110.177ZM62.9996 109.887C62.5003 109.557 61.8206 109.359 61.0783 109.359C60.336 109.359 59.6563 109.557 59.157 109.887C58.6652 110.211 58.3278 110.68 58.3207 111.225L57.0228 118.074V118.091C57.0228 118.839 57.5141 119.485 58.2436 119.934C58.9771 120.385 59.9796 120.659 61.0783 120.659C62.1769 120.659 63.1795 120.385 63.913 119.934C64.6425 119.485 65.1338 118.839 65.1338 118.091V118.074L63.8359 111.225C63.8288 110.68 63.4913 110.211 62.9996 109.887Z" fill="black"/>
<path fill-rule="evenodd" clip-rule="evenodd" d="M62.8276 110.177C63.27 110.469 63.5116 110.85 63.5116 111.243C63.5116 111.635 63.27 112.016 62.8276 112.308C62.3875 112.598 61.7695 112.784 61.0783 112.784C60.3871 112.784 59.769 112.598 59.329 112.308C58.8866 112.016 58.645 111.635 58.645 111.243C58.645 110.85 58.8866 110.469 59.329 110.177C59.769 109.887 60.3871 109.702 61.0783 109.702C61.7695 109.702 62.3875 109.887 62.8276 110.177ZM62.9996 109.887C62.5003 109.557 61.8206 109.359 61.0783 109.359C60.336 109.359 59.6563 109.557 59.157 109.887C58.6652 110.211 58.3278 110.68 58.3207 111.225L57.0228 118.074V118.091C57.0228 118.839 57.5141 119.485 58.2436 119.934C58.9771 120.385 59.9796 120.659 61.0783 120.659C62.1769 120.659 63.1795 120.385 63.913 119.934C64.6425 119.485 65.1338 118.839 65.1338 118.091V118.074L63.8359 111.225C63.8288 110.68 63.4913 110.211 62.9996 109.887ZM63.6413 111.944L64.8092 118.107C64.8021 118.677 64.4227 119.224 63.7495 119.638C63.0739 120.054 62.1298 120.317 61.0783 120.317C60.0267 120.317 59.0827 120.054 58.4071 119.638C57.7339 119.224 57.3545 118.677 57.3473 118.107L58.5152 111.944C58.6631 112.198 58.8867 112.42 59.157 112.598C59.6563 112.928 60.336 113.126 61.0783 113.126C61.8206 113.126 62.5003 112.928 62.9996 112.598C63.2698 112.42 63.4935 112.198 63.6413 111.944Z" fill="black"/>
<path fill-rule="evenodd" clip-rule="evenodd" d="M61.081 111.413C61.6907 111.413 62.2166 112.006 62.2166 112.782H62.541C62.541 111.856 61.9048 111.07 61.081 111.07C60.2573 111.07 59.6211 111.856 59.6211 112.782H59.9455C59.9455 112.006 60.4713 111.413 61.081 111.413Z" fill="black"/>
<path d="M104.881 120.148L115.425 125.798V127.168L114.127 127.825L106.341 131.819L105.043 132.475L103.433 131.619L95.7963 127.858L94.4985 127.168V125.798L104.881 120.148Z" fill="#837477"/>
<path fill-rule="evenodd" clip-rule="evenodd" d="M104.877 119.953L115.584 125.69V141.375H115.26V127.437L114.195 127.976L114.194 127.976L106.409 131.969L106.408 131.97L105.202 132.58V146.854H104.878V132.578L103.359 131.77L95.7227 128.009L94.6579 127.443V141.375H94.3335V125.691L104.877 119.953ZM94.6579 127.06L95.8643 127.701L103.501 131.462L104.878 132.194V131.38L94.6579 126.07V127.06ZM94.8562 125.792L105.039 131.083L115.062 125.794L104.878 120.338L94.8562 125.792ZM115.26 126.072L105.202 131.38V132.2L106.267 131.662L106.268 131.661L114.053 127.668L114.054 127.667L115.26 127.057V126.072Z" fill="black"/>
<path fill-rule="evenodd" clip-rule="evenodd" d="M94.4272 136.901L94.5705 136.594L105.043 142.035L115.353 136.594L115.498 136.9L105.044 142.417L94.4272 136.901Z" fill="black"/>
<path d="M104.761 163.282L88.8639 171.671L87.2417 170.809L69.2353 161.233L67.9375 160.543V131.609V127.842L83.8351 119.453L104.761 130.924V163.282Z" fill="#ECECEC"/>
<path fill-rule="evenodd" clip-rule="evenodd" d="M83.8331 119.266L104.92 130.825V163.393L88.8603 171.868L67.772 160.653V127.741L83.8331 119.266ZM68.0964 128.127V131.508L73.4792 134.371V131.033L68.0964 128.127ZM73.8036 131.209V134.543L88.6983 142.464V139.251L73.8036 131.209ZM89.0228 139.253V171.399L104.596 163.181V131.203L89.0228 139.253ZM104.398 130.924L88.8622 138.955L68.2936 127.849L83.8303 119.65L104.398 130.924ZM88.6983 171.398V142.847L68.0964 131.891V160.442L88.6983 171.398Z" fill="black"/>
<path fill-rule="evenodd" clip-rule="evenodd" d="M93.5659 165.17V144.625H93.2406V165.17H93.5659Z" fill="black"/>
<path fill-rule="evenodd" clip-rule="evenodd" d="M97.1343 162.256V141.711H96.809V162.256H97.1343Z" fill="black"/>
<path fill-rule="evenodd" clip-rule="evenodd" d="M100.705 160.201V139.656H100.379V160.201H100.705Z" fill="black"/>
<path d="M85.5414 159.373C85.1427 165.133 81.4742 166.727 77.3477 162.935C73.2212 159.143 70.1992 151.399 70.5979 145.64C70.9966 139.88 74.665 138.285 78.7916 142.078C82.9181 145.87 85.9401 153.613 85.5414 159.373Z" fill="white"/>
<path fill-rule="evenodd" clip-rule="evenodd" d="M78.7799 142.25C74.721 138.52 71.1126 140.089 70.7204 145.754C70.3282 151.419 73.3007 159.036 77.3597 162.766C81.4187 166.496 85.027 164.928 85.4192 159.263C85.8114 153.597 82.8389 145.981 78.7799 142.25ZM70.4757 145.529C70.881 139.675 74.6095 138.054 78.8036 141.909C82.9977 145.763 86.0692 153.634 85.6639 159.487C85.2587 165.341 81.5302 166.962 77.336 163.108C73.1419 159.253 70.0705 151.383 70.4757 145.529Z" fill="black"/>
<path d="M70.2977 131.355C70.2596 131.906 69.9091 132.058 69.5149 131.696C69.1206 131.333 68.8319 130.593 68.87 130.043C68.9081 129.493 69.2586 129.341 69.6528 129.703C70.047 130.065 70.3357 130.805 70.2977 131.355Z" fill="white"/>
<path fill-rule="evenodd" clip-rule="evenodd" d="M69.6446 129.876C69.3179 129.575 69.0275 129.702 68.9959 130.158C68.9644 130.614 69.2036 131.227 69.5303 131.527C69.8569 131.827 70.1473 131.701 70.1789 131.245C70.2105 130.789 69.9712 130.176 69.6446 129.876ZM68.7512 129.933C68.7959 129.288 69.2064 129.11 69.6682 129.534C70.13 129.958 70.4682 130.825 70.4236 131.47C70.379 132.114 69.9684 132.293 69.5066 131.868C69.0448 131.444 68.7066 130.577 68.7512 129.933Z" fill="black"/>
<path d="M72.8943 132.722C72.8562 133.273 72.5058 133.425 72.1115 133.063C71.7173 132.7 71.4286 131.961 71.4667 131.41C71.5048 130.86 71.8552 130.708 72.2495 131.07C72.6437 131.432 72.9324 132.172 72.8943 132.722Z" fill="white"/>
<path fill-rule="evenodd" clip-rule="evenodd" d="M72.2373 131.243C71.9107 130.943 71.6203 131.069 71.5887 131.525C71.5571 131.981 71.7964 132.594 72.123 132.894C72.4497 133.194 72.7401 133.068 72.7717 132.612C72.8032 132.156 72.564 131.543 72.2373 131.243ZM71.344 131.3C71.3886 130.655 71.7992 130.477 72.261 130.901C72.7228 131.326 73.061 132.192 73.0164 132.837C72.9717 133.481 72.5612 133.66 72.0994 133.235C71.6376 132.811 71.2994 131.944 71.344 131.3Z" fill="black"/>
<path d="M84.9042 158.795C84.5394 164.064 81.1829 165.524 77.4073 162.054C73.6317 158.584 70.8667 151.499 71.2315 146.229C71.5964 140.959 74.9528 139.5 78.7284 142.97C82.504 146.44 85.269 153.525 84.9042 158.795Z" fill="#BEDDF9"/>
<path fill-rule="evenodd" clip-rule="evenodd" d="M78.7187 143.143C75.0107 139.735 71.7143 141.168 71.356 146.344C70.9977 151.519 73.7132 158.477 77.4213 161.885C81.1293 165.293 84.4257 163.86 84.784 158.684C85.1423 153.509 82.4267 146.551 78.7187 143.143ZM71.1113 146.119C71.4827 140.755 74.8992 139.269 78.7424 142.801C82.5855 146.333 85.4 153.545 85.0286 158.909C84.6573 164.273 81.2408 165.758 77.3976 162.226C73.5545 158.694 70.74 151.483 71.1113 146.119Z" fill="black"/>
<path fill-rule="evenodd" clip-rule="evenodd" d="M80.4192 161.174L74.2549 143.711L73.9508 143.83L80.1152 161.294L80.4192 161.174ZM81.23 155.695L77.6611 145.764L77.3578 145.886L80.9266 155.816L81.23 155.695Z" fill="black"/>
<path d="M204.966 160.378L189.069 168.767L146.729 146.51V135.382V85.3892L162.627 77L204.966 99.5994V160.378Z" fill="#837477"/>
<path d="M205 100L189 108V185.5L204.5 177.5L205 100Z" fill="#908386"/>
<path fill-rule="evenodd" clip-rule="evenodd" d="M162.627 76.8047L205.128 99.4904V160.48L189.068 168.955L146.566 146.613V85.2797L162.627 76.8047ZM146.891 85.663V146.401L188.906 168.487V107.919L146.891 85.663ZM189.23 107.92V168.487L204.803 160.269V99.8702L189.23 107.92ZM204.602 99.5933L189.069 107.623L147.091 85.3858L162.626 77.188L204.602 99.5933ZM148.026 88.1907L187.446 108.906V166.13L148.026 145.414V88.1907ZM148.351 88.7437V145.202L167.574 155.304V98.8457L148.351 88.7437ZM167.898 99.0162V155.475L187.121 165.577V109.118L167.898 99.0162ZM165.708 132.125V123.222H166.033V132.125H165.708ZM169.277 133.495V124.592H169.602V133.495H169.277Z" fill="black"/>
<path d="M132.049 167.012L133.746 167.903L135.368 167.041L153.374 157.465L154.315 156.965C154.534 156.848 154.672 156.612 154.672 156.353V141.195L152.372 139.986C152.186 139.888 151.967 139.89 151.783 139.991L132.024 150.822C131.742 150.977 131.515 151.213 131.363 151.494C131.226 151.748 131.15 152.039 131.15 152.341V165.479C131.15 166.128 131.498 166.722 132.049 167.012Z" fill="#37AFB7"/>
<path fill-rule="evenodd" clip-rule="evenodd" d="M152.447 139.832C152.215 139.71 151.942 139.712 151.711 139.839L131.953 150.67C131.642 150.84 131.392 151.099 131.225 151.408C131.074 151.687 130.991 152.008 130.991 152.341V165.478C130.991 166.193 131.374 166.846 131.979 167.164L133.749 168.094L154.391 157.117C154.664 156.971 154.837 156.676 154.837 156.352V141.088L152.447 139.832ZM151.861 140.142C151.999 140.067 152.163 140.065 152.302 140.138L154.315 141.196L133.74 152.306L131.61 151.412C131.739 151.232 131.906 151.081 132.102 150.973L151.861 140.142ZM131.443 151.71L133.586 152.61V167.626L132.124 166.858C131.628 166.597 131.315 166.063 131.315 165.478V152.341C131.315 152.119 131.36 151.905 131.443 151.71ZM133.911 167.625V152.599L154.512 141.474V156.352C154.512 156.546 154.409 156.724 154.245 156.811L133.911 167.625Z" fill="black"/>
<path fill-rule="evenodd" clip-rule="evenodd" d="M159.056 179.891H157.758V182.63C157.758 183.008 158.048 183.315 158.407 183.315C158.765 183.315 159.056 183.008 159.056 182.63V179.891Z" fill="white"/>
<path fill-rule="evenodd" clip-rule="evenodd" d="M157.595 179.719H159.217V182.629C159.217 183.102 158.854 183.485 158.406 183.485C157.958 183.485 157.595 183.102 157.595 182.629V179.719ZM157.919 180.061V182.629C157.919 182.913 158.137 183.143 158.406 183.143C158.675 183.143 158.892 182.913 158.892 182.629V180.061H157.919Z" fill="black"/>
<path fill-rule="evenodd" clip-rule="evenodd" d="M134.395 167.219H133.097V169.958C133.097 170.336 133.388 170.643 133.746 170.643C134.104 170.643 134.395 170.336 134.395 169.958V167.219Z" fill="white"/>
<path fill-rule="evenodd" clip-rule="evenodd" d="M132.939 167.047H134.562V169.957C134.562 170.43 134.199 170.813 133.751 170.813C133.303 170.813 132.939 170.43 132.939 169.957V167.047ZM133.264 167.389V169.957C133.264 170.241 133.482 170.471 133.751 170.471C134.019 170.471 134.237 170.241 134.237 169.957V167.389H133.264Z" fill="black"/>
<path d="M132.939 167.107V164.91C132.939 163.405 133.788 162.044 135.099 161.449L149.161 155.067V139.323C149.161 138.055 149.826 136.891 150.888 136.297L153.21 134.999C154.131 134.485 155.23 134.469 156.165 134.956L179.149 146.934C180.256 147.511 180.957 148.702 180.957 150.005V154.896V164.655V170.776C180.957 170.907 180.886 171.026 180.775 171.084L160.493 181.548C159.588 182.015 158.528 182.012 157.625 181.538L134.2 169.254C133.428 168.849 132.939 168.017 132.939 167.107Z" fill="#37AFB7"/>
<path fill-rule="evenodd" clip-rule="evenodd" d="M156.09 135.108C155.203 134.646 154.158 134.661 153.283 135.15L150.961 136.448C149.952 137.012 149.321 138.118 149.321 139.323V154.96L174.141 167.926L180.792 164.547V150.004C180.792 149.287 180.568 148.606 180.176 148.053L177.001 149.952C176.035 150.529 175.438 151.61 175.438 152.782V158.148H175.114V152.782C175.114 151.487 175.774 150.292 176.841 149.654L179.964 147.786C179.714 147.503 179.414 147.265 179.074 147.087L156.09 135.108ZM180.792 164.927L160.961 175.004C159.895 175.546 159.216 176.685 159.216 177.934V181.72C159.629 181.699 160.039 181.59 160.419 181.394L180.701 170.929C180.756 170.9 180.792 170.841 180.792 170.775V164.927ZM158.892 181.719V177.934C158.892 176.553 159.641 175.294 160.821 174.695L173.771 168.114L149.154 155.255L135.16 161.606C133.909 162.174 133.099 163.472 133.099 164.909V167.107C133.099 167.952 133.552 168.724 134.269 169.1L157.694 181.384C158.073 181.583 158.48 181.694 158.892 181.719ZM148.996 154.954V139.323C148.996 137.991 149.694 136.768 150.809 136.145L153.132 134.848C154.099 134.307 155.253 134.29 156.234 134.801L179.218 146.78C180.38 147.386 181.116 148.636 181.116 150.004V170.775C181.116 170.971 181.01 171.15 180.843 171.237L160.562 181.701C159.611 182.192 158.498 182.188 157.55 181.691L134.125 169.406C133.298 168.973 132.774 168.082 132.774 167.107V164.909C132.774 163.335 133.662 161.913 135.032 161.291L148.996 154.954Z" fill="black"/>
<path d="M160.923 182.082L161.892 182.591C162.35 182.832 162.888 182.83 163.345 182.587L164.242 182.111L182.248 172.535L182.654 172.319C183.201 172.028 183.546 171.437 183.546 170.79V156.265L181.689 155.289C181.225 155.045 180.678 155.05 180.218 155.302L160.024 166.372V180.549C160.024 181.199 160.372 181.792 160.923 182.082Z" fill="#37AFB7"/>
<path fill-rule="evenodd" clip-rule="evenodd" d="M181.764 155.135C181.254 154.867 180.652 154.872 180.146 155.149L159.865 166.267V180.548C159.865 181.263 160.248 181.916 160.853 182.234L161.823 182.744C162.326 183.008 162.919 183.007 163.421 182.74L182.729 172.472C183.331 172.152 183.711 171.501 183.711 170.79V156.158L181.764 155.135ZM180.296 155.453C180.71 155.226 181.202 155.222 181.62 155.442L183.189 156.266L163.232 167.043C162.842 167.253 162.384 167.268 161.984 167.084L160.404 166.357L180.296 155.453ZM160.189 166.632L161.854 167.398C162.344 167.623 162.904 167.604 163.379 167.348L183.386 156.544V170.79C183.386 171.372 183.076 171.904 182.583 172.166L163.275 182.434C162.864 182.653 162.379 182.654 161.967 182.437L160.998 181.928C160.502 181.667 160.189 181.133 160.189 180.548V166.632Z" fill="black"/>
<path d="M131.647 177.326L115.749 185.715L114.127 184.852L96.1205 175.276L94.8228 174.586V159.006L102.772 154.812L110.72 150.617L131.647 162.088V177.326Z" fill="white"/>
<path fill-rule="evenodd" clip-rule="evenodd" d="M110.719 150.422L131.806 161.981V177.428L115.746 185.903L94.6577 174.689V158.897L110.719 150.422ZM110.716 150.806L95.1793 159.005L115.748 170.111L131.284 162.08L110.716 150.806ZM131.482 162.359L115.909 170.41V185.435L131.482 177.217V162.359ZM115.584 185.434V170.408L94.9822 159.283V174.478L115.584 185.434Z" fill="black"/>
<path fill-rule="evenodd" clip-rule="evenodd" d="M105.853 165.075L118.313 158.417L117.727 157.195L104.556 164.234V170.989H105.853V165.075Z" fill="#F0512D"/>
<path d="M131.647 162.599L115.749 170.988L114.127 170.125L96.1205 160.55L94.8228 159.86V144.28L102.772 140.085L110.72 135.891L131.647 147.362V162.599Z" fill="#E7C89E"/>
<path fill-rule="evenodd" clip-rule="evenodd" d="M110.719 135.695L131.806 147.254V162.702L115.746 171.177L94.6577 159.962V144.171L110.719 135.695ZM110.716 136.08L95.1793 144.278L115.748 155.385L131.284 147.354L110.716 136.08ZM131.482 147.633L115.909 155.683V170.708L131.482 162.49V147.633ZM115.584 170.707V155.681L94.9822 144.557V159.751L115.584 170.707Z" fill="black"/>
<path fill-rule="evenodd" clip-rule="evenodd" d="M105.852 150.357L121.546 142.326L120.98 141.094L104.554 149.499V156.263H105.852V150.357Z" fill="#F0512D"/>
<path d="M152.409 188.615L136.511 197.004L134.889 196.141L116.883 186.565L115.585 185.875V170.295L123.534 166.101L131.483 161.906L152.409 173.377V188.615Z" fill="#E7C89E"/>
<path fill-rule="evenodd" clip-rule="evenodd" d="M131.481 161.719L152.568 173.278V188.725L136.508 197.2L115.42 185.985V170.194L131.481 161.719ZM131.478 162.103L115.942 170.302L136.51 181.408L152.046 173.377L131.478 162.103ZM152.244 173.656L136.671 181.707V196.731L152.244 188.513V173.656ZM136.346 196.73V181.704L115.744 170.58V185.775L136.346 196.73Z" fill="black"/>
<path fill-rule="evenodd" clip-rule="evenodd" d="M126.616 176.372L139.075 169.714L138.489 168.492L125.318 175.531V182.286H126.616V176.372Z" fill="#F0512D"/>
<path d="M152.409 173.896L136.511 182.285L134.889 181.422L116.883 171.847L115.585 171.157V155.577L123.534 151.382L131.483 147.188L152.409 158.658V173.896Z" fill="#E7C89E"/>
<path fill-rule="evenodd" clip-rule="evenodd" d="M131.481 147L152.568 158.559V174.006L136.508 182.481L115.42 171.267V155.476L131.481 147ZM131.478 147.384L115.942 155.583L136.51 166.69L152.046 158.659L131.478 147.384ZM152.244 158.938L136.671 166.988V182.013L152.244 173.795V158.938ZM136.346 182.012V166.986L115.744 155.861V171.056L136.346 182.012Z" fill="black"/>
<path fill-rule="evenodd" clip-rule="evenodd" d="M126.613 161.646L141.837 153.277L141.237 152.062L125.315 160.815V167.565H126.613V161.646Z" fill="#F0512D"/>
<path d="M31.5544 146.514L20.5234 152.335L9.81689 146.514V137.783L15.5757 134.958L21.3345 132.133L31.5544 137.783V146.514Z" fill="#E7C89E"/>
<path fill-rule="evenodd" clip-rule="evenodd" d="M21.336 131.938L31.7138 137.675V146.616L20.5195 152.523L9.65186 146.614V137.669L21.336 131.938ZM21.3274 132.319L10.1828 137.786L20.5217 143.407L31.1955 137.775L21.3274 132.319ZM31.3893 138.055L20.6828 143.705V152.054L31.3893 146.404V138.055ZM20.3584 152.05V143.704L9.9763 138.059V146.405L20.3584 152.05Z" fill="black"/>
<path fill-rule="evenodd" clip-rule="evenodd" d="M15.653 141.28L26.1733 135.48L25.5725 134.266L14.3553 140.45V143.775H15.653V141.28Z" fill="#F0512D"/>
<path d="M31.5544 137.944L20.5234 143.765L9.81689 137.944V129.212L15.5757 126.387L21.3345 123.562L31.5544 129.212V137.944Z" fill="#E7C89E"/>
<path fill-rule="evenodd" clip-rule="evenodd" d="M21.336 123.375L31.7138 129.112V138.053L20.5195 143.96L9.65186 138.052V129.107L21.336 123.375ZM21.3274 123.757L10.1828 129.224L20.5217 134.845L31.1955 129.212L21.3274 123.757ZM31.3893 129.493L20.6828 135.143V143.491L31.3893 137.842V129.493ZM20.3584 143.488V135.141L9.9763 129.497V137.843L20.3584 143.488Z" fill="black"/>
<path fill-rule="evenodd" clip-rule="evenodd" d="M15.653 132.717L26.1733 126.917L25.5725 125.703L14.3553 131.887V135.213H15.653V132.717Z" fill="#F0512D"/>
<path d="M31.5544 129.389L20.5234 135.21L9.81689 129.389V120.658L15.5757 117.833L21.3345 115.008L31.5544 120.658V129.389Z" fill="#E7C89E"/>
<path fill-rule="evenodd" clip-rule="evenodd" d="M21.336 114.812L31.7138 120.55V129.491L20.5195 135.398L9.65186 129.489V120.544L21.336 114.812ZM21.3274 115.194L10.1828 120.661L20.5217 126.282L31.1955 120.65L21.3274 115.194ZM31.3893 120.93L20.6828 126.58V134.929L31.3893 129.279V120.93ZM20.3584 134.925V126.579L9.9763 120.934V129.28L20.3584 134.925Z" fill="black"/>
<path fill-rule="evenodd" clip-rule="evenodd" d="M15.653 124.147L26.1733 118.347L25.5725 117.133L14.3553 123.317V126.643H15.653V124.147Z" fill="#F0512D"/>
<path d="M74.0593 168.756L63.0283 174.577L52.3218 168.756V160.025L58.0806 157.2L63.8394 154.375L74.0593 160.025V168.756Z" fill="#E7C89E"/>
<path fill-rule="evenodd" clip-rule="evenodd" d="M63.8409 154.188L74.2187 159.925V168.866L63.0244 174.773L52.1567 168.864V159.919L63.8409 154.188ZM63.8323 154.569L52.6877 160.036L63.0266 165.657L73.7004 160.025L63.8323 154.569ZM73.8942 160.305L63.1877 165.955V174.304L73.8942 168.654V160.305ZM62.8633 174.3V165.954L52.4812 160.309V168.655L62.8633 174.3Z" fill="black"/>
<path fill-rule="evenodd" clip-rule="evenodd" d="M58.1584 163.53L68.6787 157.73L68.0778 156.516L56.8607 162.7V166.025H58.1584V163.53Z" fill="#F0512D"/>
<path d="M84.4382 174.241L73.4072 180.062L62.7007 174.241V165.509L68.4595 162.684L74.2183 159.859L84.4382 165.509V174.241Z" fill="#E7C89E"/>
<path fill-rule="evenodd" clip-rule="evenodd" d="M74.2198 159.672L84.5976 165.409V174.35L73.4033 180.257L62.5356 174.349V165.403L74.2198 159.672ZM74.2112 160.054L63.0666 165.521L73.4055 171.142L84.0793 165.509L74.2112 160.054ZM84.2731 165.79L73.5666 171.439V179.788L84.2731 174.138V165.79ZM73.2422 179.784V171.438L62.8601 165.793V174.14L73.2422 179.784Z" fill="black"/>
<path fill-rule="evenodd" clip-rule="evenodd" d="M68.5373 169.014L79.0576 163.214L78.4567 162L67.2396 168.184V171.51H68.5373V169.014Z" fill="#F0512D"/>
<path d="M33.1719 136.696V154.16C33.1719 155.452 33.8605 156.634 34.9525 157.216L36.4475 158.014L42.4488 161.165C42.8991 161.402 43.3885 161.521 43.8785 161.524C44.3695 161.526 44.861 161.411 45.3142 161.178L47.7319 159.936C48.8479 159.363 49.5562 158.168 49.5562 156.858V139.416C49.5562 138.096 48.8374 136.894 47.7086 136.325L40.0749 132.482C39.1967 132.04 38.1769 132.037 37.2965 132.474L35.0349 133.598C33.8977 134.162 33.1719 135.369 33.1719 136.696Z" fill="#F2AC59"/>
<path fill-rule="evenodd" clip-rule="evenodd" d="M40.1436 132.327C39.2215 131.863 38.1507 131.86 37.2263 132.319L34.9647 133.442C33.7707 134.035 33.0086 135.302 33.0086 136.695V154.16C33.0086 155.516 33.7316 156.757 34.8783 157.368L36.3732 158.166L36.3741 158.167L42.3755 161.318C42.8482 161.566 43.3621 161.692 43.8766 161.694C44.3921 161.697 44.9083 161.576 45.3841 161.332L47.8018 160.089C48.9736 159.487 49.7173 158.232 49.7173 156.857V139.415C49.7173 138.029 48.9626 136.767 47.7774 136.17L40.1436 132.327ZM37.3645 132.629C38.2008 132.213 39.1697 132.216 40.0039 132.636L47.6377 136.479C48.71 137.019 49.3928 138.161 49.3928 139.415V156.857C49.3928 158.101 48.72 159.237 47.6598 159.782L45.2421 161.024C44.8613 161.219 44.4519 161.328 44.0396 161.348V142.148C44.0396 140.769 43.2926 139.512 42.1168 138.912L33.9509 134.741C34.247 134.325 34.6389 133.982 35.1029 133.752L37.3645 132.629ZM33.7683 135.029L41.9754 139.22C43.0393 139.763 43.7151 140.901 43.7151 142.148V161.347C43.3046 161.322 42.8978 161.21 42.52 161.011L36.5196 157.86L36.5187 157.86L35.0246 157.063C33.9872 156.509 33.3331 155.387 33.3331 154.16V136.695C33.3331 136.096 33.4888 135.523 33.7683 135.029Z" fill="black"/>
<path fill-rule="evenodd" clip-rule="evenodd" d="M34.9618 133.65L35.3834 133.873L35.5285 133.566L35.1069 133.344L34.9618 133.65ZM35.6646 134.021L36.5079 134.466L36.653 134.16L35.8097 133.715L35.6646 134.021ZM36.789 134.614L37.6324 135.059L37.7775 134.753L36.9341 134.308L36.789 134.614ZM37.9135 135.208L38.7568 135.653L38.9019 135.346L38.0586 134.901L37.9135 135.208ZM39.0379 135.801L39.8813 136.246L40.0264 135.94L39.183 135.495L39.0379 135.801ZM40.1624 136.394L41.0058 136.839L41.1508 136.533L40.3075 136.088L40.1624 136.394ZM41.2869 136.988L42.1302 137.433L42.2753 137.127L41.432 136.682L41.2869 136.988ZM42.4113 137.581L42.833 137.804C42.9696 137.876 43.1015 137.955 43.2284 138.04L43.4028 137.751C43.2664 137.66 43.1247 137.575 42.9781 137.497L42.5564 137.275L42.4113 137.581ZM43.4782 138.221C43.7238 138.413 43.948 138.63 44.1481 138.867L44.3906 138.64C44.1757 138.385 43.9349 138.152 43.6711 137.946L43.4782 138.221ZM44.3414 139.114C44.5267 139.367 44.6867 139.64 44.8186 139.929L45.1108 139.78C44.9691 139.47 44.7973 139.177 44.5983 138.904L44.3414 139.114ZM44.9409 140.221C45.0528 140.516 45.1364 140.825 45.1889 141.143L45.5085 141.084C45.4521 140.742 45.3623 140.411 45.2421 140.094L44.9409 140.221ZM45.2307 141.459C45.2462 141.617 45.2542 141.777 45.2542 141.938V142.45H45.5786V141.938C45.5786 141.765 45.5701 141.594 45.5534 141.424L45.2307 141.459ZM45.2542 142.792V143.816H45.5786V142.792H45.2542ZM45.2542 144.158V145.182H45.5786V144.158H45.2542ZM45.2542 145.524V146.548H45.5786V145.524H45.2542ZM45.2542 146.89V147.914H45.5786V146.89H45.2542ZM45.2542 148.256V149.28H45.5786V148.256H45.2542ZM45.2542 149.622V150.646H45.5786V149.622H45.2542ZM45.2542 150.988V152.012H45.5786V150.988H45.2542ZM45.2542 152.353V153.378H45.5786V152.353H45.2542ZM45.2542 153.719V154.744H45.5786V153.719H45.2542ZM45.2542 155.085V156.11H45.5786V155.085H45.2542ZM45.2542 156.451V157.476H45.5786V156.451H45.2542ZM45.2542 157.817V158.842H45.5786V157.817H45.2542ZM45.2542 159.183V160.208H45.5786V159.183H45.2542ZM45.2542 160.549V161.061H45.5786V160.549H45.2542Z" fill="black"/>
<path d="M42.0932 128.703L45.8242 130.586V131.785L42.0932 129.902V128.703Z" fill="white"/>
<path fill-rule="evenodd" clip-rule="evenodd" d="M41.9299 128.43V133.666H42.2543V130.171L45.6609 131.891V135.55H45.9854V130.477L41.9299 128.43ZM45.6609 131.511L42.2543 129.792V128.973L45.6609 130.693V131.511Z" fill="black"/>
<path fill-rule="evenodd" clip-rule="evenodd" d="M33.7532 138.277L34.2225 138.516L34.3632 138.207L33.8939 137.969L33.7532 138.277ZM34.5353 138.675L35.4739 139.152L35.6146 138.843L34.6761 138.366L34.5353 138.675ZM35.7867 139.311L36.7253 139.788L36.866 139.479L35.9275 139.002L35.7867 139.311ZM37.0381 139.947L37.9767 140.423L38.1174 140.115L37.1789 139.638L37.0381 139.947ZM38.2895 140.582L39.2281 141.059L39.3689 140.751L38.4303 140.274L38.2895 140.582ZM39.541 141.218L40.4795 141.695L40.6203 141.387L39.6817 140.91L39.541 141.218ZM40.7924 141.854L41.7309 142.331L41.8717 142.023L40.9331 141.546L40.7924 141.854ZM42.0438 142.49L42.5131 142.729L42.6538 142.42L42.1845 142.182L42.0438 142.49Z" fill="black"/>
<path fill-rule="evenodd" clip-rule="evenodd" d="M47.6813 147.671C47.6392 147.481 47.6095 147.227 47.6095 146.852H47.2851C47.2851 147.246 47.3162 147.527 47.3654 147.749C47.4148 147.973 47.4813 148.13 47.5434 148.272C47.5467 148.279 47.55 148.287 47.5532 148.294C47.6108 148.426 47.6618 148.542 47.701 148.7C47.7423 148.868 47.7718 149.088 47.7718 149.42C47.7718 149.751 47.7423 149.972 47.701 150.139C47.6618 150.297 47.6108 150.414 47.5532 150.545C47.55 150.553 47.5467 150.56 47.5434 150.568C47.4813 150.71 47.4148 150.867 47.3654 151.09C47.3162 151.312 47.2851 151.593 47.2851 151.988H47.6095C47.6095 151.612 47.6392 151.358 47.6813 151.168C47.7231 150.979 47.7783 150.848 47.8379 150.711C47.8417 150.703 47.8455 150.694 47.8493 150.685C47.9063 150.555 47.9682 150.414 48.0149 150.225C48.0648 150.023 48.0962 149.773 48.0962 149.42C48.0962 149.066 48.0648 148.816 48.0149 148.614C47.9682 148.425 47.9063 148.284 47.8493 148.154C47.8455 148.145 47.8417 148.137 47.8379 148.128C47.7783 147.992 47.7231 147.86 47.6813 147.671Z" fill="black"/>
<path fill-rule="evenodd" clip-rule="evenodd" d="M46.7077 148.015C46.6656 147.825 46.6359 147.571 46.6359 147.195H46.3115C46.3115 147.59 46.3426 147.871 46.3918 148.093C46.4412 148.316 46.5077 148.473 46.5697 148.615C46.573 148.623 46.5763 148.63 46.5796 148.638C46.6372 148.769 46.6881 148.886 46.7273 149.044C46.7687 149.211 46.7981 149.432 46.7981 149.763C46.7981 150.095 46.7687 150.315 46.7273 150.483C46.6881 150.641 46.6372 150.757 46.5796 150.889C46.5763 150.896 46.573 150.904 46.5697 150.912C46.5077 151.053 46.4412 151.211 46.3918 151.434C46.3426 151.656 46.3115 151.937 46.3115 152.332H46.6359C46.6359 151.956 46.6656 151.702 46.7077 151.512C46.7495 151.323 46.8047 151.191 46.8643 151.055C46.8681 151.046 46.8719 151.038 46.8757 151.029C46.9327 150.899 46.9946 150.758 47.0413 150.569C47.0912 150.367 47.1226 150.117 47.1226 149.763C47.1226 149.41 47.0912 149.16 47.0413 148.958C46.9946 148.769 46.9327 148.628 46.8757 148.498C46.8719 148.489 46.8681 148.48 46.8643 148.472C46.8047 148.336 46.7495 148.204 46.7077 148.015Z" fill="black"/>
<path d="M48.3715 156.246C47.946 157.087 47.9108 158.469 48.2929 159.333C48.675 160.197 49.3298 160.215 49.7553 159.374C50.1809 158.533 50.2161 157.151 49.834 156.287C49.4519 155.423 48.7971 155.405 48.3715 156.246Z" fill="white"/>
<path fill-rule="evenodd" clip-rule="evenodd" d="M49.759 156.442C50.1032 157.22 50.0715 158.465 49.6882 159.223C49.3048 159.98 48.715 159.964 48.3708 159.185C48.0265 158.407 48.0583 157.162 48.4416 156.405C48.825 155.647 49.4148 155.664 49.759 156.442ZM49.8254 159.533C50.2932 158.609 50.3319 157.09 49.9118 156.14C49.4918 155.19 48.7721 155.17 48.3044 156.094C47.8366 157.019 47.7979 158.538 48.2179 159.487C48.638 160.437 49.3577 160.457 49.8254 159.533Z" fill="black"/>
<path d="M184.037 171.674L199.935 180.063L201.557 179.2L219.564 169.625L220.861 168.935V146.506L204.964 138.117L184.037 149.588V171.674Z" fill="#837477"/>
<path d="M221 169L200 180.5V157.5L221 146.5V169Z" fill="#948689"/>
<path fill-rule="evenodd" clip-rule="evenodd" d="M204.963 137.922L183.876 149.481V171.777L199.936 180.251L221.024 169.037V146.397L204.963 137.922ZM220.7 146.783V168.826L200.098 179.782V157.908L220.7 146.783ZM199.774 157.91V179.783L184.2 171.565V149.859L199.774 157.91ZM184.398 149.58L199.934 157.611L220.503 146.505L204.966 138.306L184.398 149.58ZM219.727 149.309L201.396 158.895V177.427L219.727 167.667V149.309ZM219.402 149.861V155.301L201.72 164.715V159.108L219.402 149.861ZM201.72 165.099L219.402 155.684V161.122L201.72 170.537V165.099ZM201.72 170.92L219.402 161.505V167.456L201.72 176.871V170.92ZM205.685 159.155L215.581 154.019L215.437 153.711L205.542 158.848L205.685 159.155ZM205.685 164.634L215.581 159.497L215.437 159.19L205.542 164.326L205.685 164.634ZM205.685 170.455L215.581 165.318L215.437 165.011L205.542 170.147L205.685 170.455Z" fill="black"/>
<path d="M193.166 137.066L206.294 130.145C206.377 130.102 206.474 130.098 206.56 130.134L206.878 130.268C207.065 130.347 207.14 130.584 207.035 130.765L195.501 150.608C195.435 150.721 195.314 150.784 195.189 150.769L194.837 150.729C194.688 150.712 194.569 150.589 194.55 150.432L192.989 137.415C192.972 137.271 193.043 137.131 193.166 137.066Z" fill="#8B8FA5"/>
<path fill-rule="evenodd" clip-rule="evenodd" d="M206.619 129.974C206.49 129.92 206.345 129.926 206.221 129.992L193.093 136.912C192.908 137.01 192.801 137.22 192.827 137.436L194.388 150.453C194.417 150.688 194.595 150.873 194.819 150.899L195.171 150.939C195.358 150.96 195.54 150.866 195.638 150.697L207.172 130.854C207.329 130.583 207.218 130.227 206.938 130.109L206.619 129.974ZM206.366 130.298C206.407 130.276 206.455 130.274 206.498 130.292L206.817 130.427C206.91 130.466 206.948 130.585 206.895 130.675L195.362 150.518C195.329 150.574 195.268 150.606 195.206 150.599L194.854 150.558C194.779 150.55 194.72 150.488 194.71 150.41L193.149 137.393C193.14 137.321 193.176 137.251 193.237 137.219L206.366 130.298Z" fill="black"/>
<path d="M206.99 130.458L193.812 137.405C193.688 137.47 193.617 137.61 193.635 137.755L194.879 148.129L195.171 150.567C195.199 150.799 195.435 150.934 195.634 150.833L200.419 148.398L202.227 149.568C202.415 149.689 202.648 149.702 202.847 149.601L206.009 147.999C206.248 147.878 206.256 147.522 206.022 147.389L204.312 146.417L208.966 144.05C209.093 143.985 209.166 143.842 209.147 143.695L208.778 140.86L207.456 130.718C207.426 130.486 207.189 130.353 206.99 130.458Z" fill="#8B8FA5"/>
<path d="M208.5 141L198 146.5L196 136.5L207.5 130.5L208.5 141Z" fill="#BEDDF9"/>
<path fill-rule="evenodd" clip-rule="evenodd" d="M207.62 130.694C207.574 130.346 207.218 130.147 206.92 130.305L193.742 137.252C193.557 137.349 193.451 137.559 193.477 137.776L195.013 150.588C195.055 150.936 195.408 151.139 195.707 150.986L200.413 148.592L202.145 149.713C202.38 149.865 202.671 149.881 202.92 149.755L206.082 148.153C206.44 147.971 206.452 147.437 206.102 147.238L204.672 146.425L209.04 144.203C209.23 144.107 209.339 143.891 209.31 143.671L207.62 130.694ZM204.311 146.609L205.948 147.539C206.065 147.606 206.061 147.784 205.941 147.844L202.779 149.446C202.63 149.522 202.455 149.512 202.314 149.421L200.76 148.416L204.311 146.609ZM207.065 130.611C207.164 130.559 207.283 130.625 207.298 130.741L208.604 140.76L195.014 147.868L193.799 137.733C193.79 137.66 193.825 137.59 193.887 137.558L207.065 130.611ZM195.057 148.227L208.65 141.118L208.989 143.717C208.999 143.791 208.962 143.863 208.899 143.895L195.567 150.678C195.467 150.729 195.349 150.661 195.335 150.545L195.057 148.227Z" fill="black"/>
<path d="M163.274 182.805L179.171 191.194L180.793 190.332L198.8 180.756L200.098 180.066V168.937V152.159V129.217L184.2 120.828L163.274 132.299V182.805Z" fill="#837477"/>
<path fill-rule="evenodd" clip-rule="evenodd" d="M184.202 120.633L163.114 132.192V182.908L179.174 191.383L200.263 180.168V129.108L184.202 120.633ZM199.938 129.494V151.883L184.203 143.831V137.991L199.938 129.494ZM183.878 138.166V143.832L179.336 146.229V140.619L183.878 138.166ZM179.012 140.621V190.914L163.439 182.696V132.57L179.012 140.621ZM163.637 132.291L179.173 140.322L199.741 129.216L184.204 121.017L163.637 132.291ZM179.336 190.913V180.168L199.938 169.212V179.957L179.336 190.913ZM199.735 168.937L179.336 179.785V163.39L184.042 160.887L199.735 168.937ZM184.406 160.694L199.938 152.434V168.661L184.406 160.694ZM199.734 152.159L179.336 163.006V146.612L184.042 144.129L199.734 152.159Z" fill="black"/>
<path d="M125.801 202.494L124.99 203.008L82.1641 180.751V151.475L82.9752 150.961L125.801 173.56V202.494Z" fill="#333333"/>
<path d="M126 202.5L125 203V174L126 173.5V202.5Z" fill="#7A7A7A"/>
<path fill-rule="evenodd" clip-rule="evenodd" d="M82.9652 150.766L125.961 173.454V202.591L124.995 203.203L81.999 180.857V151.377L82.9652 150.766ZM82.9794 151.156L82.499 151.46L125.15 173.796V202.705L125.636 202.397V173.666L82.9794 151.156ZM124.825 202.733V174.009L82.3235 151.75V180.644L124.825 202.733Z" fill="black"/>
<path fill-rule="evenodd" clip-rule="evenodd" d="M96.1078 190.709C96.1351 190.692 96.1664 190.685 96.1978 190.686L101.617 191.023L101.636 190.681L96.2168 190.345C96.1226 190.339 96.0288 190.362 95.9468 190.411L95.7198 190.548C95.3169 190.791 95.4342 191.435 95.8938 191.503L102.907 192.539C102.957 192.547 103 192.578 103.025 192.623L105.227 196.65C105.355 196.886 105.635 196.975 105.866 196.853L106.27 196.64C106.514 196.511 106.61 196.197 106.484 195.943L104.69 192.314L104.403 192.472L106.197 196.101C106.239 196.186 106.206 196.29 106.125 196.333L105.721 196.547C105.644 196.587 105.55 196.558 105.508 196.479L103.306 192.452C103.231 192.315 103.101 192.222 102.952 192.2L95.9387 191.164C95.7855 191.141 95.7464 190.927 95.8807 190.846L96.1078 190.709Z" fill="black"/>
<path d="M157.44 191.188L162.955 194.099L168.146 191.188V182.114L162.793 179.375L157.44 182.114V191.188Z" fill="#7A7A7A"/>
<path fill-rule="evenodd" clip-rule="evenodd" d="M162.796 179.188L157.281 182.01V191.297L162.961 194.294L168.312 191.294V182.01L162.796 179.188ZM167.987 182.402L163.12 185.131V193.817L167.987 191.088V182.402ZM162.796 193.825L157.605 191.085V182.394L162.796 185.133V193.825ZM162.956 184.835L157.81 182.119L162.796 179.568L167.791 182.124L162.956 184.835Z" fill="black"/>
<path d="M164.831 186.592C164.851 187.139 165.194 187.302 165.596 186.957C165.999 186.612 166.309 185.889 166.289 185.342C166.27 184.795 165.927 184.631 165.524 184.976C165.121 185.321 164.811 186.044 164.831 186.592Z" fill="white"/>
<path fill-rule="evenodd" clip-rule="evenodd" d="M165.529 185.153C165.863 184.867 166.146 185.003 166.162 185.456C166.179 185.908 165.922 186.506 165.589 186.792C165.256 187.077 164.972 186.942 164.956 186.489C164.939 186.037 165.196 185.438 165.529 185.153ZM166.414 185.24C166.391 184.598 165.989 184.406 165.517 184.811C165.045 185.215 164.681 186.063 164.704 186.705C164.727 187.346 165.129 187.539 165.601 187.134C166.074 186.729 166.438 185.881 166.414 185.24Z" fill="black"/>
<path d="M165.319 186.172C165.313 185.99 165.416 185.748 165.551 185.633C165.685 185.518 165.8 185.573 165.806 185.755C165.813 185.938 165.709 186.179 165.575 186.294C165.44 186.41 165.326 186.355 165.319 186.172Z" fill="white"/>
<path fill-rule="evenodd" clip-rule="evenodd" d="M165.566 186.13C165.631 186.075 165.681 185.959 165.678 185.871C165.675 185.783 165.62 185.756 165.555 185.812C165.49 185.867 165.44 185.983 165.443 186.071C165.447 186.159 165.502 186.186 165.566 186.13ZM165.93 185.655C165.94 185.932 165.783 186.298 165.579 186.473C165.375 186.647 165.201 186.564 165.191 186.287C165.181 186.01 165.339 185.644 165.542 185.469C165.746 185.295 165.92 185.378 165.93 185.655Z" fill="black"/>
<path d="M164.487 190.975C164.52 191.887 165.091 192.16 165.763 191.585C166.434 191.01 166.951 189.805 166.918 188.893C166.885 187.981 166.314 187.708 165.643 188.283C164.971 188.858 164.454 190.064 164.487 190.975Z" fill="white"/>
<path fill-rule="evenodd" clip-rule="evenodd" d="M165.651 188.452C166.253 187.937 166.765 188.181 166.794 188.999C166.824 189.816 166.36 190.896 165.759 191.412C165.157 191.927 164.645 191.683 164.616 190.865C164.586 190.048 165.049 188.968 165.651 188.452ZM167.046 188.783C167.01 187.777 166.379 187.475 165.639 188.11C164.898 188.745 164.327 190.075 164.364 191.081C164.4 192.087 165.03 192.389 165.771 191.754C166.512 191.119 167.083 189.789 167.046 188.783Z" fill="black"/>
<path d="M165.337 190.247C165.347 190.521 165.519 190.603 165.72 190.43C165.922 190.257 166.077 189.895 166.067 189.621C166.057 189.347 165.886 189.265 165.684 189.438C165.483 189.611 165.327 189.973 165.337 190.247Z" fill="white"/>
<path fill-rule="evenodd" clip-rule="evenodd" d="M165.693 189.606C165.825 189.493 165.937 189.547 165.944 189.726C165.95 189.905 165.849 190.142 165.717 190.255C165.585 190.367 165.473 190.314 165.466 190.135C165.46 189.956 165.561 189.719 165.693 189.606ZM166.196 189.51C166.182 189.142 165.952 189.032 165.681 189.264C165.41 189.496 165.201 189.983 165.215 190.351C165.228 190.719 165.458 190.829 165.729 190.597C166 190.365 166.209 189.878 166.196 189.51Z" fill="black"/>
<path d="M152.247 193.923L157.762 196.833L162.953 193.923V184.849L157.6 182.109L152.247 184.849V193.923Z" fill="#7A7A7A"/>
<path fill-rule="evenodd" clip-rule="evenodd" d="M157.603 181.922L152.088 184.744V194.031L157.768 197.029L163.119 194.028V184.744L157.603 181.922ZM162.794 185.136L157.928 187.865V196.551L162.794 193.823V185.136ZM157.603 196.559L152.412 193.82V185.128L157.603 187.868V196.559ZM157.763 187.569L152.617 184.854L157.603 182.302L162.598 184.858L157.763 187.569Z" fill="black"/>
<path d="M159.633 189.318C159.653 189.865 159.996 190.029 160.398 189.684C160.801 189.339 161.112 188.616 161.092 188.069C161.072 187.522 160.729 187.358 160.326 187.703C159.924 188.048 159.613 188.771 159.633 189.318Z" fill="white"/>
<path fill-rule="evenodd" clip-rule="evenodd" d="M160.331 187.872C160.664 187.586 160.948 187.722 160.964 188.174C160.981 188.627 160.724 189.225 160.391 189.511C160.058 189.796 159.774 189.66 159.758 189.208C159.741 188.755 159.998 188.157 160.331 187.872ZM161.216 187.958C161.193 187.317 160.791 187.125 160.319 187.529C159.846 187.934 159.482 188.782 159.506 189.424C159.529 190.065 159.931 190.257 160.403 189.853C160.875 189.448 161.239 188.6 161.216 187.958Z" fill="black"/>
<path d="M160.121 188.899C160.115 188.716 160.218 188.475 160.353 188.36C160.487 188.245 160.601 188.299 160.608 188.482C160.615 188.664 160.511 188.906 160.377 189.021C160.242 189.136 160.128 189.082 160.121 188.899Z" fill="white"/>
<path fill-rule="evenodd" clip-rule="evenodd" d="M160.368 188.857C160.433 188.801 160.483 188.685 160.48 188.597C160.476 188.509 160.421 188.483 160.357 188.538C160.292 188.594 160.242 188.71 160.245 188.798C160.248 188.886 160.304 188.912 160.368 188.857ZM160.732 188.381C160.742 188.658 160.585 189.024 160.381 189.199C160.177 189.374 160.003 189.291 159.993 189.014C159.983 188.737 160.14 188.371 160.344 188.196C160.548 188.021 160.722 188.104 160.732 188.381Z" fill="black"/>
<path d="M159.29 193.694C159.323 194.606 159.894 194.879 160.565 194.304C161.236 193.729 161.753 192.524 161.72 191.612C161.687 190.7 161.116 190.427 160.445 191.002C159.774 191.577 159.256 192.782 159.29 193.694Z" fill="white"/>
<path fill-rule="evenodd" clip-rule="evenodd" d="M160.453 191.179C161.055 190.663 161.566 190.908 161.596 191.725C161.626 192.542 161.162 193.623 160.561 194.138C159.959 194.654 159.447 194.409 159.417 193.592C159.388 192.775 159.851 191.694 160.453 191.179ZM161.848 191.509C161.811 190.503 161.181 190.202 160.44 190.837C159.7 191.471 159.129 192.801 159.165 193.808C159.202 194.814 159.832 195.115 160.573 194.48C161.314 193.846 161.885 192.516 161.848 191.509Z" fill="black"/>
<path d="M160.139 192.973C160.149 193.247 160.321 193.329 160.522 193.156C160.724 192.984 160.88 192.621 160.87 192.348C160.86 192.074 160.688 191.992 160.486 192.164C160.285 192.337 160.129 192.699 160.139 192.973Z" fill="white"/>
<path fill-rule="evenodd" clip-rule="evenodd" d="M160.495 192.333C160.627 192.22 160.739 192.273 160.745 192.452C160.752 192.631 160.65 192.868 160.519 192.981C160.387 193.094 160.275 193.04 160.268 192.861C160.262 192.682 160.363 192.446 160.495 192.333ZM160.997 192.237C160.984 191.869 160.754 191.758 160.483 191.991C160.212 192.223 160.003 192.709 160.016 193.077C160.03 193.445 160.26 193.555 160.531 193.323C160.802 193.091 161.011 192.605 160.997 192.237Z" fill="black"/>
</svg>
