<svg width="232" height="216" viewBox="0 0 232 216" fill="none" xmlns="http://www.w3.org/2000/svg">
<rect width="232" height="216" rx="16" fill="white"/>
<path d="M21.96 30V27.504H15.4V25.776L21.32 18.8H23.944V25.776H25.448V27.504H23.944V30H21.96ZM21.96 20.768H21.896L17.688 25.728V25.776H21.96V20.768ZM31.7276 30.16C28.8636 30.16 26.9756 28.944 26.9756 26.864C26.9756 24.672 29.3916 24.176 29.3916 24.176V24.096C29.3916 24.096 27.3276 23.68 27.3276 21.728C27.3276 19.888 28.9596 18.64 31.7276 18.64C34.4956 18.64 36.1276 19.888 36.1276 21.728C36.1276 23.68 34.0636 24.096 34.0636 24.096V24.176C34.0636 24.176 36.4796 24.672 36.4796 26.864C36.4796 28.944 34.5916 30.16 31.7276 30.16ZM31.7276 28.464C33.4396 28.464 34.3996 27.84 34.3996 26.752C34.3996 25.648 33.4396 25.04 31.7276 25.04C30.0156 25.04 29.0556 25.648 29.0556 26.752C29.0556 27.84 30.0156 28.464 31.7276 28.464ZM29.4076 21.872C29.4076 22.784 30.1916 23.408 31.7276 23.408C33.2636 23.408 34.0476 22.784 34.0476 21.872C34.0476 20.928 33.1996 20.336 31.7276 20.336C30.2556 20.336 29.4076 20.928 29.4076 21.872ZM46.9613 23.696H44.6573V30H42.8653V23.696H41.5213V22.688L42.8653 22.16V21.776C42.8653 19.632 44.1613 18.64 46.2573 18.64C47.2813 18.64 47.9693 19.072 47.9693 19.072V20.704C47.9693 20.704 47.4893 20.272 46.5613 20.272C45.4413 20.272 44.6573 20.752 44.6573 21.952V22.16H46.9613V23.696ZM49.1804 27.072V23.696H47.8844V22.56L49.8044 20.4H50.9724V22.16H53.7084V23.696H50.9724V26.832C50.9724 28.176 51.7564 28.528 52.6684 28.528C53.4844 28.528 53.9484 28.192 53.9484 28.192V29.856C53.9484 29.856 53.3564 30.16 52.4284 30.16C50.4124 30.16 49.1804 29.216 49.1804 27.072ZM54.9956 23.28V22.272C54.9956 19.504 58.8996 20.624 58.8996 19.072C58.8996 18.64 58.5796 18.32 57.8276 18.32C57.0436 18.32 56.7396 18.72 56.7396 19.168V19.312H55.2036V19.168C55.2036 17.856 56.1156 17.04 57.8276 17.04C59.5396 17.04 60.4356 17.872 60.4356 18.992C60.4356 21.584 56.5476 21.024 56.5476 22H60.3876V23.28H54.9956Z" fill="black"/>
<path d="M19.284 46.12C17.292 46.12 15.9 45.208 15.9 43.684C15.9 41.944 17.772 41.608 17.772 41.608V41.572C17.772 41.572 16.164 41.284 16.164 39.748C16.164 38.344 17.412 37.48 19.284 37.48C21.156 37.48 22.404 38.344 22.404 39.748C22.404 41.284 20.796 41.572 20.796 41.572V41.608C20.796 41.608 22.668 41.944 22.668 43.684C22.668 45.208 21.276 46.12 19.284 46.12ZM19.284 45.376C20.82 45.376 21.852 44.8 21.852 43.684C21.852 42.568 20.796 41.992 19.284 41.992C17.772 41.992 16.716 42.568 16.716 43.684C16.716 44.8 17.748 45.376 19.284 45.376ZM19.284 41.248C20.7 41.248 21.588 40.648 21.588 39.748C21.588 38.812 20.7 38.224 19.284 38.224C17.868 38.224 16.98 38.812 16.98 39.748C16.98 40.648 17.868 41.248 19.284 41.248ZM28.1264 41.416L26.6384 42.904L28.1264 44.392L27.6344 44.884L26.1464 43.396L24.6584 44.884L24.1664 44.392L25.6544 42.904L24.1664 41.416L24.6584 40.924L26.1464 42.412L27.6344 40.924L28.1264 41.416ZM35.1547 39.796C35.1547 39.796 34.8067 38.224 33.0067 38.224C31.1587 38.224 30.4147 39.892 30.4147 41.872H30.4387C30.4387 41.872 31.0267 40.504 33.1387 40.504C34.9267 40.504 36.2947 41.632 36.2947 43.312C36.2947 45.052 34.9867 46.12 33.0427 46.12C30.7987 46.12 29.6227 44.56 29.6227 42.232V41.812C29.6227 39.484 30.7027 37.48 33.0067 37.48C35.3227 37.48 35.9947 39.424 35.9947 39.796H35.1547ZM33.0427 45.376C34.4827 45.376 35.4787 44.596 35.4787 43.312C35.4787 42.028 34.4347 41.248 33.0427 41.248C31.7227 41.248 30.6547 42.076 30.6547 43.312C30.6547 44.548 31.6627 45.376 33.0427 45.376ZM41.7553 41.416L40.2673 42.904L41.7553 44.392L41.2633 44.884L39.7753 43.396L38.2873 44.884L37.7953 44.392L39.2833 42.904L37.7953 41.416L38.2873 40.924L39.7753 42.412L41.2633 40.924L41.7553 41.416ZM46.6356 46.12C44.6436 46.12 43.2516 45.208 43.2516 43.684C43.2516 41.944 45.1236 41.608 45.1236 41.608V41.572C45.1236 41.572 43.5156 41.284 43.5156 39.748C43.5156 38.344 44.7636 37.48 46.6356 37.48C48.5076 37.48 49.7556 38.344 49.7556 39.748C49.7556 41.284 48.1476 41.572 48.1476 41.572V41.608C48.1476 41.608 50.0196 41.944 50.0196 43.684C50.0196 45.208 48.6276 46.12 46.6356 46.12ZM46.6356 45.376C48.1716 45.376 49.2036 44.8 49.2036 43.684C49.2036 42.568 48.1476 41.992 46.6356 41.992C45.1236 41.992 44.0676 42.568 44.0676 43.684C44.0676 44.8 45.0996 45.376 46.6356 45.376ZM46.6356 41.248C48.0516 41.248 48.9396 40.648 48.9396 39.748C48.9396 38.812 48.0516 38.224 46.6356 38.224C45.2196 38.224 44.3316 38.812 44.3316 39.748C44.3316 40.648 45.2196 41.248 46.6356 41.248ZM55.8648 39.82V40.12H57.7728V40.816H55.8648V46H55.1208V40.816H54.1008V40.12H55.1208V39.76C55.1208 38.14 56.0208 37.48 57.1608 37.48C57.9288 37.48 58.3608 37.744 58.3608 37.744V38.464C58.3608 38.464 57.9648 38.176 57.2208 38.176C56.4408 38.176 55.8648 38.584 55.8648 39.82ZM59.445 43.9V40.816H58.425V40.12H59.445V38.8H60.189V40.12H62.445V40.816H60.189V43.816C60.189 45.004 60.765 45.424 61.545 45.424C62.289 45.424 62.685 45.136 62.685 45.136V45.844C62.685 45.844 62.253 46.12 61.485 46.12C60.345 46.12 59.445 45.46 59.445 43.9Z" fill="black"/>
<path fill-rule="evenodd" clip-rule="evenodd" d="M102.276 115.668L222.4 176.021L222.205 176.411L102.058 116.046L9.7942 162.017L9.6001 161.626L101.841 115.667V52.1172H102.276V115.668Z" fill="black"/>
<path d="M73.3033 130.202L94.651 140.889L96.8293 139.79L121.009 127.592L122.751 126.713V112.536V91.1623V61.9369L101.404 51.25L73.3033 65.8627V130.202Z" fill="#837477"/>
<path fill-rule="evenodd" clip-rule="evenodd" d="M101.402 51L73.0854 65.725V130.332L94.6513 141.128L122.969 126.842V61.7969L101.402 51ZM122.534 62.2882V90.8089L101.404 80.5516V73.1121L122.534 62.2882ZM100.968 73.3353V80.5535L94.8687 83.6069V76.4597L100.968 73.3353ZM94.4331 76.4623V140.531L73.5211 130.062V66.2072L94.4331 76.4623ZM73.7868 65.8518L94.6488 76.0824L122.269 61.9339L101.406 51.4896L73.7868 65.8518ZM94.8687 140.53V126.842L122.534 112.885V126.573L94.8687 140.53ZM122.26 112.534L94.8687 126.353V105.468L101.188 102.28L122.26 112.534ZM101.677 102.033L122.534 91.5112V112.182L101.677 102.033ZM122.26 91.1608L94.8687 104.979V84.0946L101.187 80.9314L122.26 91.1608Z" fill="black"/>
<path d="M16.6694 158.332L38.0171 169.019L94.8716 140.666V126.489V62.8041L73.5239 52.1172L16.6694 80.9064V158.332Z" fill="#837477"/>
<path d="M94.9995 63L37.9995 91.5V169L94.4995 140.5L94.9995 63Z" fill="#908386"/>
<path fill-rule="evenodd" clip-rule="evenodd" d="M73.5214 51.875L16.4496 80.7742V158.469L38.0149 169.264L95.0874 140.803V62.6712L73.5214 51.875ZM94.6517 63.1595V140.533L38.2329 168.668V91.5117L94.6517 63.1595ZM37.7973 91.5131V168.668L16.8853 158.199V81.258L37.7973 91.5131ZM17.1563 80.9052L38.0139 91.1337L94.3832 62.8064L73.5225 52.3632L17.1563 80.9052ZM93.1269 66.3796L40.1934 92.7687V165.665L93.1269 139.276V66.3796ZM92.6912 67.084V139.006L66.878 151.875V79.9528L92.6912 67.084ZM66.4423 80.17V152.092L40.6291 164.961V93.0388L66.4423 80.17ZM69.3831 122.347V111.006H68.9474V122.347H69.3831ZM64.5907 124.092V112.751H64.1551V124.092H64.5907Z" fill="black"/>
<path d="M151.068 140.662L129.72 151.349L127.542 150.25L103.362 138.051L101.62 137.172V108.601L122.967 97.9141L151.068 112.527V140.662Z" fill="#837477"/>
<path fill-rule="evenodd" clip-rule="evenodd" d="M122.971 97.6719L151.288 112.397V140.799L129.722 151.595L101.404 137.309V108.469L122.971 97.6719ZM101.839 108.96V137.04L129.504 150.997V123.132L101.839 108.96ZM129.94 123.134V150.998L150.852 140.529V112.879L129.94 123.134ZM150.586 112.524L129.724 122.754L102.104 108.606L122.967 98.1614L150.586 112.524ZM103.146 112.178L127.762 124.389V147.998L103.146 135.564V112.178ZM103.582 112.881V119.81L127.326 131.804V124.66L103.582 112.881ZM127.326 132.293L103.582 120.299V127.226L127.326 139.219V132.293ZM127.326 139.708L103.582 127.714V135.296L127.326 147.289V139.708ZM122.002 124.721L108.714 118.178L108.906 117.786L122.194 124.329L122.002 124.721ZM122.002 131.7L108.714 125.157L108.906 124.765L122.194 131.308L122.002 131.7ZM122.002 139.115L108.714 132.572L108.906 132.181L122.194 138.724L122.002 139.115Z" fill="black"/>
<path d="M131.466 109.041L124.06 112.749L117.089 109.041V97.4818L124.277 93.9922L131.466 97.4818V109.041Z" fill="#7A7A7A"/>
<path fill-rule="evenodd" clip-rule="evenodd" d="M124.273 93.75L131.679 97.3453V109.176L124.052 112.994L116.867 109.172V97.3453L124.273 93.75ZM117.302 97.8448L123.837 101.321V112.386L117.302 108.91V97.8448ZM124.273 112.396L131.244 108.906V97.8349L124.273 101.324V112.396ZM124.058 100.944L130.968 97.485L124.273 94.2348L117.566 97.4909L124.058 100.944Z" fill="black"/>
<path d="M121.548 103.175C121.521 103.872 121.061 104.081 120.52 103.641C119.979 103.201 119.562 102.28 119.589 101.583C119.616 100.885 120.076 100.677 120.617 101.116C121.158 101.556 121.575 102.478 121.548 103.175Z" fill="white"/>
<path fill-rule="evenodd" clip-rule="evenodd" d="M120.612 101.331C120.164 100.967 119.783 101.139 119.761 101.716C119.739 102.293 120.084 103.055 120.532 103.419C120.979 103.783 121.36 103.61 121.382 103.033C121.404 102.457 121.059 101.694 120.612 101.331ZM119.423 101.441C119.454 100.624 119.994 100.379 120.628 100.895C121.263 101.41 121.752 102.491 121.72 103.308C121.689 104.126 121.149 104.371 120.515 103.855C119.88 103.339 119.391 102.259 119.423 101.441Z" fill="black"/>
<path d="M120.896 102.641C120.905 102.409 120.766 102.102 120.586 101.955C120.405 101.809 120.252 101.878 120.243 102.111C120.234 102.343 120.373 102.65 120.554 102.797C120.734 102.943 120.887 102.874 120.896 102.641Z" fill="white"/>
<path fill-rule="evenodd" clip-rule="evenodd" d="M120.561 102.576C120.474 102.506 120.407 102.358 120.412 102.246C120.416 102.134 120.49 102.1 120.577 102.171C120.664 102.241 120.731 102.389 120.726 102.501C120.722 102.613 120.648 102.647 120.561 102.576ZM120.073 101.971C120.06 102.323 120.271 102.79 120.545 103.012C120.818 103.235 121.051 103.129 121.065 102.776C121.078 102.424 120.867 101.957 120.594 101.735C120.32 101.512 120.087 101.618 120.073 101.971Z" fill="black"/>
<path d="M122.011 108.748C121.967 109.91 121.2 110.257 120.299 109.525C119.397 108.792 118.703 107.257 118.747 106.095C118.792 104.934 119.558 104.586 120.46 105.319C121.361 106.051 122.056 107.587 122.011 108.748Z" fill="white"/>
<path fill-rule="evenodd" clip-rule="evenodd" d="M120.449 105.54C119.641 104.884 118.953 105.195 118.913 106.237C118.873 107.278 119.496 108.654 120.304 109.311C121.112 109.967 121.799 109.656 121.839 108.615C121.879 107.574 121.257 106.197 120.449 105.54ZM118.575 105.962C118.624 104.68 119.471 104.296 120.465 105.105C121.46 105.913 122.227 107.608 122.178 108.89C122.129 110.171 121.282 110.555 120.287 109.747C119.293 108.938 118.526 107.243 118.575 105.962Z" fill="black"/>
<path d="M120.867 107.826C120.854 108.174 120.624 108.279 120.353 108.059C120.083 107.839 119.874 107.378 119.887 107.03C119.901 106.681 120.131 106.577 120.401 106.797C120.672 107.016 120.88 107.477 120.867 107.826Z" fill="white"/>
<path fill-rule="evenodd" clip-rule="evenodd" d="M120.39 107.011C120.213 106.867 120.063 106.935 120.054 107.163C120.045 107.391 120.182 107.693 120.359 107.837C120.536 107.981 120.686 107.912 120.695 107.684C120.704 107.456 120.567 107.155 120.39 107.011ZM119.715 106.888C119.733 106.419 120.043 106.279 120.407 106.575C120.771 106.87 121.051 107.49 121.033 107.959C121.016 108.428 120.706 108.569 120.342 108.273C119.978 107.977 119.698 107.357 119.715 106.888Z" fill="black"/>
<path d="M138.443 112.525L131.037 116.233L124.066 112.525V100.966L131.254 97.4766L138.443 100.966V112.525Z" fill="#7A7A7A"/>
<path fill-rule="evenodd" clip-rule="evenodd" d="M131.251 97.2344L138.657 100.83V112.66L131.03 116.479L123.844 112.657V100.83L131.251 97.2344ZM124.28 101.329L130.815 104.805V115.871L124.28 112.395V101.329ZM131.251 115.88L138.221 112.391V101.319L131.251 104.809V115.88ZM131.036 104.429L137.946 100.969L131.251 97.7191L124.543 100.975L131.036 104.429Z" fill="black"/>
<path d="M128.525 106.659C128.498 107.356 128.038 107.565 127.497 107.125C126.956 106.686 126.539 105.764 126.565 105.067C126.592 104.37 127.052 104.161 127.593 104.601C128.134 105.041 128.551 105.962 128.525 106.659Z" fill="white"/>
<path fill-rule="evenodd" clip-rule="evenodd" d="M127.588 104.815C127.141 104.451 126.76 104.624 126.738 105.201C126.716 105.777 127.061 106.54 127.508 106.903C127.956 107.267 128.336 107.095 128.359 106.518C128.381 105.941 128.036 105.179 127.588 104.815ZM126.399 104.926C126.431 104.108 126.97 103.863 127.605 104.379C128.239 104.895 128.728 105.975 128.697 106.793C128.666 107.61 128.126 107.855 127.491 107.339C126.857 106.824 126.368 105.743 126.399 104.926Z" fill="black"/>
<path d="M127.873 106.126C127.882 105.893 127.743 105.586 127.562 105.44C127.382 105.293 127.229 105.363 127.22 105.595C127.211 105.827 127.35 106.134 127.53 106.281C127.71 106.428 127.864 106.358 127.873 106.126Z" fill="white"/>
<path fill-rule="evenodd" clip-rule="evenodd" d="M127.537 106.061C127.45 105.99 127.383 105.842 127.388 105.73C127.392 105.618 127.466 105.585 127.553 105.655C127.64 105.726 127.707 105.874 127.702 105.986C127.698 106.098 127.624 106.131 127.537 106.061ZM127.049 105.455C127.036 105.808 127.247 106.274 127.521 106.497C127.794 106.719 128.027 106.614 128.041 106.261C128.054 105.908 127.843 105.442 127.57 105.219C127.296 104.997 127.063 105.102 127.049 105.455Z" fill="black"/>
<path d="M128.988 112.233C128.943 113.394 128.177 113.742 127.275 113.009C126.374 112.276 125.679 110.741 125.724 109.58C125.768 108.418 126.535 108.07 127.436 108.803C128.338 109.536 129.032 111.071 128.988 112.233Z" fill="white"/>
<path fill-rule="evenodd" clip-rule="evenodd" d="M127.425 109.025C126.617 108.368 125.93 108.68 125.89 109.721C125.85 110.762 126.473 112.138 127.281 112.795C128.089 113.452 128.776 113.14 128.816 112.099C128.856 111.058 128.233 109.682 127.425 109.025ZM125.552 109.446C125.601 108.164 126.447 107.78 127.442 108.589C128.437 109.398 129.203 111.092 129.154 112.374C129.105 113.656 128.259 114.039 127.264 113.231C126.269 112.422 125.503 110.728 125.552 109.446Z" fill="black"/>
<path d="M127.844 111.31C127.83 111.659 127.6 111.763 127.33 111.543C127.059 111.323 126.851 110.862 126.864 110.514C126.877 110.165 127.107 110.061 127.378 110.281C127.648 110.501 127.857 110.962 127.844 111.31Z" fill="white"/>
<path fill-rule="evenodd" clip-rule="evenodd" d="M127.367 110.495C127.19 110.351 127.039 110.419 127.03 110.648C127.022 110.876 127.158 111.177 127.335 111.321C127.512 111.465 127.663 111.397 127.672 111.169C127.68 110.941 127.544 110.639 127.367 110.495ZM126.692 110.373C126.71 109.904 127.02 109.763 127.384 110.059C127.748 110.355 128.028 110.975 128.01 111.444C127.992 111.913 127.682 112.053 127.319 111.757C126.955 111.461 126.674 110.842 126.692 110.373Z" fill="black"/>
<path d="M72.8692 158.117L94.2169 168.804L96.3952 167.705L120.575 155.507L122.317 154.628V134.781L111.644 129.437L100.97 124.094L72.8692 138.706V158.117Z" fill="white"/>
<path fill-rule="evenodd" clip-rule="evenodd" d="M100.966 123.844L72.6494 138.569V158.247L94.2153 169.043L122.533 154.757V134.641L100.966 123.844ZM100.97 124.333L121.833 134.778L94.2128 148.926L73.3508 138.696L100.97 124.333ZM73.0851 139.051L93.997 149.306V168.446L73.0851 157.977V139.051ZM94.4327 168.445V149.303L122.098 135.132V154.488L94.4327 168.445Z" fill="black"/>
<path fill-rule="evenodd" clip-rule="evenodd" d="M107.505 142.507L90.7739 134.025L91.5611 132.469L109.248 141.435V145.679H107.505V142.507Z" fill="#F0512D"/>
<path d="M72.8692 139.367L94.2169 150.054L96.3952 148.955L120.575 136.757L122.317 135.878V116.031L111.644 110.687L100.97 105.344L72.8692 119.956V139.367Z" fill="#E7C89E"/>
<path fill-rule="evenodd" clip-rule="evenodd" d="M100.966 105.094L72.6494 119.819V139.497L94.2153 150.293L122.533 136.007V115.891L100.966 105.094ZM100.97 105.583L121.833 116.028L94.2128 130.176L73.3508 119.946L100.97 105.583ZM73.0851 120.301L93.997 130.556V149.696L73.0851 139.227V120.301ZM94.4327 149.695V130.553L122.098 116.382V135.738L94.4327 149.695Z" fill="black"/>
<path fill-rule="evenodd" clip-rule="evenodd" d="M107.501 123.769L86.4268 113.539L87.187 111.969L109.244 122.676V126.93H107.501V123.769Z" fill="#F0512D"/>
<path d="M44.9908 172.508L66.3385 183.195L68.5168 182.096L92.6963 169.898L94.439 169.018V149.171L83.7651 143.828L73.0913 138.484L44.9908 153.097V172.508Z" fill="#E7C89E"/>
<path fill-rule="evenodd" clip-rule="evenodd" d="M73.0874 138.242L44.771 152.967V172.645L66.3368 183.441L94.6548 169.155V149.039L73.0874 138.242ZM73.0912 138.732L93.9543 149.176L66.3343 163.325L45.4724 153.094L73.0912 138.732ZM45.2066 153.449L66.1186 163.704V182.845L45.2066 172.376V153.449ZM66.5543 182.843V163.702L94.2191 149.53V168.887L66.5543 182.843Z" fill="black"/>
<path fill-rule="evenodd" clip-rule="evenodd" d="M79.6266 156.913L62.8955 148.432L63.6827 146.875L81.3693 155.841V160.085H79.6266V156.913Z" fill="#F0512D"/>
<path d="M44.9903 153.758L66.338 164.445L68.5163 163.346L92.6958 151.148L94.4385 150.268V130.421L83.7646 125.078L73.0908 119.734L44.9903 134.347V153.758Z" fill="#E7C89E"/>
<path fill-rule="evenodd" clip-rule="evenodd" d="M73.0874 119.484L44.771 134.209V153.888L66.3368 164.684L94.6548 150.397V130.281L73.0874 119.484ZM73.0912 119.974L93.9543 130.418L66.3343 144.567L45.4724 134.336L73.0912 119.974ZM45.2066 134.692L66.1186 144.947V164.087L45.2066 153.618V134.692ZM66.5543 164.086V144.944L94.2191 130.773V150.129L66.5543 164.086Z" fill="black"/>
<path fill-rule="evenodd" clip-rule="evenodd" d="M79.6243 138.145L59.1812 127.485L59.9861 125.938L81.367 137.087V141.324H79.6243V138.145Z" fill="#F0512D"/>
<path d="M84.6355 131.945L69.8228 139.361L55.4458 131.945V120.822L63.1789 117.224L70.912 113.625L84.6355 120.822V131.945Z" fill="#E7C89E"/>
<path fill-rule="evenodd" clip-rule="evenodd" d="M70.9197 113.383L84.8553 120.691V132.081L69.8233 139.606L55.23 132.079V120.684L70.9197 113.383ZM70.9082 113.869L55.943 120.833L69.8263 127.994L84.1594 120.819L70.9082 113.869ZM84.4196 121.176L70.0426 128.373V139.009L84.4196 131.812V121.176ZM69.607 139.004V128.372L55.6656 121.181V131.813L69.607 139.004Z" fill="black"/>
<path fill-rule="evenodd" clip-rule="evenodd" d="M63.2886 125.279L77.4155 117.89L76.6086 116.344L61.5459 124.222V128.458H63.2886V125.279Z" fill="#F0512D"/>
<path d="M112.948 117.547L98.1353 124.962L83.7583 117.547V106.424L91.4914 102.825L99.2245 99.2266L112.948 106.424V117.547Z" fill="#E7C89E"/>
<path fill-rule="evenodd" clip-rule="evenodd" d="M99.2322 98.9844L113.168 106.293V117.683L98.1358 125.208L83.5425 117.681V106.286L99.2322 98.9844ZM99.2207 99.4708L84.2555 106.435L98.1388 113.596L112.472 106.42L99.2207 99.4708ZM112.732 106.778L98.3551 113.975V124.61L112.732 117.413V106.778ZM97.9195 124.606V113.973L83.9781 106.783V117.415L97.9195 124.606Z" fill="black"/>
<path fill-rule="evenodd" clip-rule="evenodd" d="M91.6011 110.881L105.728 103.492L104.921 101.945L89.8584 109.824V114.06H91.6011V110.881Z" fill="#F0512D"/>
<path d="M175.464 156.805L154.116 167.492L151.938 166.393L127.758 154.194L126.016 153.315V133.468L136.689 128.125L147.363 122.781L175.464 137.394V156.805Z" fill="#E7C89E"/>
<path fill-rule="evenodd" clip-rule="evenodd" d="M147.367 122.531L175.684 137.256V156.934L154.118 167.731L125.8 153.444V133.328L147.367 122.531ZM147.363 123.021L126.5 133.465L154.12 147.614L174.982 137.383L147.363 123.021ZM175.248 137.738L154.336 147.994V167.134L175.248 156.665V137.738ZM153.9 167.132V147.991L126.235 133.819V153.176L153.9 167.132Z" fill="black"/>
<path fill-rule="evenodd" clip-rule="evenodd" d="M140.827 141.205L156.456 133.592L155.694 132.023L139.084 140.114V144.367H140.827V141.205Z" fill="#F0512D"/>
<path d="M203.347 171.195L181.999 181.882L179.821 180.783L155.641 168.585L153.898 167.706V147.859L164.572 142.515L175.246 137.172L203.347 151.785V171.195Z" fill="#E7C89E"/>
<path fill-rule="evenodd" clip-rule="evenodd" d="M175.25 136.93L203.566 151.655V171.333L182.001 182.129L153.683 167.843V147.727L175.25 136.93ZM175.246 137.419L154.383 147.864L182.003 162.012L202.865 151.781L175.246 137.419ZM203.131 152.137L182.219 162.392V181.532L203.131 171.063V152.137ZM181.783 181.531V162.389L154.118 148.218V167.574L181.783 181.531Z" fill="black"/>
<path fill-rule="evenodd" clip-rule="evenodd" d="M168.711 155.593L185.442 147.111L184.655 145.555L166.968 154.521V158.765H168.711V155.593Z" fill="#F0512D"/>
<path d="M151.287 112.312L207.488 140.447V141.756L179.606 155.714L123.405 127.798V126.271L151.287 112.312Z" fill="#837477"/>
<path fill-rule="evenodd" clip-rule="evenodd" d="M151.291 112.07L207.71 140.314V168.584H207.275V142.111L179.828 155.851V182.542H179.392V155.851L123.627 128.151V154.844H123.191V126.138L151.291 112.07ZM123.627 127.664L179.392 155.364V154.325L123.627 126.624V127.664ZM123.897 126.272L179.61 153.946L207.002 140.447L151.291 112.558L123.897 126.272ZM207.275 140.799L179.828 154.325V155.363L207.275 141.623V140.799Z" fill="black"/>
<path d="M139.089 110.346V124.958L143.487 127.185L160.219 135.654L174.813 128.23V113.617L153.466 103.148L139.089 110.346Z" fill="#ADAEB3"/>
<path d="M159.5 122.5L144.5 115V126L159.5 133.471V122.5Z" fill="#BDBCBC"/>
<path fill-rule="evenodd" clip-rule="evenodd" d="M153.463 102.906L138.869 110.212V125.094L160.217 135.899L175.03 128.365V113.482L153.463 102.906ZM174.594 113.969V128.097L160.435 135.299V120.96L174.594 113.969ZM159.999 120.96V135.3L143.704 127.052V112.879L159.999 120.96ZM143.268 112.663V126.831L139.305 124.825V110.698L143.268 112.663ZM139.576 110.346L160.217 120.581L174.318 113.619L153.465 103.393L139.576 110.346ZM139.523 111.957V114.626L143.008 116.37V113.702L139.523 111.957ZM142.573 113.971V115.665L139.959 114.356V112.663L142.573 113.971ZM144.097 114.576V125.966L159.564 133.821V122.207L144.097 114.576ZM159.128 122.478V133.11L144.533 125.698V115.278L159.128 122.478Z" fill="black"/>
<path d="M140.175 122.28C140.175 123.124 140.565 124.085 141.046 124.085C141.528 124.085 141.918 123.679 141.918 122.836C141.918 121.992 141.528 121.031 141.046 121.031C140.565 121.031 140.175 121.437 140.175 122.28Z" fill="white"/>
<path fill-rule="evenodd" clip-rule="evenodd" d="M141.468 121.715C141.612 122.031 141.704 122.451 141.704 122.843C141.704 123.233 141.613 123.494 141.493 123.651C141.377 123.803 141.224 123.874 141.05 123.874C141.007 123.874 140.944 123.852 140.864 123.773C140.785 123.695 140.704 123.573 140.632 123.415C140.488 123.1 140.397 122.68 140.397 122.288C140.397 121.897 140.487 121.636 140.607 121.479C140.723 121.327 140.877 121.257 141.05 121.257C141.094 121.257 141.157 121.278 141.236 121.357C141.316 121.436 141.396 121.557 141.468 121.715ZM141.543 121.047C141.414 120.919 141.247 120.82 141.05 120.82C140.743 120.82 140.46 120.953 140.261 121.214C140.065 121.471 139.961 121.835 139.961 122.288C139.961 122.739 140.065 123.221 140.236 123.596C140.322 123.784 140.429 123.956 140.558 124.083C140.687 124.211 140.853 124.31 141.05 124.31C141.358 124.31 141.64 124.178 141.84 123.916C142.035 123.659 142.14 123.295 142.14 122.843C142.14 122.392 142.036 121.909 141.865 121.534C141.779 121.346 141.672 121.175 141.543 121.047Z" fill="black"/>
<path d="M187.011 138.913C187.011 140.599 184.67 141.966 181.783 141.966C178.895 141.966 176.555 140.599 176.555 138.913C176.555 137.226 178.895 135.859 181.783 135.859C184.67 135.859 187.011 137.226 187.011 138.913Z" fill="white"/>
<path fill-rule="evenodd" clip-rule="evenodd" d="M178.197 136.941C177.285 137.474 176.774 138.179 176.774 138.912C176.774 139.646 177.285 140.35 178.197 140.883C179.104 141.413 180.372 141.747 181.784 141.747C183.196 141.747 184.464 141.413 185.371 140.883C186.284 140.35 186.794 139.646 186.794 138.912C186.794 138.179 186.284 137.474 185.371 136.941C184.464 136.412 183.196 136.077 181.784 136.077C180.372 136.077 179.104 136.412 178.197 136.941ZM177.978 136.565C178.963 135.989 180.309 135.641 181.784 135.641C183.26 135.641 184.606 135.989 185.591 136.565C186.57 137.137 187.23 137.959 187.23 138.912C187.23 139.865 186.57 140.687 185.591 141.26C184.606 141.835 183.26 142.184 181.784 142.184C180.309 142.184 178.963 141.835 177.978 141.26C176.998 140.687 176.338 139.865 176.338 138.912C176.338 137.959 176.998 137.137 177.978 136.565Z" fill="black"/>
<path d="M181.349 134.117H182.221V138.915H181.349V134.117Z" fill="white"/>
<path fill-rule="evenodd" clip-rule="evenodd" d="M181.569 134.117V138.915H181.133V134.117H181.569ZM182.004 138.915V134.117H182.44V138.915H182.004Z" fill="black"/>
<path d="M181.782 121.469C179.857 121.469 178.297 122.445 178.297 123.65L176.554 132.374C176.554 134.06 178.895 135.427 181.782 135.427C184.67 135.427 187.01 134.06 187.01 132.374L185.268 123.65C185.268 122.445 183.707 121.469 181.782 121.469Z" fill="#F8DD4D"/>
<path fill-rule="evenodd" clip-rule="evenodd" d="M179.435 122.292C178.841 122.664 178.517 123.149 178.517 123.649V123.671L176.774 132.394C176.784 133.12 177.293 133.816 178.197 134.344C179.104 134.874 180.372 135.208 181.784 135.208C183.196 135.208 184.464 134.874 185.371 134.344C186.275 133.816 186.785 133.12 186.794 132.394L185.052 123.671V123.649C185.052 123.149 184.727 122.664 184.133 122.292C183.542 121.922 182.712 121.686 181.784 121.686C180.856 121.686 180.026 121.922 179.435 122.292ZM179.204 121.922C179.875 121.502 180.787 121.25 181.784 121.25C182.781 121.25 183.694 121.502 184.364 121.922C185.025 122.335 185.478 122.932 185.487 123.627L187.23 132.351V132.373C187.23 133.326 186.57 134.148 185.591 134.721C184.606 135.296 183.26 135.645 181.784 135.645C180.309 135.645 178.963 135.296 177.978 134.721C176.998 134.148 176.338 133.326 176.338 132.373V132.351L178.081 123.627C178.091 122.932 178.544 122.335 179.204 121.922Z" fill="black"/>
<path fill-rule="evenodd" clip-rule="evenodd" d="M179.435 122.292C178.841 122.664 178.517 123.149 178.517 123.649C178.517 124.149 178.841 124.635 179.435 125.006C180.026 125.376 180.856 125.612 181.784 125.612C182.712 125.612 183.542 125.376 184.133 125.006C184.727 124.635 185.052 124.149 185.052 123.649C185.052 123.149 184.727 122.664 184.133 122.292C183.542 121.922 182.712 121.686 181.784 121.686C180.856 121.686 180.026 121.922 179.435 122.292ZM179.204 121.922C179.875 121.502 180.787 121.25 181.784 121.25C182.781 121.25 183.694 121.502 184.364 121.922C185.025 122.335 185.478 122.932 185.487 123.627L187.23 132.351V132.373C187.23 133.326 186.57 134.148 185.591 134.721C184.606 135.296 183.26 135.645 181.784 135.645C180.309 135.645 178.963 135.296 177.978 134.721C176.998 134.148 176.338 133.326 176.338 132.373V132.351L178.081 123.627C178.091 122.932 178.544 122.335 179.204 121.922ZM178.342 124.543L176.774 132.394C176.784 133.12 177.293 133.816 178.197 134.344C179.104 134.874 180.372 135.208 181.784 135.208C183.196 135.208 184.464 134.874 185.371 134.344C186.275 133.816 186.785 133.12 186.794 132.394L185.226 124.543C185.027 124.867 184.727 125.149 184.364 125.376C183.694 125.796 182.781 126.048 181.784 126.048C180.787 126.048 179.875 125.796 179.204 125.376C178.841 125.149 178.541 124.867 178.342 124.543Z" fill="black"/>
<path fill-rule="evenodd" clip-rule="evenodd" d="M181.788 123.866C180.969 123.866 180.263 124.622 180.263 125.611H179.827C179.827 124.431 180.682 123.43 181.788 123.43C182.894 123.43 183.749 124.431 183.749 125.611H183.313C183.313 124.622 182.607 123.866 181.788 123.866Z" fill="black"/>
<path d="M81.9241 177.035L84.2022 178.171L86.3806 177.072L110.56 164.874L111.823 164.236C112.117 164.088 112.303 163.787 112.303 163.457V144.147L109.214 142.607C108.965 142.483 108.671 142.485 108.424 142.614L81.8912 156.411C81.1697 156.787 80.7169 157.533 80.7169 158.347V175.083C80.7169 175.91 81.1844 176.666 81.9241 177.035Z" fill="#37AFB7"/>
<path fill-rule="evenodd" clip-rule="evenodd" d="M109.309 142.411C108.998 142.256 108.631 142.259 108.322 142.42L81.7888 156.217C80.9951 156.63 80.4971 157.451 80.4971 158.346V175.082C80.4971 175.992 81.0113 176.824 81.825 177.229L84.2008 178.414L111.919 164.43C112.287 164.245 112.519 163.868 112.519 163.456V144.012L109.309 142.411ZM108.522 142.807C108.708 142.71 108.928 142.708 109.115 142.802L111.817 144.149L84.1918 158.301L81.3787 157.1C81.544 156.898 81.7504 156.729 81.9896 156.604L108.522 142.807ZM81.1382 157.471L83.9824 158.685V177.818L82.0192 176.839C81.3535 176.507 80.9327 175.827 80.9327 175.082V158.346C80.9327 158.037 81.0054 157.738 81.1382 157.471ZM84.4181 177.816V158.675L112.083 144.503V163.456C112.083 163.704 111.944 163.93 111.723 164.041L84.4181 177.816Z" fill="black"/>
<path fill-rule="evenodd" clip-rule="evenodd" d="M118.182 193.445H116.439V196.935C116.439 197.417 116.83 197.807 117.311 197.807C117.792 197.807 118.182 197.417 118.182 196.935V193.445Z" fill="white"/>
<path fill-rule="evenodd" clip-rule="evenodd" d="M116.223 193.227H118.402V196.934C118.402 197.537 117.914 198.025 117.312 198.025C116.711 198.025 116.223 197.537 116.223 196.934V193.227ZM116.659 193.663V196.934C116.659 197.296 116.952 197.589 117.312 197.589C117.673 197.589 117.966 197.296 117.966 196.934V193.663H116.659Z" fill="black"/>
<path fill-rule="evenodd" clip-rule="evenodd" d="M85.0686 177.305H83.3257V180.794C83.3257 181.276 83.7159 181.667 84.1972 181.667C84.6785 181.667 85.0686 181.276 85.0686 180.794V177.305Z" fill="white"/>
<path fill-rule="evenodd" clip-rule="evenodd" d="M83.1099 177.086H85.2886V180.794C85.2886 181.396 84.8008 181.884 84.1992 181.884C83.5976 181.884 83.1099 181.396 83.1099 180.794V177.086ZM83.5456 177.522V180.794C83.5456 181.155 83.8382 181.448 84.1992 181.448C84.5602 181.448 84.8528 181.155 84.8528 180.794V177.522H83.5456Z" fill="black"/>
<path d="M83.1099 177.159V174.359C83.1099 172.442 84.2499 170.709 86.0091 169.951L104.893 161.821V141.765C104.893 140.149 105.785 138.666 107.211 137.91L110.33 136.257C111.567 135.601 113.043 135.581 114.298 136.201L145.161 151.461C146.647 152.196 147.589 153.712 147.589 155.372V161.603V174.035V181.832C147.589 181.999 147.494 182.151 147.344 182.224L120.11 195.555C118.894 196.15 117.47 196.146 116.258 195.542L84.8025 179.893C83.7656 179.377 83.1099 178.318 83.1099 177.159Z" fill="#37AFB7"/>
<path fill-rule="evenodd" clip-rule="evenodd" d="M114.203 136.396C113.011 135.806 111.608 135.826 110.434 136.449L107.315 138.102C105.96 138.82 105.113 140.229 105.113 141.764V161.685L138.442 178.202L147.372 173.897V155.371C147.372 154.458 147.072 153.59 146.545 152.886L142.282 155.305C140.985 156.04 140.184 157.418 140.184 158.91V165.746H139.748V158.91C139.748 157.26 140.634 155.738 142.067 154.925L146.261 152.546C145.925 152.185 145.523 151.881 145.066 151.656L114.203 136.396ZM147.372 174.381L120.744 187.218C119.311 187.909 118.4 189.36 118.4 190.952V195.774C118.955 195.747 119.505 195.609 120.016 195.358L147.25 182.027C147.325 181.991 147.372 181.915 147.372 181.832V174.381ZM117.965 195.773V190.952C117.965 189.192 118.971 187.588 120.555 186.825L137.945 178.442L104.888 162.061L86.0967 170.151C84.4174 170.874 83.3292 172.528 83.3292 174.359V177.158C83.3292 178.235 83.9381 179.218 84.9009 179.697L116.356 195.346C116.865 195.599 117.412 195.741 117.965 195.773ZM104.677 161.677V141.764C104.677 140.068 105.614 138.51 107.111 137.717L110.23 136.064C111.528 135.375 113.078 135.353 114.396 136.005L145.259 151.264C146.82 152.036 147.808 153.628 147.808 155.371V181.832C147.808 182.081 147.666 182.31 147.441 182.419L120.207 195.75C118.93 196.375 117.436 196.37 116.163 195.737L84.7071 180.088C83.5961 179.535 82.8936 178.4 82.8936 177.158V174.359C82.8936 172.354 84.0854 170.542 85.9246 169.75L104.677 161.677Z" fill="black"/>
<path d="M120.696 196.227L121.997 196.876C122.612 197.182 123.335 197.181 123.949 196.871L125.153 196.264L149.332 184.066L149.877 183.791C150.611 183.42 151.075 182.667 151.075 181.843V163.339L148.581 162.096C147.958 161.785 147.224 161.791 146.606 162.113L119.489 176.214V194.275C119.489 195.102 119.956 195.858 120.696 196.227Z" fill="#37AFB7"/>
<path fill-rule="evenodd" clip-rule="evenodd" d="M148.675 161.9C147.989 161.558 147.182 161.565 146.502 161.918L119.268 176.081V194.274C119.268 195.184 119.782 196.016 120.595 196.421L121.897 197.07C122.573 197.408 123.369 197.406 124.043 197.065L149.971 183.985C150.779 183.577 151.289 182.749 151.289 181.843V163.204L148.675 161.9ZM146.703 162.306C147.259 162.016 147.92 162.011 148.481 162.291L150.588 163.341L123.789 177.069C123.266 177.337 122.651 177.356 122.113 177.121L119.991 176.196L146.703 162.306ZM119.703 176.546L121.939 177.521C122.597 177.808 123.349 177.785 123.987 177.458L150.853 163.695V181.843C150.853 182.584 150.436 183.262 149.775 183.595L123.847 196.676C123.295 196.954 122.644 196.956 122.091 196.68L120.79 196.031C120.124 195.699 119.703 195.019 119.703 194.274V176.546Z" fill="black"/>
<path d="M130.6 201.299L131.69 201.953L173.949 180.58V147.646L172.86 146.992L130.6 168.802V201.299Z" fill="#333333"/>
<path d="M174 147.5L131.5 169.306V202L174 180.5V147.5Z" fill="#7A7A7A"/>
<path fill-rule="evenodd" clip-rule="evenodd" d="M172.866 146.742L130.381 168.669V201.422L131.679 202.202L174.165 180.713V147.523L172.866 146.742ZM172.85 147.241L173.498 147.631L131.47 169.104V201.568L130.816 201.175V168.935L172.85 147.241ZM131.905 201.598V169.371L173.729 148.002V180.445L131.905 201.598Z" fill="black"/>
<path fill-rule="evenodd" clip-rule="evenodd" d="M163.057 189.559C163.02 189.538 162.978 189.528 162.936 189.53L155.659 189.959L155.633 189.523L162.91 189.095C163.037 189.087 163.163 189.117 163.273 189.18L163.578 189.354C164.119 189.664 163.961 190.484 163.344 190.57L153.927 191.891C153.86 191.9 153.802 191.939 153.768 191.998L150.812 197.128C150.639 197.428 150.263 197.541 149.954 197.386L149.41 197.114C149.083 196.95 148.954 196.55 149.123 196.226L151.532 191.603L151.918 191.805L149.509 196.428C149.453 196.536 149.496 196.669 149.605 196.724L150.149 196.996C150.252 197.047 150.377 197.01 150.435 196.91L153.391 191.78C153.491 191.605 153.667 191.487 153.866 191.459L163.284 190.138C163.49 190.11 163.542 189.836 163.362 189.733L163.057 189.559Z" fill="black"/>
</svg>
