<svg width="232" height="216" viewBox="0 0 232 216" fill="none" xmlns="http://www.w3.org/2000/svg">
<rect width="232" height="216" rx="16" fill="white"/>
<path d="M20.792 22C23.032 22 24.968 23.504 24.968 26.08C24.968 28.656 23.032 30.16 20.792 30.16C18.872 30.16 18.072 28.976 18.072 28.976H17.992V33.2H16.2V22.16H17.992V23.184H18.072C18.072 23.184 18.872 22 20.792 22ZM23.112 26.08C23.112 24.64 22.088 23.632 20.552 23.632C19.016 23.632 17.992 24.64 17.992 26.08C17.992 27.52 19.016 28.528 20.552 28.528C22.088 28.528 23.112 27.52 23.112 26.08ZM35.5078 26.72H28.6438C28.6438 26.72 28.8998 28.608 31.1398 28.608C32.5798 28.608 33.1238 27.76 33.1238 27.76H35.2358C35.2358 27.76 34.4838 30.16 31.1398 30.16C28.5958 30.16 26.7238 28.656 26.7238 26.08C26.7238 23.504 28.5958 22 31.1398 22C33.6838 22 35.5558 23.504 35.5558 26.08C35.5558 26.448 35.5078 26.72 35.5078 26.72ZM31.1398 23.552C28.9318 23.552 28.6598 25.312 28.6598 25.312H33.5878C33.5878 25.312 33.4118 23.552 31.1398 23.552ZM42.3735 22C42.8535 22 43.2535 22.096 43.2535 22.096V24.08C43.2535 24.08 42.7735 23.888 41.9735 23.888C40.3255 23.888 39.4295 25.024 39.4295 26.448V30H37.6375V22.16H39.4295V23.664H39.5415C39.5415 23.664 40.1975 22 42.3735 22ZM47.3413 23.04V20.928L49.9173 18.8H51.6613V30H49.6773V21.2L47.3413 23.04ZM58.6956 23.696H56.3916V30H54.5996V23.696H53.2556V22.688L54.5996 22.16V21.776C54.5996 19.632 55.8956 18.64 57.9916 18.64C59.0156 18.64 59.7036 19.072 59.7036 19.072V20.704C59.7036 20.704 59.2236 20.272 58.2956 20.272C57.1756 20.272 56.3916 20.752 56.3916 21.952V22.16H58.6956V23.696ZM60.9148 27.072V23.696H59.6188V22.56L61.5388 20.4H62.7068V22.16H65.4428V23.696H62.7068V26.832C62.7068 28.176 63.4908 28.528 64.4028 28.528C65.2188 28.528 65.6828 28.192 65.6828 28.192V29.856C65.6828 29.856 65.0908 30.16 64.1628 30.16C62.1468 30.16 60.9148 29.216 60.9148 27.072ZM66.73 23.28V22.272C66.73 19.504 70.634 20.624 70.634 19.072C70.634 18.64 70.314 18.32 69.562 18.32C68.778 18.32 68.474 18.72 68.474 19.168V19.312H66.938V19.168C66.938 17.856 67.85 17.04 69.562 17.04C71.274 17.04 72.17 17.872 72.17 18.992C72.17 21.584 68.282 21.024 68.282 22H72.122V23.28H66.73Z" fill="black"/>
<g clip-path="url(#clip0_6414_32900)">
<path opacity="0.5" d="M105.268 209.349L15.2109 164.214V102.047L105.481 57.125L195.325 102.047V164.214L105.268 209.349Z" fill="#B5B2B2"/>
<path d="M195 102L105.5 147V209.5L195 164.5V102Z" fill="#EDEBEB"/>
<path opacity="0.5" fill-rule="evenodd" clip-rule="evenodd" d="M105.483 56.8828L195.539 101.911V164.341L105.27 209.583L15 164.341V101.911L105.483 56.8828ZM15.4258 102.386L105.269 147.096L105.058 209L15.4258 164.078V102.386ZM105.484 208.999L195.114 164.078V102.387L105.695 147.096L105.484 208.999ZM105.482 146.727L194.85 102.043L105.482 57.3586L15.6908 102.043L105.482 146.727Z" fill="#1B1B1E"/>
<path d="M112.297 198.909V197.206V150.368L113.148 149.942L116.555 148.239L119.11 146.961V195.503L112.297 198.909Z" fill="#BEDDF9"/>
<path d="M119 195.5L112.163 199.146V197.146L117 194.5L116.5 148.5L119 147V195.5Z" fill="#7A7A7A"/>
<path fill-rule="evenodd" clip-rule="evenodd" d="M119.325 146.617V195.634L112.086 199.254V150.236L119.325 146.617ZM116.771 148.37L117.197 194.777L112.512 197.332V198.565L118.899 195.371V147.306L116.771 148.37ZM112.512 196.847L116.769 194.525L116.347 148.582L112.512 150.5V196.847Z" fill="#1B1B1E"/>
<path d="M98.242 198.909V197.206V150.368L97.3904 149.942L93.984 148.239L91.4292 146.961V195.503L98.242 198.909Z" fill="#BEDDF9"/>
<path d="M91.5 147V195.5L98.5 199L98 197L93.5 194.5L94 148L91.5 147Z" fill="#7A7A7A"/>
<path fill-rule="evenodd" clip-rule="evenodd" d="M91.2183 146.617V195.634L98.4569 199.254V150.236L91.2183 146.617ZM93.7719 148.37L93.3462 194.777L98.0311 197.332V198.565L91.6441 195.371V147.306L93.7719 148.37ZM98.0311 196.847L93.7743 194.525L94.1958 148.582L98.0311 150.5V196.847Z" fill="#1B1B1E"/>
<path d="M84.1912 191.674V189.971V143.133L83.3396 142.707L79.9332 141.004L77.3784 139.727V188.267L84.1912 191.674Z" fill="#BEDDF9"/>
<path d="M77.5 140V188.5L84 191.5V190L79.5 187.5L80 141L77.5 140Z" fill="#7A7A7A"/>
<path fill-rule="evenodd" clip-rule="evenodd" d="M77.1675 139.383V188.4L84.4061 192.019V143.002L77.1675 139.383ZM79.7211 141.136L79.2954 187.543L83.9803 190.098V191.33L77.5933 188.137V140.072L79.7211 141.136ZM83.9803 189.613L79.7235 187.291L80.145 141.348L83.9803 143.265V189.613Z" fill="#1B1B1E"/>
<path d="M70.1404 184.432V182.729V135.891L69.2888 135.465L65.8824 133.762L63.3276 132.484V181.026L70.1404 184.432Z" fill="#BEDDF9"/>
<path d="M63.5 132.5V181L70 184.5V182.5L65.5 180L66 134L63.5 132.5Z" fill="#7A7A7A"/>
<path fill-rule="evenodd" clip-rule="evenodd" d="M63.1167 132.141V181.158L70.3553 184.778V135.76L63.1167 132.141ZM65.6703 133.893L65.2445 180.301L69.9295 182.856V184.089L63.5425 180.895V132.83L65.6703 133.893ZM69.9295 182.371L65.6726 180.049L66.0941 134.105L69.9295 136.023V182.371Z" fill="#1B1B1E"/>
<path d="M56.0897 177.198V175.494V128.656L55.2381 128.231L51.8317 126.527L49.2769 125.25V173.791L56.0897 177.198Z" fill="#BEDDF9"/>
<path d="M49 125V173.5L56 177V175L51.5 173L52 126.5L49 125Z" fill="#7A7A7A"/>
<path fill-rule="evenodd" clip-rule="evenodd" d="M49.062 124.906V173.924L56.3006 177.543V128.526L49.062 124.906ZM51.6156 126.659L51.1898 173.066L55.8748 175.622V176.854L49.4878 173.66V125.595L51.6156 126.659ZM55.8748 175.137L51.6179 172.815L52.0394 126.871L55.8748 128.789V175.137Z" fill="#1B1B1E"/>
<path d="M42.0351 169.955V168.252V121.414L41.1835 120.988L37.7771 119.285L35.2222 118.008V166.549L42.0351 169.955Z" fill="#BEDDF9"/>
<path d="M35 118V166.5L42 170V168L37.5 166L38 119.5L35 118Z" fill="#7A7A7A"/>
<path fill-rule="evenodd" clip-rule="evenodd" d="M35.0151 117.664V166.682L42.2537 170.301V121.283L35.0151 117.664ZM37.5687 119.417L37.1429 165.824L41.8279 168.38V169.612L35.4409 166.419V118.353L37.5687 119.417ZM41.8279 167.895L37.5711 165.573L37.9926 119.629L41.8279 121.547V167.895Z" fill="#1B1B1E"/>
<path d="M27.9881 162.721V161.018V114.18L27.1365 113.754L23.7301 112.051L21.1753 110.773V159.315L27.9881 162.721Z" fill="#BEDDF9"/>
<path d="M21 110.5V159.5L28 162.5V161L23.5 158.5V112L21 110.5Z" fill="#7A7A7A"/>
<path fill-rule="evenodd" clip-rule="evenodd" d="M20.9604 110.43V159.447L28.199 163.066V114.049L20.9604 110.43ZM23.514 112.183L23.0883 158.589L27.7732 161.145V162.377L21.3862 159.183V111.119L23.514 112.183ZM27.7732 160.66L23.5164 158.338L23.9379 112.394L27.7732 114.312V160.66Z" fill="#1B1B1E"/>
<path d="M125.922 192.097V190.393V143.555L126.773 143.129L130.18 141.426L132.735 140.148V188.69L125.922 192.097Z" fill="#BEDDF9"/>
<path d="M132.5 188.5L126 192.045V190.045L130.5 188L130 141.5L132.5 140V188.5Z" fill="#7A7A7A"/>
<path fill-rule="evenodd" clip-rule="evenodd" d="M132.95 139.805V188.822L125.711 192.441V143.424L132.95 139.805ZM130.396 141.558L130.822 187.964L126.137 190.52V191.752L132.524 188.559V140.494L130.396 141.558ZM126.137 190.035L130.394 187.713L129.972 141.769L126.137 143.687V190.035Z" fill="#1B1B1E"/>
<path d="M139.547 185.284V183.58V136.742L140.398 136.317L143.805 134.613L146.36 133.336V181.877L139.547 185.284Z" fill="#BEDDF9"/>
<path d="M146.5 181.767L139.5 185.5V183.5L144.26 181.12L143.76 134.62L146.5 133V181.767Z" fill="#7A7A7A"/>
<path fill-rule="evenodd" clip-rule="evenodd" d="M146.571 132.992V182.01L139.332 185.629V136.611L146.571 132.992ZM144.017 134.745L144.443 181.153L139.758 183.708V184.94L146.145 181.747V133.681L144.017 134.745ZM139.758 183.223L144.015 180.901L143.593 134.957L139.758 136.875V183.223Z" fill="#1B1B1E"/>
<path d="M153.176 178.471V176.768V129.93L154.027 129.504L157.434 127.801L159.989 126.523V175.065L153.176 178.471Z" fill="#BEDDF9"/>
<path d="M160 174.766L153 178.499V176.499L157.76 174.119L157.26 127.619L160 126.5V174.766Z" fill="#7A7A7A"/>
<path fill-rule="evenodd" clip-rule="evenodd" d="M160.196 126.18V175.197L152.957 178.817V129.799L160.196 126.18ZM157.642 127.933L158.068 174.34L153.383 176.895V178.128L159.77 174.934V126.869L157.642 127.933ZM153.383 176.41L157.64 174.089L157.218 128.144L153.383 130.062V176.41Z" fill="#1B1B1E"/>
<path d="M166.797 171.659V169.956V123.117L167.648 122.692L171.055 120.988L173.61 119.711V168.253L166.797 171.659Z" fill="#BEDDF9"/>
<path d="M173.5 168L167 171.5V169.5L171.5 167.5L171 121L173.5 120V168Z" fill="#7A7A7A"/>
<path fill-rule="evenodd" clip-rule="evenodd" d="M173.825 119.367V168.384L166.586 172.003V122.986L173.825 119.367ZM171.271 121.12L171.697 167.527L167.012 170.082V171.314L173.399 168.121V120.056L171.271 121.12ZM167.012 169.597L171.269 167.275L170.847 121.332L167.012 123.25V169.597Z" fill="#1B1B1E"/>
<path d="M180.422 164.847V163.143V116.305L181.273 115.879L184.68 114.176L187.235 112.898V161.44L180.422 164.847Z" fill="#BEDDF9"/>
<path d="M187 161.5L180.5 165V163L185 160.5L184.5 114L187.5 113L187 161.5Z" fill="#7A7A7A"/>
<path fill-rule="evenodd" clip-rule="evenodd" d="M187.45 112.555V161.572L180.211 165.191V116.174L187.45 112.555ZM184.896 114.307L185.322 160.715L180.637 163.27V164.502L187.024 161.309V113.244L184.896 114.307ZM180.637 162.785L184.894 160.463L184.472 114.519L180.637 116.437V162.785Z" fill="#1B1B1E"/>
<path fill-rule="evenodd" clip-rule="evenodd" d="M56.0664 73.2422L57.4699 73.9482L57.0872 74.709L56.9596 74.6448L56.9652 74.8358L56.114 74.8608L56.0664 73.2422ZM60.1492 76.2494L58.6182 75.4792L59.0009 74.7184L60.5319 75.4886L60.1492 76.2494ZM63.2112 77.7898L61.6802 77.0196L62.0629 76.2588L63.5939 77.029L63.2112 77.7898ZM57.0185 76.6455L57.0717 78.4551L56.2205 78.4801L56.1672 76.6705L57.0185 76.6455ZM66.2732 79.3302L64.7422 78.56L65.1249 77.7992L66.6559 78.5694L66.2732 79.3302ZM69.3352 80.8706L67.8042 80.1004L68.1869 79.3396L69.7179 80.1098L69.3352 80.8706ZM57.1249 80.2648L57.1515 81.1696C57.1584 81.4046 56.9735 81.6008 56.7384 81.6077C56.5034 81.6146 56.3072 81.4297 56.3003 81.1946L56.2737 80.2898L57.1249 80.2648ZM72.3972 82.4109L70.8662 81.6408L71.2489 80.88L72.7799 81.6502L72.3972 82.4109ZM75.4592 83.9513L73.9282 83.1811L74.3109 82.4204L75.8419 83.1906L75.4592 83.9513ZM78.5212 85.4917L76.9902 84.7215L77.3729 83.9608L78.9039 84.731L78.5212 85.4917ZM81.5832 87.0321L80.0522 86.2619L80.4349 85.5012L81.9659 86.2714L81.5832 87.0321ZM84.6452 88.5725L83.1142 87.8023L83.4969 87.0416L85.0279 87.8118L84.6452 88.5725ZM87.7072 90.1129L86.1762 89.3427L86.5589 88.582L88.0899 89.3522L87.7072 90.1129ZM90.7692 91.6533L89.2382 90.8831L89.6209 90.1224L91.1519 90.8926L90.7692 91.6533ZM93.8312 93.1937L92.3002 92.4235L92.6829 91.6628L94.2139 92.433L93.8312 93.1937ZM96.8932 94.7341L95.3622 93.9639L95.7449 93.2032L97.2759 93.9733L96.8932 94.7341ZM99.9552 96.2745L98.4242 95.5043L98.8069 94.7435L100.338 95.5137L99.9552 96.2745ZM103.017 97.8149L101.486 97.0447L101.869 96.2839L103.4 97.0541L103.017 97.8149ZM106.079 99.3553L104.548 98.5851L104.931 97.8243L106.462 98.5945L106.079 99.3553ZM215.53 98.8064L214.77 99.1937L214.383 98.435L215.143 98.0477L215.53 98.8064ZM213.25 99.9685L211.73 100.743L211.344 99.9845L212.863 99.2097L213.25 99.9685ZM109.141 100.896L107.61 100.125L107.993 99.3647L109.524 100.135L109.141 100.896ZM210.21 101.518L208.691 102.293L208.304 101.534L209.824 100.759L210.21 101.518ZM112.203 102.436L110.672 101.666L111.055 100.905L112.586 101.675L112.203 102.436ZM207.171 103.067L205.651 103.842L205.264 103.083L206.784 102.309L207.171 103.067ZM115.265 103.976L113.734 103.206L114.117 102.445L115.648 103.216L115.265 103.976ZM204.131 104.617L202.611 105.391L202.224 104.633L203.744 103.858L204.131 104.617ZM118.327 105.517L116.796 104.747L117.179 103.986L118.71 104.756L118.327 105.517ZM201.091 106.166L199.571 106.941L199.185 106.182L200.704 105.407L201.091 106.166ZM121.389 107.057L119.858 106.287L120.241 105.526L121.772 106.296L121.389 107.057ZM198.051 107.716L196.532 108.49L196.145 107.732L197.665 106.957L198.051 107.716ZM124.451 108.598L122.92 107.827L123.303 107.067L124.834 107.837L124.451 108.598ZM195.012 109.265L193.492 110.04L193.105 109.281L194.625 108.506L195.012 109.265ZM127.513 110.138L125.982 109.368L126.365 108.607L127.896 109.377L127.513 110.138ZM191.972 110.814L190.452 111.589L190.065 110.83L191.585 110.056L191.972 110.814ZM130.575 111.678L129.044 110.908L129.427 110.147L130.958 110.918L130.575 111.678ZM188.932 112.364L187.412 113.139L187.026 112.38L188.545 111.605L188.932 112.364ZM133.637 113.219L132.106 112.449L132.489 111.688L134.02 112.458L133.637 113.219ZM185.892 113.913L184.373 114.688L183.986 113.929L185.506 113.155L185.892 113.913ZM136.699 114.759L135.168 113.989L135.551 113.228L137.082 113.998L136.699 114.759ZM182.853 115.463L181.333 116.238L180.946 115.479L182.466 114.704L182.853 115.463ZM139.761 116.3L138.23 115.529L138.613 114.769L140.144 115.539L139.761 116.3ZM179.813 117.012L178.293 117.787L177.906 117.028L179.426 116.254L179.813 117.012ZM142.823 117.84L141.292 117.07L141.675 116.309L143.206 117.079L142.823 117.84ZM176.773 118.562L175.253 119.336L174.867 118.578L176.387 117.803L176.773 118.562ZM145.885 119.38L144.354 118.61L144.737 117.849L146.268 118.62L145.885 119.38ZM173.734 120.111L172.214 120.886L171.827 120.127L173.347 119.352L173.734 120.111ZM148.947 120.921L147.416 120.151L147.799 119.39L149.33 120.16L148.947 120.921ZM170.694 121.661L169.174 122.435L168.787 121.677L170.307 120.902L170.694 121.661ZM152.009 122.461L150.478 121.691L150.861 120.93L152.392 121.7L152.009 122.461ZM167.654 123.21L166.134 123.985L165.747 123.226L167.267 122.451L167.654 123.21ZM155.071 124.002L153.54 123.231L153.923 122.471L155.454 123.241L155.071 124.002ZM164.614 124.759L163.094 125.534L162.708 124.775L164.228 124.001L164.614 124.759ZM158.133 125.542L156.602 124.772L156.985 124.011L158.516 124.781L158.133 125.542ZM161.047 126.578L161.575 126.309L161.188 125.55L160.62 125.84L160.047 125.551L159.664 126.312L160.195 126.579V127.18H161.047V126.578ZM161.047 128.907V130.634H160.195V128.907H161.047ZM161.047 132.361V134.088H160.195V132.361H161.047ZM161.047 135.815V137.541H160.195V135.815H161.047ZM161.047 139.268V140.995H160.195V139.268H161.047ZM161.047 142.722V144.449H160.195V142.722H161.047ZM161.047 146.175V147.902H160.195V146.175H161.047ZM161.047 149.629V151.356H160.195V149.629H161.047ZM161.047 153.083V154.81H160.195V153.083H161.047ZM161.047 156.537V158.263H160.195V156.537H161.047ZM161.047 159.99V161.717H160.195V159.99H161.047ZM161.047 163.444V165.171H160.195V163.444H161.047ZM161.047 166.898V168.625H160.195V166.898H161.047ZM161.047 170.351V172.078H160.195V170.351H161.047ZM161.047 173.805V175.532H160.195V173.805H161.047ZM161.047 177.259V178.986H160.195V177.259H161.047ZM161.047 180.713V182.439H160.195V180.713H161.047ZM161.047 184.166V185.893H160.195V184.166H161.047ZM153.428 184.887C153.533 184.676 153.789 184.591 153.999 184.696L154.85 185.122L154.47 185.884L153.618 185.458C153.408 185.353 153.322 185.097 153.428 184.887ZM157.876 187.587L156.173 186.735L156.554 185.974L158.257 186.825L157.876 187.587ZM161.047 187.62V189.172L159.579 188.438L159.96 187.677L160.195 187.794V187.62H161.047Z" fill="#F0512D"/>
<path fill-rule="evenodd" clip-rule="evenodd" d="M111.871 46L112.82 46.4755L112.438 47.2369L111.869 46.9516L111.29 47.2387L110.912 46.4758L111.871 46ZM115.475 48.7585L113.957 47.9977L114.338 47.2363L115.857 47.9971L115.475 48.7585ZM109.753 48.0016L108.215 48.7645L107.837 48.0016L109.374 47.2387L109.753 48.0016ZM118.512 50.2801L116.994 49.5193L117.375 48.7579L118.894 49.5187L118.512 50.2801ZM106.677 49.5274L105.14 50.2902L104.761 49.5274L106.299 48.7645L106.677 49.5274ZM121.549 51.8017L120.031 51.0409L120.412 50.2795L121.931 51.0403L121.549 51.8017ZM103.602 51.0531L102.064 51.816L101.686 51.0532L103.224 50.2903L103.602 51.0531ZM124.586 53.3233L123.068 52.5625L123.449 51.8011L124.968 52.5619L124.586 53.3233ZM100.527 52.5789L98.9893 53.3418L98.6108 52.5789L100.148 51.8161L100.527 52.5789ZM127.623 54.8449L126.105 54.0841L126.486 53.3228L128.005 54.0836L127.623 54.8449ZM97.4517 54.1047L95.9141 54.8676L95.5356 54.1047L97.0732 53.3418L97.4517 54.1047ZM130.66 56.3665L129.142 55.6057L129.523 54.8444L131.042 55.6052L130.66 56.3665ZM94.3765 55.6305L92.8389 56.3934L92.4604 55.6305L93.998 54.8676L94.3765 55.6305ZM133.697 57.8882L132.179 57.1273L132.56 56.366L134.078 57.1268L133.697 57.8882ZM91.3013 57.1563L89.7637 57.9192L89.3852 57.1563L90.9228 56.3934L91.3013 57.1563ZM136.734 59.4098L135.215 58.649L135.597 57.8876L137.115 58.6484L136.734 59.4098ZM88.226 58.6821L86.6884 59.445L86.3099 58.6821L87.8475 57.9192L88.226 58.6821ZM139.771 60.9314L138.252 60.1706L138.634 59.4092L140.152 60.17L139.771 60.9314ZM85.1508 60.2078L83.6132 60.9707L83.2347 60.2079L84.7723 59.445L85.1508 60.2078ZM142.808 62.453L141.289 61.6922L141.671 60.9308L143.189 61.6916L142.808 62.453ZM82.0756 61.7336L80.538 62.4965L80.1595 61.7337L81.6971 60.9708L82.0756 61.7336ZM145.845 63.9746L144.326 63.2138L144.708 62.4524L146.226 63.2132L145.845 63.9746ZM79.0004 63.2594L77.4628 64.0223L77.0843 63.2594L78.6219 62.4965L79.0004 63.2594ZM148.882 65.4962L147.363 64.7354L147.745 63.974L149.263 64.7348L148.882 65.4962ZM75.9251 64.7852L74.3875 65.5481L74.009 64.7852L75.5466 64.0223L75.9251 64.7852ZM151.919 67.0178L150.4 66.257L150.782 65.4956L152.3 66.2564L151.919 67.0178ZM72.8499 66.311L71.3123 67.0739L70.9338 66.311L72.4714 65.5481L72.8499 66.311ZM154.956 68.5394L153.437 67.7786L153.819 67.0172L155.337 67.7781L154.956 68.5394ZM69.7747 67.8368L68.2371 68.5997L67.8586 67.8368L69.3962 67.0739L69.7747 67.8368ZM157.993 70.061L156.474 69.3002L156.856 68.5389L158.374 69.2997L157.993 70.061ZM66.6995 69.3626L65.1619 70.1254L64.7834 69.3626L66.321 68.5997L66.6995 69.3626ZM161.03 71.5827L159.511 70.8219L159.893 70.0605L161.411 70.8213L161.03 71.5827ZM63.6242 70.8883L62.0866 71.6512L61.7081 70.8884L63.2457 70.1255L63.6242 70.8883ZM164.067 73.1043L162.548 72.3435L162.93 71.5821L164.448 72.3429L164.067 73.1043ZM60.549 72.4141L59.0114 73.177L58.6329 72.4141L60.1705 71.6513L60.549 72.4141ZM167.104 74.6259L165.585 73.8651L165.967 73.1037L167.485 73.8645L167.104 74.6259ZM57.4738 73.9399L56.705 74.3214C56.4943 74.4259 56.2388 74.3398 56.1343 74.1292C56.0298 73.9185 56.1158 73.663 56.3265 73.5585L57.0953 73.177L57.4738 73.9399ZM170.141 76.1475L168.622 75.3867L169.004 74.6253L170.522 75.3861L170.141 76.1475ZM173.178 77.6691L171.659 76.9083L172.04 76.1469L173.559 76.9077L173.178 77.6691ZM176.214 79.1907L174.696 78.4299L175.077 77.6685L176.596 78.4293L176.214 79.1907ZM179.251 80.7123L177.733 79.9515L178.114 79.1901L179.633 79.9509L179.251 80.7123ZM182.288 82.2339L180.77 81.4731L181.151 80.7117L182.67 81.4726L182.288 82.2339ZM185.325 83.7555L183.807 82.9947L184.188 82.2334L185.707 82.9942L185.325 83.7555ZM188.362 85.2772L186.844 84.5163L187.225 83.755L188.744 84.5158L188.362 85.2772ZM191.399 86.7988L189.881 86.038L190.262 85.2766L191.781 86.0374L191.399 86.7988ZM194.436 88.3204L192.918 87.5596L193.299 86.7982L194.818 87.559L194.436 88.3204ZM197.473 89.842L195.955 89.0812L196.336 88.3198L197.855 89.0806L197.473 89.842ZM200.51 91.3636L198.992 90.6028L199.373 89.8414L200.892 90.6022L200.51 91.3636ZM203.547 92.8852L202.029 92.1244L202.41 91.363L203.929 92.1238L203.547 92.8852ZM206.584 94.4068L205.066 93.646L205.447 92.8846L206.966 93.6454L206.584 94.4068ZM209.621 95.9284L208.103 95.1676L208.484 94.4062L210.003 95.1671L209.621 95.9284ZM212.658 97.45L211.139 96.6892L211.521 95.9279L213.039 96.6887L212.658 97.45ZM214.701 98.4735L214.176 98.2108L214.558 97.4495L215.552 97.9476V99.074H214.701V98.4735ZM214.701 102.528V100.801H215.552V102.528H214.701ZM214.701 105.981V104.255H215.552V105.981H214.701ZM214.701 109.435V107.708H215.552V109.435H214.701ZM214.701 112.889V111.162H215.552V112.889H214.701ZM214.701 116.343V114.616H215.552V116.343H214.701ZM214.701 119.796V118.069H215.552V119.796H214.701ZM214.701 123.25V121.523H215.552V123.25H214.701ZM214.701 126.704V124.977H215.552V126.704H214.701ZM214.701 130.157V128.431H215.552V130.157H214.701ZM214.701 133.611V131.884H215.552V133.611H214.701ZM214.701 137.065V135.338H215.552V137.065H214.701ZM214.701 140.519V138.792H215.552V140.519H214.701ZM214.701 143.972V142.245H215.552V143.972H214.701ZM214.701 147.426V145.699H215.552V147.426H214.701ZM214.701 150.88V149.153H215.552V150.88H214.701ZM214.701 154.333V152.607H215.552V154.333H214.701ZM214.701 157.787V156.06H215.552V157.787H214.701ZM214.701 160.118V159.514H215.552V160.637L214.565 161.146L214.174 160.389L214.701 160.118ZM211.146 161.951L212.66 161.17L213.051 161.927L211.537 162.707L211.146 161.951ZM208.118 163.512L209.632 162.731L210.023 163.488L208.509 164.269L208.118 163.512ZM205.091 165.073L206.605 164.292L206.995 165.049L205.481 165.83L205.091 165.073ZM202.063 166.634L203.577 165.854L203.967 166.611L202.453 167.391L202.063 166.634ZM199.035 168.196L200.549 167.415L200.939 168.172L199.425 168.953L199.035 168.196ZM196.007 169.757L197.521 168.976L197.911 169.733L196.397 170.514L196.007 169.757ZM192.979 171.318L194.493 170.538L194.883 171.294L193.369 172.075L192.979 171.318ZM189.951 172.879L191.465 172.099L191.855 172.856L190.341 173.636L189.951 172.879ZM186.923 174.441L188.437 173.66L188.827 174.417L187.313 175.198L186.923 174.441ZM183.895 176.002L185.409 175.221L185.799 175.978L184.285 176.759L183.895 176.002ZM180.867 177.563L182.381 176.783L182.771 177.54L181.258 178.32L180.867 177.563ZM177.839 179.124L179.353 178.344L179.744 179.101L178.23 179.881L177.839 179.124ZM174.811 180.686L176.325 179.905L176.716 180.662L175.202 181.443L174.811 180.686ZM171.783 182.247L173.297 181.466L173.688 182.223L172.174 183.004L171.783 182.247ZM168.756 183.808L170.27 183.028L170.66 183.785L169.146 184.565L168.756 183.808ZM165.728 185.37L167.242 184.589L167.632 185.346L166.118 186.126L165.728 185.37ZM162.7 186.931L164.214 186.15L164.604 186.907L163.09 187.688L162.7 186.931ZM160.429 188.102L161.186 187.711L161.576 188.468L160.819 188.859C160.61 188.966 160.353 188.884 160.245 188.675C160.138 188.466 160.22 188.21 160.429 188.102Z" fill="#F0512D"/>
</g>
<defs>
<clipPath id="clip0_6414_32900">
<rect width="201" height="164" fill="white" transform="translate(15 46)"/>
</clipPath>
</defs>
</svg>
