<svg width="232" height="216" viewBox="0 0 232 216" fill="none" xmlns="http://www.w3.org/2000/svg">
<rect width="232" height="216" rx="16" fill="white"/>
<path d="M16.824 30L21.912 20.56H15.4V18.8H24.136V20.56L19.032 30H16.824ZM25.4131 30V28.528C25.4131 24.576 32.7411 25.072 32.7411 22.144C32.7411 20.96 31.8451 20.368 30.2291 20.368C28.5491 20.368 27.7171 21.072 27.7171 22.4V22.784H25.7331V22.4C25.7331 19.952 27.4131 18.64 30.2291 18.64C33.0291 18.64 34.7251 19.92 34.7251 22.144C34.7251 26.24 27.5891 26.192 27.5891 28.272H34.7571V30H25.4131ZM45.2425 23.696H42.9385V30H41.1465V23.696H39.8025V22.688L41.1465 22.16V21.776C41.1465 19.632 42.4425 18.64 44.5385 18.64C45.5625 18.64 46.2505 19.072 46.2505 19.072V20.704C46.2505 20.704 45.7705 20.272 44.8425 20.272C43.7225 20.272 42.9385 20.752 42.9385 21.952V22.16H45.2425V23.696ZM47.4616 27.072V23.696H46.1656V22.56L48.0856 20.4H49.2536V22.16H51.9896V23.696H49.2536V26.832C49.2536 28.176 50.0376 28.528 50.9496 28.528C51.7656 28.528 52.2296 28.192 52.2296 28.192V29.856C52.2296 29.856 51.6376 30.16 50.7096 30.16C48.6936 30.16 47.4616 29.216 47.4616 27.072ZM53.2769 23.28V22.272C53.2769 19.504 57.1809 20.624 57.1809 19.072C57.1809 18.64 56.8609 18.32 56.1089 18.32C55.3249 18.32 55.0209 18.72 55.0209 19.168V19.312H53.4849V19.168C53.4849 17.856 54.3969 17.04 56.1089 17.04C57.8209 17.04 58.7169 17.872 58.7169 18.992C58.7169 21.584 54.8289 21.024 54.8289 22H58.6689V23.28H53.2769Z" fill="black"/>
<path d="M15.984 43.804H16.824C16.824 43.804 17.268 45.376 19.128 45.376C21.036 45.376 21.78 43.708 21.78 41.728H21.756C21.756 41.728 21.168 43.096 19.056 43.096C17.268 43.096 15.9 41.968 15.9 40.288C15.9 38.548 17.208 37.48 19.152 37.48C21.396 37.48 22.572 39.04 22.572 41.368V41.788C22.572 44.116 21.492 46.12 19.128 46.12C16.752 46.12 15.984 44.176 15.984 43.804ZM19.152 38.224C17.712 38.224 16.716 39.004 16.716 40.288C16.716 41.572 17.76 42.352 19.152 42.352C20.472 42.352 21.54 41.524 21.54 40.288C21.54 39.052 20.532 38.224 19.152 38.224ZM28.0327 41.416L26.5447 42.904L28.0327 44.392L27.5407 44.884L26.0527 43.396L24.5647 44.884L24.0727 44.392L25.5607 42.904L24.0727 41.416L24.5647 40.924L26.0527 42.412L27.5407 40.924L28.0327 41.416ZM32.9129 46.12C30.9209 46.12 29.5289 45.208 29.5289 43.684C29.5289 41.944 31.4009 41.608 31.4009 41.608V41.572C31.4009 41.572 29.7929 41.284 29.7929 39.748C29.7929 38.344 31.0409 37.48 32.9129 37.48C34.7849 37.48 36.0329 38.344 36.0329 39.748C36.0329 41.284 34.4249 41.572 34.4249 41.572V41.608C34.4249 41.608 36.2969 41.944 36.2969 43.684C36.2969 45.208 34.9049 46.12 32.9129 46.12ZM32.9129 45.376C34.4489 45.376 35.4809 44.8 35.4809 43.684C35.4809 42.568 34.4249 41.992 32.9129 41.992C31.4009 41.992 30.3449 42.568 30.3449 43.684C30.3449 44.8 31.3769 45.376 32.9129 45.376ZM32.9129 41.248C34.3289 41.248 35.2169 40.648 35.2169 39.748C35.2169 38.812 34.3289 38.224 32.9129 38.224C31.4969 38.224 30.6089 38.812 30.6089 39.748C30.6089 40.648 31.4969 41.248 32.9129 41.248ZM41.7553 41.416L40.2673 42.904L41.7553 44.392L41.2633 44.884L39.7753 43.396L38.2873 44.884L37.7953 44.392L39.2833 42.904L37.7953 41.416L38.2873 40.924L39.7753 42.412L41.2633 40.924L41.7553 41.416ZM46.6356 46.12C44.6436 46.12 43.2516 45.208 43.2516 43.684C43.2516 41.944 45.1236 41.608 45.1236 41.608V41.572C45.1236 41.572 43.5156 41.284 43.5156 39.748C43.5156 38.344 44.7636 37.48 46.6356 37.48C48.5076 37.48 49.7556 38.344 49.7556 39.748C49.7556 41.284 48.1476 41.572 48.1476 41.572V41.608C48.1476 41.608 50.0196 41.944 50.0196 43.684C50.0196 45.208 48.6276 46.12 46.6356 46.12ZM46.6356 45.376C48.1716 45.376 49.2036 44.8 49.2036 43.684C49.2036 42.568 48.1476 41.992 46.6356 41.992C45.1236 41.992 44.0676 42.568 44.0676 43.684C44.0676 44.8 45.0996 45.376 46.6356 45.376ZM46.6356 41.248C48.0516 41.248 48.9396 40.648 48.9396 39.748C48.9396 38.812 48.0516 38.224 46.6356 38.224C45.2196 38.224 44.3316 38.812 44.3316 39.748C44.3316 40.648 45.2196 41.248 46.6356 41.248ZM55.8648 39.82V40.12H57.7728V40.816H55.8648V46H55.1208V40.816H54.1008V40.12H55.1208V39.76C55.1208 38.14 56.0208 37.48 57.1608 37.48C57.9288 37.48 58.3608 37.744 58.3608 37.744V38.464C58.3608 38.464 57.9648 38.176 57.2208 38.176C56.4408 38.176 55.8648 38.584 55.8648 39.82ZM59.445 43.9V40.816H58.425V40.12H59.445V38.8H60.189V40.12H62.445V40.816H60.189V43.816C60.189 45.004 60.765 45.424 61.545 45.424C62.289 45.424 62.685 45.136 62.685 45.136V45.844C62.685 45.844 62.253 46.12 61.485 46.12C60.345 46.12 59.445 45.46 59.445 43.9Z" fill="black"/>
<path fill-rule="evenodd" clip-rule="evenodd" d="M109.843 105.131L226.2 163.543L226.031 163.881L109.654 105.459L5.16834 157.638L5 157.299L109.465 105.131V50H109.843V105.131Z" fill="black"/>
<path d="M85.7851 118.446L87.7591 119.432L89.6466 118.478L110.598 107.896L111.693 107.343C111.948 107.214 112.108 106.953 112.108 106.667V89.9155L109.432 88.5794C109.216 88.4715 108.962 88.4737 108.747 88.5852L85.7566 100.555C85.1314 100.88 84.739 101.528 84.739 102.234V116.752C84.739 117.47 85.1441 118.126 85.7851 118.446Z" fill="#37AFB7"/>
<path fill-rule="evenodd" clip-rule="evenodd" d="M109.517 88.4117C109.247 88.2769 108.929 88.2796 108.661 88.419L85.6703 100.389C84.9825 100.747 84.551 101.459 84.551 102.236V116.754C84.551 117.544 84.9966 118.265 85.7016 118.617L87.7603 119.645L111.779 107.514C112.097 107.353 112.298 107.026 112.298 106.669V89.8001L109.517 88.4117ZM108.835 88.7548C108.996 88.6712 109.187 88.6696 109.349 88.7504L111.69 89.9195L88.0849 102.025C87.7695 102.187 87.571 102.513 87.571 102.868V119.128L85.8699 118.278C85.2931 117.99 84.9285 117.4 84.9285 116.754V102.236C84.9285 101.6 85.2816 101.017 85.8443 100.724L108.835 88.7548ZM87.9485 119.126V102.868C87.9485 102.655 88.0676 102.459 88.2569 102.362L111.92 90.2266V106.669C111.92 106.883 111.8 107.079 111.609 107.176L87.9485 119.126Z" fill="black"/>
<path fill-rule="evenodd" clip-rule="evenodd" d="M154.198 151.414H152.688V154.441C152.688 154.859 153.026 155.198 153.443 155.198C153.86 155.198 154.198 154.859 154.198 154.441V151.414Z" fill="white"/>
<path fill-rule="evenodd" clip-rule="evenodd" d="M152.501 151.227H154.389V154.443C154.389 154.966 153.966 155.389 153.445 155.389C152.924 155.389 152.501 154.966 152.501 154.443V151.227ZM152.879 151.605V154.443C152.879 154.757 153.132 155.011 153.445 155.011C153.758 155.011 154.011 154.757 154.011 154.443V151.605H152.879Z" fill="black"/>
<path fill-rule="evenodd" clip-rule="evenodd" d="M88.5149 118.688H87.0049V121.715C87.0049 122.133 87.3429 122.472 87.7599 122.472C88.1769 122.472 88.5149 122.133 88.5149 121.715V118.688Z" fill="white"/>
<path fill-rule="evenodd" clip-rule="evenodd" d="M86.8149 118.492H88.7025V121.709C88.7025 122.231 88.2799 122.655 87.7587 122.655C87.2375 122.655 86.8149 122.231 86.8149 121.709V118.492ZM87.1925 118.871V121.709C87.1925 122.022 87.446 122.276 87.7587 122.276C88.0715 122.276 88.325 122.022 88.325 121.709V118.871H87.1925Z" fill="black"/>
<path d="M86.8149 118.563V115.883C86.8149 114.37 87.713 113.004 89.0988 112.406L105.69 105.255V87.8558C105.69 86.4541 106.463 85.1672 107.699 84.5114L110.396 83.0804C111.471 82.51 112.754 82.4936 113.843 83.0363L131.927 92.0495L151.558 101.833L177.588 114.806C178.871 115.446 179.682 116.758 179.682 118.195V123.608V134.392V141.157C179.682 141.301 179.6 141.433 179.47 141.497L155.875 153.06C154.819 153.577 153.584 153.572 152.532 153.047L126.186 139.879L107.636 130.608L88.2784 120.933C87.3816 120.485 86.8149 119.567 86.8149 118.563Z" fill="#37AFB7"/>
<path fill-rule="evenodd" clip-rule="evenodd" d="M113.762 83.1997C112.727 82.684 111.508 82.6996 110.487 83.2415L107.791 84.6725C106.617 85.2956 105.882 86.5181 105.882 87.8497V105.131L124.947 114.644V97.6312C124.947 96.0872 125.839 94.683 127.235 94.0303L131.496 92.038L113.762 83.1997ZM131.928 92.2534L127.394 94.3733C126.131 94.9638 125.324 96.2342 125.324 97.6312V114.832L143.642 123.972L144.131 107.554C144.175 106.064 145.047 104.725 146.39 104.084L151.129 101.823L131.928 92.2534ZM151.559 102.038L146.552 104.426C145.337 105.005 144.548 106.217 144.508 107.565L144.014 124.158L171.759 138.002L179.497 134.267V118.189C179.497 117.398 179.238 116.648 178.784 116.038L175.086 118.138C173.962 118.776 173.268 119.971 173.268 121.266V127.196H172.89V121.266C172.89 119.835 173.658 118.514 174.9 117.809L178.538 115.742C178.248 115.43 177.901 115.166 177.507 114.97L151.559 102.038ZM179.497 134.687L156.423 145.824C155.181 146.423 154.392 147.682 154.392 149.063V153.245C154.873 153.222 155.351 153.101 155.795 152.884L179.391 141.321C179.455 141.289 179.497 141.223 179.497 141.151V134.687ZM154.015 153.243V149.063C154.015 147.536 154.887 146.145 156.259 145.483L171.328 138.21L143.822 124.485L128.368 132.187C127.149 132.795 126.378 134.042 126.378 135.406V139.756L152.62 152.871C153.06 153.092 153.535 153.216 154.015 153.243ZM126.001 139.567V135.406C126.001 133.898 126.852 132.52 128.2 131.849L143.398 124.273L125.135 115.161L109.828 122.73C108.603 123.336 107.828 124.586 107.828 125.954V130.485L126.001 139.567ZM107.451 130.296V125.954C107.451 124.442 108.308 123.06 109.661 122.391L124.71 114.949L105.688 105.457L89.1765 112.574C87.86 113.141 87.0069 114.44 87.0069 115.876V118.557C87.0069 119.489 87.5331 120.342 88.3658 120.758L107.451 130.296ZM105.505 105.124V87.8497C105.505 86.3779 106.316 85.0267 107.614 84.3381L110.311 82.9071C111.439 82.3081 112.787 82.2909 113.93 82.8608L177.675 114.631C179.022 115.302 179.874 116.681 179.874 118.189V141.151C179.874 141.367 179.751 141.565 179.556 141.661L155.961 153.224C154.853 153.767 153.555 153.762 152.451 153.21L88.1973 121.097C87.2366 120.616 86.6294 119.633 86.6294 118.557V115.876C86.6294 114.289 87.5723 112.853 89.0274 112.226L105.505 105.124Z" fill="black"/>
<path d="M156.379 153.448L157.506 154.011C158.039 154.277 158.666 154.276 159.197 154.007L160.24 153.48L181.192 142.898L181.664 142.66C182.301 142.338 182.702 141.685 182.702 140.97V124.918L180.542 123.839C180.001 123.569 179.365 123.575 178.83 123.854L155.333 136.087V151.755C155.333 152.472 155.738 153.128 156.379 153.448Z" fill="#37AFB7"/>
<path fill-rule="evenodd" clip-rule="evenodd" d="M180.626 123.671C180.032 123.375 179.333 123.381 178.744 123.687L155.145 135.974V151.756C155.145 152.546 155.59 153.267 156.295 153.619L157.423 154.182C158.009 154.475 158.698 154.473 159.283 154.178L181.75 142.83C182.45 142.477 182.892 141.758 182.892 140.972V124.802L180.626 123.671ZM178.918 124.023C179.4 123.772 179.972 123.767 180.458 124.01L182.284 124.922L159.062 136.831C158.61 137.063 158.077 137.08 157.61 136.876L155.772 136.073L178.918 124.023ZM155.522 136.377L157.46 137.223C158.03 137.472 158.681 137.452 159.234 137.168L182.514 125.229V140.972C182.514 141.615 182.153 142.203 181.58 142.493L159.113 153.84C158.635 154.082 158.071 154.083 157.591 153.844L156.464 153.281C155.887 152.993 155.522 152.402 155.522 151.756V136.377Z" fill="black"/>
<path d="M23.5858 148.198L42.0838 157.469L91.3486 132.872V120.574V65.3257L72.8507 56.0547L23.5858 81.0298V148.198Z" fill="#837477"/>
<path d="M91.5 65.5L42 90.5V168L91.5 143V65.5Z" fill="#908386"/>
<path fill-rule="evenodd" clip-rule="evenodd" d="M72.849 55.8438L23.3958 80.9143V148.315L42.0823 157.681L91.5361 132.99V65.2096L72.849 55.8438ZM91.1586 65.6332V132.756L42.2713 157.164V90.2292L91.1586 65.6332ZM41.8937 90.2305V157.163L23.7733 148.081V81.334L41.8937 90.2305ZM24.0082 81.0279L42.0815 89.9013L90.926 65.3269L72.8499 56.2673L24.0082 81.0279ZM89.8373 68.4267L43.97 91.3197V154.559L89.8373 131.666V68.4267ZM89.4598 69.0378V131.431L67.0924 142.595V80.2017L89.4598 69.0378ZM66.7149 80.3902V142.784L44.3476 153.947V91.554L66.7149 80.3902ZM69.2631 116.98V107.141H68.8856V116.98H69.2631ZM65.1105 118.493V108.655H64.733V118.493H65.1105Z" fill="black"/>
<path d="M30.9475 154.25L24.5299 157.467L18.4897 154.25V144.223L24.7186 141.195L30.9475 144.223V154.25Z" fill="#7A7A7A"/>
<path fill-rule="evenodd" clip-rule="evenodd" d="M24.7214 140.984L31.139 144.103V154.367L24.53 157.679L18.3037 154.364V144.103L24.7214 140.984ZM18.6812 144.537L24.3438 147.552V157.152L18.6812 154.136V144.537ZM24.7214 157.16L30.7615 154.133V144.528L24.7214 147.555V157.16ZM24.5352 147.226L30.523 144.225L24.7214 141.405L18.9093 144.23L24.5352 147.226Z" fill="black"/>
<path d="M22.3626 149.156C22.3394 149.761 21.9407 149.942 21.4719 149.56C21.0032 149.179 20.642 148.379 20.6651 147.775C20.6883 147.17 21.087 146.989 21.5558 147.37C22.0245 147.752 22.3857 148.551 22.3626 149.156Z" fill="white"/>
<path fill-rule="evenodd" clip-rule="evenodd" d="M21.5473 147.555C21.1595 147.24 20.8296 147.39 20.8104 147.89C20.7913 148.39 21.0901 149.051 21.4779 149.367C21.8657 149.683 22.1956 149.533 22.2147 149.032C22.2339 148.532 21.935 147.871 21.5473 147.555ZM20.5172 147.651C20.5444 146.942 21.012 146.73 21.5617 147.177C22.1114 147.624 22.5351 148.562 22.5079 149.271C22.4808 149.98 22.0131 150.193 21.4634 149.745C20.9137 149.298 20.4901 148.36 20.5172 147.651Z" fill="black"/>
<path d="M21.7944 148.697C21.8021 148.495 21.6817 148.229 21.5253 148.102C21.369 147.974 21.2361 148.035 21.2283 148.236C21.2206 148.438 21.3411 148.705 21.4974 148.832C21.6537 148.959 21.7867 148.899 21.7944 148.697Z" fill="white"/>
<path fill-rule="evenodd" clip-rule="evenodd" d="M21.5047 148.643C21.4294 148.582 21.3714 148.453 21.3751 148.356C21.3788 148.259 21.4429 148.23 21.5182 148.291C21.5935 148.353 21.6516 148.481 21.6478 148.578C21.6441 148.675 21.58 148.704 21.5047 148.643ZM21.0818 148.118C21.07 148.424 21.2529 148.828 21.4902 149.022C21.7275 149.215 21.9294 149.123 21.9411 148.817C21.9529 148.511 21.77 148.106 21.5327 147.913C21.2954 147.72 21.0935 147.811 21.0818 148.118Z" fill="black"/>
<path d="M22.7584 153.993C22.7198 155 22.0554 155.302 21.2744 154.667C20.4934 154.031 19.8916 152.699 19.9301 151.692C19.9687 150.684 20.6331 150.382 21.4141 151.018C22.1951 151.653 22.797 152.985 22.7584 153.993Z" fill="white"/>
<path fill-rule="evenodd" clip-rule="evenodd" d="M21.4056 151.203C20.7055 150.633 20.11 150.903 20.0754 151.807C20.0408 152.71 20.5803 153.904 21.2804 154.473C21.9804 155.043 22.576 154.773 22.6105 153.869C22.6451 152.966 22.1056 151.772 21.4056 151.203ZM19.7823 151.568C19.8249 150.456 20.5581 150.123 21.4201 150.825C22.282 151.526 22.9462 152.996 22.9036 154.108C22.8611 155.22 22.1278 155.553 21.2659 154.852C20.4039 154.15 19.7397 152.68 19.7823 151.568Z" fill="black"/>
<path d="M21.772 153.192C21.7604 153.494 21.5609 153.585 21.3265 153.394C21.092 153.203 20.9113 152.803 20.9229 152.501C20.9345 152.198 21.1339 152.108 21.3684 152.299C21.6029 152.489 21.7835 152.889 21.772 153.192Z" fill="white"/>
<path fill-rule="evenodd" clip-rule="evenodd" d="M21.358 152.484C21.2045 152.359 21.0739 152.418 21.0664 152.616C21.0588 152.814 21.1771 153.076 21.3305 153.201C21.484 153.326 21.6146 153.266 21.6221 153.068C21.6297 152.87 21.5115 152.609 21.358 152.484ZM20.7731 152.378C20.7886 151.971 21.057 151.849 21.3725 152.105C21.6879 152.362 21.931 152.9 21.9155 153.307C21.8999 153.714 21.6315 153.836 21.316 153.579C21.0006 153.323 20.7575 152.785 20.7731 152.378Z" fill="black"/>
<path d="M36.992 157.282L30.5743 160.498L24.5342 157.282V147.254L30.7631 144.227L36.992 147.254V157.282Z" fill="#7A7A7A"/>
<path fill-rule="evenodd" clip-rule="evenodd" d="M30.7604 144.016L37.1781 147.135V157.398L30.569 160.71L24.3428 157.395V147.135L30.7604 144.016ZM24.7203 147.568L30.3829 150.583V160.183L24.7203 157.167V147.568ZM30.7604 160.191L36.8006 157.164V147.559L30.7604 150.587V160.191ZM30.5743 150.257L36.562 147.256L30.7604 144.436L24.9483 147.261L30.5743 150.257Z" fill="black"/>
<path d="M28.406 152.195C28.3829 152.8 27.9841 152.981 27.5154 152.599C27.0466 152.218 26.6854 151.418 26.7086 150.814C26.7317 150.209 27.1305 150.028 27.5992 150.409C28.068 150.791 28.4292 151.59 28.406 152.195Z" fill="white"/>
<path fill-rule="evenodd" clip-rule="evenodd" d="M27.5907 150.594C27.2029 150.279 26.873 150.429 26.8539 150.929C26.8347 151.429 27.1336 152.091 27.5214 152.406C27.9091 152.722 28.239 152.572 28.2582 152.072C28.2773 151.571 27.9785 150.91 27.5907 150.594ZM26.5607 150.69C26.5879 149.981 27.0555 149.769 27.6052 150.216C28.1549 150.663 28.5785 151.601 28.5514 152.31C28.5242 153.019 28.0566 153.232 27.5069 152.784C26.9572 152.337 26.5335 151.4 26.5607 150.69Z" fill="black"/>
<path d="M27.8374 151.736C27.8451 151.534 27.7246 151.268 27.5683 151.141C27.412 151.013 27.279 151.074 27.2713 151.275C27.2636 151.477 27.384 151.744 27.5404 151.871C27.6967 151.998 27.8296 151.938 27.8374 151.736Z" fill="white"/>
<path fill-rule="evenodd" clip-rule="evenodd" d="M27.5477 151.682C27.4724 151.621 27.4143 151.492 27.418 151.395C27.4218 151.298 27.4858 151.269 27.5612 151.33C27.6365 151.392 27.6945 151.52 27.6908 151.617C27.6871 151.714 27.623 151.743 27.5477 151.682ZM27.1247 151.157C27.113 151.463 27.2959 151.867 27.5332 152.061C27.7705 152.254 27.9724 152.162 27.9841 151.856C27.9958 151.55 27.813 151.145 27.5756 150.952C27.3383 150.759 27.1365 150.85 27.1247 151.157Z" fill="black"/>
<path d="M28.8014 157.032C28.7628 158.04 28.0984 158.341 27.3174 157.706C26.5364 157.07 25.9345 155.738 25.9731 154.731C26.0117 153.723 26.6761 153.421 27.4571 154.057C28.2381 154.692 28.84 156.024 28.8014 157.032Z" fill="white"/>
<path fill-rule="evenodd" clip-rule="evenodd" d="M27.4485 154.242C26.7485 153.672 26.1529 153.943 26.1184 154.846C26.0838 155.749 26.6233 156.943 27.3233 157.512C28.0234 158.082 28.6189 157.812 28.6535 156.909C28.6881 156.005 28.1486 154.811 27.4485 154.242ZM25.8253 154.607C25.8678 153.495 26.6011 153.162 27.463 153.864C28.325 154.565 28.9892 156.035 28.9466 157.147C28.904 158.259 28.1708 158.592 27.3088 157.891C26.4469 157.189 25.7827 155.719 25.8253 154.607Z" fill="black"/>
<path d="M27.8149 156.231C27.8034 156.533 27.6039 156.624 27.3694 156.433C27.135 156.242 26.9543 155.842 26.9658 155.54C26.9774 155.237 27.1769 155.147 27.4114 155.338C27.6458 155.528 27.8265 155.928 27.8149 156.231Z" fill="white"/>
<path fill-rule="evenodd" clip-rule="evenodd" d="M27.4009 155.523C27.2475 155.398 27.1169 155.457 27.1093 155.655C27.1018 155.853 27.22 156.115 27.3735 156.24C27.527 156.365 27.6575 156.305 27.6651 156.107C27.6727 155.909 27.5544 155.648 27.4009 155.523ZM26.816 155.417C26.8316 155.01 27.1 154.888 27.4154 155.144C27.7309 155.401 27.974 155.939 27.9584 156.346C27.9428 156.753 27.6745 156.875 27.359 156.618C27.0435 156.362 26.8004 155.824 26.816 155.417Z" fill="black"/>
<path d="M82.2919 147.633L100.79 156.904L102.677 155.951L123.629 145.369L125.139 144.606V127.388L115.89 122.753L106.641 118.117L82.2919 130.794V147.633Z" fill="#E7C89E"/>
<path fill-rule="evenodd" clip-rule="evenodd" d="M106.638 117.906L82.1019 130.68V147.752L100.789 157.117L125.327 144.724V127.273L106.638 117.906ZM106.642 118.331L124.72 127.392L100.787 139.666L82.7097 130.79L106.642 118.331ZM82.4794 131.099L100.6 139.995V156.6L82.4794 147.518V131.099ZM100.977 156.598V139.993L124.949 127.699V144.491L100.977 156.598Z" fill="black"/>
<path fill-rule="evenodd" clip-rule="evenodd" d="M112.304 134.106L98.7612 127.502L99.4218 126.141L113.814 133.159V136.849H112.304V134.106Z" fill="#F0512D"/>
<path d="M58.1259 160.118L76.6238 169.389L78.5114 168.435L99.4631 157.853L100.973 157.09V139.873L91.7242 135.237L82.4752 130.602L58.1259 143.278V160.118Z" fill="#E7C89E"/>
<path fill-rule="evenodd" clip-rule="evenodd" d="M82.4723 130.391L57.9359 143.165V160.236L76.6229 169.602L101.161 157.208V139.757L82.4723 130.391ZM82.4756 130.815L100.554 139.876L76.6207 152.15L58.5437 143.275L82.4756 130.815ZM58.3134 143.583L76.4338 152.48V169.084L58.3134 160.002V143.583ZM76.8113 169.083V152.477L100.783 140.183V156.975L76.8113 169.083Z" fill="black"/>
<path fill-rule="evenodd" clip-rule="evenodd" d="M88.1378 146.584L73.6401 139.225L74.3223 137.875L89.6478 145.653V153.119H88.1378V146.584Z" fill="#F0512D"/>
<path d="M103.237 109.031L54.5388 133.439V134.574L78.6993 146.683L127.398 122.465V121.14L103.237 109.031Z" fill="#837477"/>
<path fill-rule="evenodd" clip-rule="evenodd" d="M103.24 108.82L54.3527 133.322V157.847H54.7302V134.881L78.5132 146.801V169.956H78.8907V146.801L127.212 122.77V145.927H127.589V121.024L103.24 108.82ZM127.212 122.348L78.8907 146.379V145.477L127.212 121.446V122.348ZM126.977 121.14L78.7016 145.148L54.9661 133.438L103.24 109.243L126.977 121.14ZM54.7302 133.743L78.5132 145.477V146.378L54.7302 134.458V133.743Z" fill="black"/>
<path d="M113.809 107.33V120.006L109.998 121.938L95.5001 129.285L82.8535 122.845V110.168L101.351 101.086L113.809 107.33Z" fill="#A4A5AB"/>
<path d="M109 111.5L95.9995 117.996V127.5L109.5 120.5L109 111.5Z" fill="#BDBCBC"/>
<path fill-rule="evenodd" clip-rule="evenodd" d="M101.354 100.875L113.999 107.213V120.123L95.5011 129.497L82.666 122.961V110.05L101.354 100.875ZM83.0435 110.472V122.729L95.3126 128.977V116.537L83.0435 110.472ZM95.6901 116.536V128.977L109.81 121.822V109.527L95.6901 116.536ZM110.188 109.339V121.63L113.622 119.89V107.635L110.188 109.339ZM113.387 107.329L95.5011 116.208L83.2827 110.169L101.352 101.297L113.387 107.329ZM113.433 108.727V111.042L110.413 112.555V110.24L113.433 108.727ZM110.79 110.474V111.943L113.055 110.808V109.339L110.79 110.474ZM109.469 110.999V120.88L96.0676 127.694V117.618L109.469 110.999ZM96.4451 117.854V127.077L109.092 120.647V111.607L96.4451 117.854Z" fill="black"/>
<path d="M112.866 117.685C112.866 118.417 112.528 119.25 112.111 119.25C111.694 119.25 111.356 118.898 111.356 118.167C111.356 117.435 111.694 116.602 112.111 116.602C112.528 116.602 112.866 116.954 112.866 117.685Z" fill="white"/>
<path fill-rule="evenodd" clip-rule="evenodd" d="M111.748 117.182C111.623 117.456 111.544 117.821 111.544 118.161C111.544 118.5 111.622 118.726 111.726 118.862C111.826 118.994 111.959 119.055 112.11 119.055C112.148 119.055 112.202 119.037 112.271 118.968C112.34 118.9 112.41 118.794 112.472 118.657C112.597 118.384 112.676 118.019 112.676 117.679C112.676 117.34 112.598 117.114 112.494 116.978C112.393 116.846 112.26 116.785 112.11 116.785C112.072 116.785 112.018 116.803 111.949 116.872C111.88 116.94 111.81 117.045 111.748 117.182ZM111.683 116.603C111.795 116.492 111.939 116.406 112.11 116.406C112.376 116.406 112.621 116.521 112.794 116.748C112.963 116.971 113.054 117.287 113.054 117.679C113.054 118.07 112.964 118.489 112.815 118.815C112.741 118.977 112.648 119.126 112.536 119.237C112.425 119.348 112.28 119.434 112.11 119.434C111.843 119.434 111.599 119.319 111.426 119.092C111.256 118.869 111.166 118.553 111.166 118.161C111.166 117.769 111.256 117.351 111.404 117.025C111.478 116.862 111.571 116.714 111.683 116.603Z" fill="black"/>
<path d="M72.2865 132.118C72.2865 133.581 74.3147 134.766 76.8166 134.766C79.3185 134.766 81.3467 133.581 81.3467 132.118C81.3467 130.655 79.3185 129.469 76.8166 129.469C74.3147 129.469 72.2865 130.655 72.2865 132.118Z" fill="white"/>
<path fill-rule="evenodd" clip-rule="evenodd" d="M79.9235 130.41C80.7143 130.872 81.1567 131.483 81.1567 132.119C81.1567 132.756 80.7143 133.367 79.9235 133.829C79.1373 134.289 78.0389 134.579 76.8153 134.579C75.5918 134.579 74.4933 134.289 73.7072 133.829C72.9164 133.367 72.474 132.756 72.474 132.119C72.474 131.483 72.9164 130.872 73.7072 130.41C74.4933 129.95 75.5918 129.66 76.8153 129.66C78.0389 129.66 79.1373 129.95 79.9235 130.41ZM80.1137 130.083C79.2603 129.584 78.0937 129.281 76.8153 129.281C75.537 129.281 74.3704 129.584 73.5169 130.083C72.6681 130.579 72.0965 131.293 72.0965 132.119C72.0965 132.946 72.6681 133.659 73.5169 134.156C74.3704 134.655 75.537 134.957 76.8153 134.957C78.0937 134.957 79.2603 134.655 80.1137 134.156C80.9625 133.659 81.5342 132.946 81.5342 132.119C81.5342 131.293 80.9625 130.579 80.1137 130.083Z" fill="black"/>
<path d="M77.1938 127.953H76.4381V132.116H77.1938V127.953Z" fill="white"/>
<path fill-rule="evenodd" clip-rule="evenodd" d="M77.0043 127.953V132.116H77.3818V127.953H77.0043ZM76.6268 132.116V127.953H76.2493V132.116H76.6268Z" fill="black"/>
<path d="M76.8166 116.984C78.4845 116.984 79.8366 117.831 79.8366 118.876L81.3467 126.445C81.3467 127.908 79.3185 129.094 76.8166 129.094C74.3147 129.094 72.2865 127.908 72.2865 126.445L73.7965 118.876C73.7965 117.831 75.1486 116.984 76.8166 116.984Z" fill="#F8DD4D"/>
<path fill-rule="evenodd" clip-rule="evenodd" d="M78.8508 117.693C79.3655 118.015 79.6466 118.437 79.6466 118.87V118.889L81.1566 126.457C81.1482 127.086 80.7067 127.69 79.9235 128.148C79.1373 128.608 78.0389 128.898 76.8153 128.898C75.5918 128.898 74.4933 128.608 73.7072 128.148C72.9239 127.69 72.4824 127.086 72.4741 126.457L73.984 118.889V118.87C73.984 118.437 74.2651 118.015 74.7799 117.693C75.2919 117.372 76.0111 117.167 76.8153 117.167C77.6196 117.167 78.3387 117.372 78.8508 117.693ZM79.0509 117.372C78.4699 117.008 77.679 116.789 76.8153 116.789C75.9516 116.789 75.1608 117.008 74.5798 117.372C74.0076 117.73 73.6149 118.248 73.6066 118.851L72.0965 126.42V126.439C72.0965 127.265 72.6681 127.979 73.5169 128.475C74.3704 128.974 75.537 129.277 76.8153 129.277C78.0937 129.277 79.2603 128.974 80.1137 128.475C80.9625 127.979 81.5342 127.265 81.5342 126.439V126.42L80.024 118.851C80.0158 118.248 79.6231 117.73 79.0509 117.372Z" fill="black"/>
<path fill-rule="evenodd" clip-rule="evenodd" d="M78.8508 117.693C79.3655 118.015 79.6466 118.437 79.6466 118.87C79.6466 119.304 79.3655 119.725 78.8508 120.048C78.3387 120.369 77.6196 120.573 76.8153 120.573C76.0111 120.573 75.2919 120.369 74.7799 120.048C74.2651 119.725 73.984 119.304 73.984 118.87C73.984 118.437 74.2651 118.015 74.7799 117.693C75.2919 117.372 76.0111 117.167 76.8153 117.167C77.6196 117.167 78.3387 117.372 78.8508 117.693ZM79.0509 117.372C78.4699 117.008 77.679 116.789 76.8153 116.789C75.9516 116.789 75.1608 117.008 74.5798 117.372C74.0076 117.73 73.6149 118.248 73.6066 118.851L72.0965 126.42V126.439C72.0965 127.265 72.6681 127.979 73.5169 128.475C74.3704 128.974 75.537 129.277 76.8153 129.277C78.0937 129.277 79.2603 128.974 80.1137 128.475C80.9625 127.979 81.5342 127.265 81.5342 126.439V126.42L80.024 118.851C80.0158 118.248 79.6231 117.73 79.0509 117.372ZM79.7976 119.646L81.1566 126.457C81.1482 127.086 80.7067 127.69 79.9235 128.148C79.1373 128.608 78.0389 128.898 76.8153 128.898C75.5918 128.898 74.4933 128.608 73.7072 128.148C72.9239 127.69 72.4824 127.086 72.4741 126.457L73.833 119.646C74.005 119.927 74.2653 120.172 74.5798 120.369C75.1608 120.733 75.9516 120.952 76.8153 120.952C77.679 120.952 78.4699 120.733 79.0509 120.369C79.3653 120.172 79.6256 119.927 79.7976 119.646Z" fill="black"/>
<path fill-rule="evenodd" clip-rule="evenodd" d="M76.8159 119.058C77.5253 119.058 78.1371 119.714 78.1371 120.572H78.5146C78.5146 119.548 77.7744 118.68 76.8159 118.68C75.8574 118.68 75.1171 119.548 75.1171 120.572H75.4946C75.4946 119.714 76.1064 119.058 76.8159 119.058Z" fill="black"/>
<path d="M78.8922 169.772L60.3942 179.043L58.5067 178.089L37.555 167.507L36.0449 166.744V141.959L54.5428 132.688L78.8922 145.364V169.772Z" fill="#837477"/>
<path d="M78.5 170L60.5 179V154.5L78.5 145.5V170Z" fill="#948689"/>
<path fill-rule="evenodd" clip-rule="evenodd" d="M54.5457 132.469L79.0822 145.243V169.882L60.3952 179.248L35.8574 166.855V141.835L54.5457 132.469ZM36.2349 142.261V166.622L60.2067 178.729V154.555L36.2349 142.261ZM60.5842 154.558V178.73L78.7047 169.648V145.661L60.5842 154.558ZM78.4744 145.353L60.3973 154.228L36.4644 141.954L54.5425 132.893L78.4744 145.353ZM37.3675 145.053L58.6967 155.647V176.127L37.3675 165.341V145.053ZM37.745 145.663V151.674L58.3192 162.079V155.882L37.745 145.663ZM58.3192 162.503L37.745 152.098V158.107L58.3192 168.512V162.503ZM58.3192 168.936L37.745 158.531V165.108L58.3192 175.513V168.936ZM53.7058 155.934L42.1918 150.258L42.3584 149.918L53.8724 155.594L53.7058 155.934ZM53.7058 161.988L42.1918 156.312L42.3584 155.973L53.8724 161.649L53.7058 161.988ZM53.7058 168.421L42.1918 162.745L42.3584 162.406L53.8724 168.082L53.7058 168.421Z" fill="black"/>
<path d="M68.2742 131.516L52.9986 123.868C52.9022 123.82 52.7898 123.815 52.6897 123.855L52.319 124.004C52.1017 124.091 52.0151 124.353 52.1374 124.553L65.5574 146.482C65.6337 146.606 65.7749 146.676 65.92 146.66L66.3298 146.615C66.5035 146.597 66.6416 146.461 66.6636 146.287L68.4801 131.902C68.5002 131.743 68.4177 131.588 68.2742 131.516Z" fill="#8B8FA5"/>
<path fill-rule="evenodd" clip-rule="evenodd" d="M52.619 123.681C52.7691 123.621 52.9377 123.628 53.0824 123.7L68.3579 131.349C68.5731 131.456 68.6969 131.688 68.6667 131.928L66.8502 146.312C66.8173 146.573 66.6102 146.777 66.3496 146.805L65.9397 146.85C65.7221 146.874 65.5103 146.769 65.3959 146.582L51.9759 124.654C51.7924 124.354 51.9224 123.961 52.2483 123.83L52.619 123.681ZM52.9137 124.039C52.8655 124.015 52.8093 124.013 52.7592 124.033L52.3885 124.181C52.2798 124.225 52.2365 124.356 52.2977 124.456L65.7177 146.385C65.7558 146.447 65.8264 146.482 65.8989 146.474L66.3088 146.429C66.3957 146.42 66.4647 146.352 66.4757 146.265L68.2922 131.88C68.3022 131.8 68.261 131.723 68.1893 131.687L52.9137 124.039Z" fill="black"/>
<path d="M52.1833 124.22L67.517 131.897C67.6604 131.969 67.743 132.124 67.7228 132.283L66.2751 143.748L65.9348 146.443C65.9024 146.699 65.6287 146.848 65.3963 146.736L59.8288 144.046L57.7255 145.338C57.507 145.472 57.2354 145.486 57.0042 145.375L53.3249 143.605C53.0467 143.471 53.0375 143.077 53.3093 142.93L55.2987 141.857L49.8835 139.24C49.736 139.169 49.6511 139.01 49.6735 138.848L50.1032 135.715L51.6406 124.507C51.6758 124.25 51.9521 124.104 52.1833 124.22Z" fill="#8B8FA5"/>
<path d="M66 143.5L50 135.5L52 124L67.5 132L66 143.5Z" fill="#BEDDF9"/>
<path fill-rule="evenodd" clip-rule="evenodd" d="M51.4549 124.475C51.5077 124.09 51.9221 123.871 52.2689 124.045L67.6026 131.722C67.8178 131.83 67.9416 132.062 67.9114 132.301L66.1233 146.46C66.0747 146.845 65.6641 147.069 65.3156 146.9L59.8409 144.255L57.8255 145.493C57.5522 145.661 57.2127 145.679 56.9238 145.54L53.2445 143.769C52.8271 143.569 52.8134 142.978 53.221 142.758L54.8845 141.86L49.8028 139.405C49.5815 139.298 49.4543 139.06 49.4877 138.816L51.4549 124.475ZM55.3047 142.063L53.4 143.091C53.2642 143.164 53.2687 143.361 53.4078 143.428L57.0872 145.199C57.2605 145.282 57.4642 145.272 57.6282 145.171L59.4365 144.06L55.3047 142.063ZM52.1002 124.383C51.9846 124.325 51.8465 124.398 51.8289 124.527L50.31 135.6L66.1224 143.454L67.5368 132.254C67.5469 132.174 67.5056 132.096 67.4339 132.061L52.1002 124.383ZM66.0722 143.852L50.2557 135.995L49.8617 138.867C49.8506 138.949 49.893 139.028 49.9667 139.064L65.4796 146.56C65.5957 146.616 65.7326 146.541 65.7488 146.413L66.0722 143.852Z" fill="black"/>
<path d="M152.878 157.461L134.381 166.732L132.493 165.779L111.541 155.197L110.031 154.434V137.216L119.28 132.581L128.529 127.945L152.878 140.622V157.461Z" fill="#E7C89E"/>
<path fill-rule="evenodd" clip-rule="evenodd" d="M128.532 127.734L153.068 140.509V157.58L134.381 166.945L109.844 154.552V137.101L128.532 127.734ZM128.529 128.159L110.451 137.22L134.384 149.494L152.461 140.619L128.529 128.159ZM152.691 140.927L134.571 149.823V166.428L152.691 157.346V140.927ZM134.193 166.427V149.821L110.221 137.527V154.319L134.193 166.427Z" fill="black"/>
<path fill-rule="evenodd" clip-rule="evenodd" d="M122.867 143.927L137.364 136.569L136.682 135.219L121.357 142.997V150.463H122.867V143.927Z" fill="#F0512D"/>
<path d="M152.878 141.196L134.38 150.467L132.493 149.513L111.541 138.931L110.031 138.168V120.951L119.28 116.315L128.529 111.68L152.878 124.356V141.196Z" fill="#E7C89E"/>
<path fill-rule="evenodd" clip-rule="evenodd" d="M128.532 111.469L153.068 124.243V141.314L134.381 150.68L109.844 138.286V120.835L128.532 111.469ZM128.529 111.893L110.451 120.954L134.384 133.228L152.461 124.353L128.529 111.893ZM152.691 124.661L134.571 133.558V150.162L152.691 141.08V124.661ZM134.193 150.161V133.555L110.221 121.261V138.053L134.193 150.161Z" fill="black"/>
<path fill-rule="evenodd" clip-rule="evenodd" d="M122.869 127.674L141.13 118.799L140.472 117.438L121.359 126.726V134.201H122.869V127.674Z" fill="#F0512D"/>
<path d="M177.038 169.954L158.54 179.225L156.653 178.271L135.701 167.689L134.191 166.926V149.709L143.44 145.073L152.689 140.438L177.038 153.114V169.954Z" fill="#E7C89E"/>
<path fill-rule="evenodd" clip-rule="evenodd" d="M152.692 140.227L177.228 153.001V170.072L158.541 179.438L134.003 167.044V149.593L152.692 140.227ZM152.688 140.651L134.61 149.712L158.543 161.986L176.62 153.111L152.688 140.651ZM176.851 153.419L158.73 162.316V178.92L176.851 169.838V153.419ZM158.353 178.919V162.313L134.381 150.019V166.811L158.353 178.919Z" fill="black"/>
<path fill-rule="evenodd" clip-rule="evenodd" d="M147.027 156.419L161.524 149.061L160.842 147.711L145.517 155.489V162.955H147.027V156.419Z" fill="#F0512D"/>
<path d="M177.038 153.68L158.54 162.951L156.652 161.998L135.7 151.415L134.19 150.653V133.435L143.439 128.8L152.688 124.164L177.038 136.841V153.68Z" fill="#E7C89E"/>
<path fill-rule="evenodd" clip-rule="evenodd" d="M152.691 123.953L177.228 136.727V153.798L158.541 163.164L134.003 150.771V133.32L152.691 123.953ZM152.688 124.378L134.61 133.438L158.543 145.712L176.62 136.837L152.688 124.378ZM176.85 137.146L158.73 146.042V162.646L176.85 153.565V137.146ZM158.352 162.645V146.04L134.38 133.746V150.538L158.352 162.645Z" fill="black"/>
<path fill-rule="evenodd" clip-rule="evenodd" d="M147.026 140.138L164.74 130.889L164.043 129.547L145.516 139.219V146.679H147.026V140.138Z" fill="#F0512D"/>
<path d="M73.705 179.758L75.679 180.744L77.5666 179.791L98.5183 169.208L99.613 168.655C99.8677 168.527 100.028 168.265 100.028 167.98V151.228L97.352 149.892C97.136 149.784 96.8816 149.786 96.6674 149.898L73.6765 161.867C73.3477 162.038 73.0833 162.299 72.9065 162.61C72.7471 162.89 72.6589 163.212 72.6589 163.546V178.065C72.6589 178.783 73.0641 179.439 73.705 179.758Z" fill="#37AFB7"/>
<path fill-rule="evenodd" clip-rule="evenodd" d="M97.4369 149.724C97.1669 149.589 96.8488 149.592 96.5811 149.731L73.5902 161.701C73.2285 161.889 72.9376 162.176 72.7432 162.518C72.5679 162.826 72.4709 163.18 72.4709 163.548V178.067C72.4709 178.856 72.9165 179.578 73.6215 179.93L75.6802 180.957L99.6987 168.826C100.017 168.665 100.218 168.339 100.218 167.981V151.113L97.4369 149.724ZM96.7551 150.067C96.9157 149.984 97.1066 149.982 97.2686 150.063L99.6102 151.232L75.67 163.51L73.1919 162.521C73.3417 162.323 73.5356 162.156 73.7642 162.037L96.7551 150.067ZM72.9973 162.851L75.491 163.846V180.44L73.7898 179.591C73.213 179.303 72.8484 178.713 72.8484 178.067V163.548C72.8484 163.303 72.9007 163.066 72.9973 162.851ZM75.8685 180.439V163.833L99.8403 151.539V167.981C99.8403 168.196 99.7198 168.392 99.5288 168.488L75.8685 180.439Z" fill="black"/>
<path fill-rule="evenodd" clip-rule="evenodd" d="M105.126 193.992H103.616V197.019C103.616 197.437 103.954 197.776 104.371 197.776C104.788 197.776 105.126 197.437 105.126 197.019V193.992Z" fill="white"/>
<path fill-rule="evenodd" clip-rule="evenodd" d="M103.425 193.797H105.312V197.013C105.312 197.536 104.89 197.959 104.369 197.959C103.847 197.959 103.425 197.536 103.425 197.013V193.797ZM103.802 194.175V197.013C103.802 197.327 104.056 197.581 104.369 197.581C104.681 197.581 104.935 197.327 104.935 197.013V194.175H103.802Z" fill="black"/>
<path fill-rule="evenodd" clip-rule="evenodd" d="M76.4344 179.984H74.9243V183.012C74.9243 183.43 75.2623 183.768 75.6793 183.768C76.0963 183.768 76.4344 183.43 76.4344 183.012V179.984Z" fill="white"/>
<path fill-rule="evenodd" clip-rule="evenodd" d="M74.7349 179.797H76.6224V183.013C76.6224 183.536 76.1999 183.959 75.6786 183.959C75.1574 183.959 74.7349 183.536 74.7349 183.013V179.797ZM75.1124 180.175V183.013C75.1124 183.327 75.3659 183.581 75.6786 183.581C75.9914 183.581 76.2449 183.327 76.2449 183.013V180.175H75.1124Z" fill="black"/>
<path d="M74.7349 179.86V177.432C74.7349 175.768 75.7227 174.265 77.2471 173.608L93.6103 166.555V149.156C93.6103 147.754 94.3832 146.467 95.6191 145.811L98.3214 144.377C99.3931 143.809 100.672 143.79 101.759 144.329L128.503 157.567C129.791 158.204 130.606 159.52 130.606 160.96V166.365V177.15V183.915C130.606 184.059 130.524 184.191 130.394 184.255L106.796 195.819C105.742 196.336 104.509 196.332 103.458 195.808L76.2015 182.232C75.303 181.785 74.7349 180.866 74.7349 179.86Z" fill="#37AFB7"/>
<path fill-rule="evenodd" clip-rule="evenodd" d="M101.679 144.5C100.646 143.989 99.431 144.006 98.4129 144.546L95.7106 145.98C94.5366 146.603 93.8023 147.826 93.8023 149.157V166.439L122.683 180.767L130.421 177.033V160.961C130.421 160.169 130.161 159.416 129.704 158.805L126.01 160.904C124.886 161.542 124.192 162.737 124.192 164.031V169.962H123.814V164.031C123.814 162.6 124.582 161.28 125.824 160.574L129.458 158.51C129.167 158.197 128.818 157.934 128.422 157.738L101.679 144.5ZM130.421 177.453L107.347 188.589C106.105 189.188 105.316 190.447 105.316 191.828V196.012C105.796 195.988 106.273 195.868 106.716 195.651L130.315 184.086C130.38 184.054 130.421 183.989 130.421 183.916V177.453ZM104.939 196.01V191.828C104.939 190.302 105.811 188.91 107.183 188.248L122.251 180.976L93.6079 166.765L77.3248 173.783C75.8697 174.41 74.9268 175.846 74.9268 177.433V179.862C74.9268 180.796 75.4544 181.649 76.2887 182.065L103.545 195.641C103.986 195.86 104.46 195.983 104.939 196.01ZM93.4247 166.432V149.157C93.4247 147.686 94.2363 146.334 95.534 145.646L98.2363 144.212C99.3616 143.615 100.704 143.596 101.846 144.161L128.589 157.399C129.942 158.068 130.798 159.449 130.798 160.961V183.916C130.798 184.133 130.675 184.331 130.481 184.426L106.882 195.991C105.775 196.533 104.48 196.529 103.377 195.979L76.1207 182.404C75.1581 181.924 74.5493 180.939 74.5493 179.862V177.433C74.5493 175.694 75.582 174.122 77.1757 173.436L93.4247 166.432Z" fill="black"/>
<path d="M107.304 196.401L108.431 196.964C108.964 197.23 109.591 197.229 110.122 196.96L111.165 196.434L132.117 185.851L132.589 185.613C133.225 185.291 133.627 184.638 133.627 183.923V167.871L131.466 166.792C130.926 166.523 130.29 166.528 129.755 166.807L106.258 179.04V194.708C106.258 195.425 106.663 196.081 107.304 196.401Z" fill="#37AFB7"/>
<path fill-rule="evenodd" clip-rule="evenodd" d="M131.551 166.625C130.957 166.328 130.257 166.334 129.669 166.641L106.07 178.927V194.709C106.07 195.499 106.515 196.22 107.22 196.572L108.348 197.135C108.934 197.428 109.623 197.426 110.208 197.131L132.674 185.784C133.375 185.43 133.816 184.711 133.816 183.925V167.755L131.551 166.625ZM129.843 166.976C130.324 166.725 130.897 166.721 131.383 166.963L133.209 167.875L109.987 179.784C109.534 180.016 109.002 180.033 108.535 179.829L106.697 179.027L129.843 166.976ZM106.447 179.33L108.384 180.176C108.954 180.425 109.606 180.405 110.159 180.121L133.439 168.182V183.925C133.439 184.568 133.077 185.156 132.505 185.446L110.038 196.793C109.56 197.035 108.996 197.036 108.516 196.797L107.388 196.234C106.812 195.946 106.447 195.355 106.447 194.709V179.33Z" fill="black"/>
<path d="M176.855 163.522L195.353 172.794L197.24 171.84L218.192 161.258L219.702 160.495V128.52V124.357L201.204 115.086L176.855 127.763V163.522Z" fill="#ECECEC"/>
<path fill-rule="evenodd" clip-rule="evenodd" d="M201.199 114.875L176.663 127.649V163.641L195.35 173.007L219.888 160.613V124.241L201.199 114.875ZM219.51 124.668V128.404L213.247 131.568V127.88L219.51 124.668ZM212.869 128.073V131.758L195.538 140.512V136.962L212.869 128.073ZM195.161 136.964V172.489L177.04 163.407V128.067L195.161 136.964ZM177.271 127.759L195.348 136.634L219.281 124.36L201.203 115.3L177.271 127.759ZM195.538 172.488V140.936L219.51 128.828V160.38L195.538 172.488Z" fill="black"/>
<path fill-rule="evenodd" clip-rule="evenodd" d="M189.877 165.603V142.898H190.255V165.603H189.877Z" fill="black"/>
<path fill-rule="evenodd" clip-rule="evenodd" d="M185.726 162.392V139.688H186.104V162.392H185.726Z" fill="black"/>
<path fill-rule="evenodd" clip-rule="evenodd" d="M181.57 160.119V137.414H181.948V160.119H181.57Z" fill="black"/>
<path d="M199.207 159.202C199.671 165.567 203.94 167.329 208.741 163.138C213.543 158.947 217.059 150.39 216.595 144.025C216.131 137.66 211.862 135.898 207.061 140.089C202.259 144.28 198.743 152.837 199.207 159.202Z" fill="white"/>
<path fill-rule="evenodd" clip-rule="evenodd" d="M207.074 140.278C211.797 136.155 215.996 137.889 216.452 144.15C216.908 150.41 213.45 158.828 208.727 162.95C204.004 167.073 199.805 165.339 199.349 159.078C198.892 152.817 202.351 144.4 207.074 140.278ZM216.737 143.901C216.265 137.432 211.927 135.641 207.047 139.9C202.166 144.16 198.593 152.858 199.064 159.327C199.536 165.796 203.874 167.587 208.754 163.328C213.634 159.068 217.208 150.37 216.737 143.901Z" fill="black"/>
<path d="M216.945 128.231C216.99 128.839 217.398 129.007 217.856 128.607C218.315 128.206 218.651 127.389 218.607 126.781C218.562 126.173 218.154 126.004 217.696 126.405C217.237 126.805 216.901 127.623 216.945 128.231Z" fill="white"/>
<path fill-rule="evenodd" clip-rule="evenodd" d="M217.709 126.594C218.089 126.262 218.427 126.402 218.464 126.905C218.5 127.409 218.222 128.087 217.842 128.419C217.462 128.75 217.124 128.611 217.087 128.107C217.05 127.603 217.329 126.926 217.709 126.594ZM218.748 126.657C218.696 125.945 218.219 125.747 217.681 126.216C217.144 126.685 216.751 127.643 216.802 128.355C216.854 129.068 217.332 129.265 217.869 128.796C218.407 128.327 218.8 127.369 218.748 126.657Z" fill="black"/>
<path d="M213.924 129.746C213.969 130.354 214.377 130.523 214.835 130.122C215.294 129.722 215.63 128.904 215.586 128.296C215.541 127.688 215.134 127.52 214.675 127.92C214.216 128.321 213.88 129.138 213.924 129.746Z" fill="white"/>
<path fill-rule="evenodd" clip-rule="evenodd" d="M214.687 128.109C215.067 127.778 215.405 127.917 215.442 128.421C215.479 128.925 215.2 129.602 214.82 129.934C214.44 130.266 214.102 130.126 214.066 129.623C214.029 129.119 214.307 128.441 214.687 128.109ZM215.727 128.173C215.675 127.46 215.197 127.263 214.66 127.732C214.123 128.201 213.729 129.159 213.781 129.871C213.833 130.583 214.311 130.781 214.848 130.312C215.385 129.843 215.779 128.885 215.727 128.173Z" fill="black"/>
<path d="M199.946 158.556C200.371 164.38 204.276 165.992 208.67 162.158C213.063 158.323 216.28 150.493 215.856 144.67C215.431 138.846 211.526 137.234 207.132 141.068C202.739 144.903 199.522 152.732 199.946 158.556Z" fill="#BEDDF9"/>
<path fill-rule="evenodd" clip-rule="evenodd" d="M207.147 141.257C211.461 137.491 215.297 139.075 215.714 144.794C216.131 150.514 212.971 158.203 208.657 161.969C204.342 165.735 200.506 164.152 200.09 158.432C199.673 152.713 202.832 145.023 207.147 141.257ZM215.999 144.546C215.567 138.618 211.591 136.977 207.119 140.88C202.648 144.783 199.373 152.753 199.805 158.681C200.237 164.609 204.212 166.25 208.684 162.347C213.156 158.444 216.431 150.474 215.999 144.546Z" fill="black"/>
<path fill-rule="evenodd" clip-rule="evenodd" d="M205.18 161.19L212.352 141.891L212.706 142.023L205.533 161.322L205.18 161.19ZM204.236 155.134L208.389 144.16L208.742 144.294L204.589 155.268L204.236 155.134Z" fill="black"/>
<path d="M128.534 200.42L129.477 200.987L179.309 176.39V144.036L178.365 143.469L128.534 168.444V200.42Z" fill="#333333"/>
<path d="M179.5 144L129.5 168.836V201L179.5 176.5V144Z" fill="#7A7A7A"/>
<path fill-rule="evenodd" clip-rule="evenodd" d="M178.372 143.25L128.344 168.324V200.524L129.467 201.199L179.496 176.505V143.926L178.372 143.25ZM178.355 143.681L178.914 144.018L129.287 168.702V200.65L128.721 200.309V168.558L178.355 143.681ZM129.665 200.68V168.937L179.119 144.338V176.27L129.665 200.68Z" fill="black"/>
<path fill-rule="evenodd" clip-rule="evenodd" d="M163.08 187.388C163.048 187.37 163.011 187.361 162.975 187.363L156.669 187.735L156.647 187.357L162.953 186.985C163.062 186.979 163.171 187.005 163.267 187.059L163.531 187.21C164 187.479 163.863 188.19 163.329 188.265L155.168 189.411C155.11 189.419 155.06 189.453 155.031 189.503L152.469 193.954C152.319 194.214 151.993 194.312 151.725 194.178L151.255 193.942C150.971 193.8 150.859 193.453 151.006 193.172L153.093 189.161L153.428 189.336L151.34 193.347C151.292 193.441 151.329 193.556 151.423 193.604L151.894 193.84C151.984 193.884 152.092 193.852 152.142 193.765L154.704 189.314C154.791 189.163 154.943 189.06 155.116 189.036L163.276 187.891C163.454 187.866 163.5 187.629 163.344 187.539L163.08 187.388Z" fill="black"/>
</svg>
