<svg width="232" height="216" viewBox="0 0 232 216" fill="none" xmlns="http://www.w3.org/2000/svg">
<rect width="232" height="216" rx="16" fill="white"/>
<path d="M15.96 30V28.528C15.96 24.576 23.288 25.072 23.288 22.144C23.288 20.96 22.392 20.368 20.776 20.368C19.096 20.368 18.264 21.072 18.264 22.4V22.784H16.28V22.4C16.28 19.952 17.96 18.64 20.776 18.64C23.576 18.64 25.272 19.92 25.272 22.144C25.272 26.24 18.136 26.192 18.136 28.272H25.304V30H15.96ZM32.7413 30V27.504H26.1813V25.776L32.1013 18.8H34.7253V25.776H36.2293V27.504H34.7253V30H32.7413ZM32.7413 20.768H32.6773L28.4693 25.728V25.776H32.7413V20.768ZM46.3206 23.696H44.0166V30H42.2246V23.696H40.8806V22.688L42.2246 22.16V21.776C42.2246 19.632 43.5206 18.64 45.6166 18.64C46.6406 18.64 47.3286 19.072 47.3286 19.072V20.704C47.3286 20.704 46.8486 20.272 45.9206 20.272C44.8006 20.272 44.0166 20.752 44.0166 21.952V22.16H46.3206V23.696ZM48.5398 27.072V23.696H47.2438V22.56L49.1638 20.4H50.3318V22.16H53.0678V23.696H50.3318V26.832C50.3318 28.176 51.1158 28.528 52.0278 28.528C52.8438 28.528 53.3078 28.192 53.3078 28.192V29.856C53.3078 29.856 52.7158 30.16 51.7878 30.16C49.7718 30.16 48.5398 29.216 48.5398 27.072ZM54.355 23.28V22.272C54.355 19.504 58.259 20.624 58.259 19.072C58.259 18.64 57.939 18.32 57.187 18.32C56.403 18.32 56.099 18.72 56.099 19.168V19.312H54.563V19.168C54.563 17.856 55.475 17.04 57.187 17.04C58.899 17.04 59.795 17.872 59.795 18.992C59.795 21.584 55.907 21.024 55.907 22H59.747V23.28H54.355Z" fill="black"/>
<path d="M21.432 39.796C21.432 39.796 21.084 38.224 19.284 38.224C17.436 38.224 16.692 39.892 16.692 41.872H16.716C16.716 41.872 17.304 40.504 19.416 40.504C21.204 40.504 22.572 41.632 22.572 43.312C22.572 45.052 21.264 46.12 19.32 46.12C17.076 46.12 15.9 44.56 15.9 42.232V41.812C15.9 39.484 16.98 37.48 19.284 37.48C21.6 37.48 22.272 39.424 22.272 39.796H21.432ZM19.32 45.376C20.76 45.376 21.756 44.596 21.756 43.312C21.756 42.028 20.712 41.248 19.32 41.248C18 41.248 16.932 42.076 16.932 43.312C16.932 44.548 17.94 45.376 19.32 45.376ZM28.0327 41.416L26.5447 42.904L28.0327 44.392L27.5407 44.884L26.0527 43.396L24.5647 44.884L24.0727 44.392L25.5607 42.904L24.0727 41.416L24.5647 40.924L26.0527 42.412L27.5407 40.924L28.0327 41.416ZM34.0649 46V43.9H28.9289V43.144L33.7889 37.6H34.8569V43.18H36.0329V43.9H34.8569V46H34.0649ZM29.8649 43.18H34.0649V38.416H34.0409L29.8649 43.144V43.18ZM41.017 41.416L39.529 42.904L41.017 44.392L40.525 44.884L39.037 43.396L37.549 44.884L37.057 44.392L38.545 42.904L37.057 41.416L37.549 40.924L39.037 42.412L40.525 40.924L41.017 41.416ZM45.8973 46.12C43.9053 46.12 42.5133 45.208 42.5133 43.684C42.5133 41.944 44.3853 41.608 44.3853 41.608V41.572C44.3853 41.572 42.7773 41.284 42.7773 39.748C42.7773 38.344 44.0253 37.48 45.8973 37.48C47.7693 37.48 49.0173 38.344 49.0173 39.748C49.0173 41.284 47.4093 41.572 47.4093 41.572V41.608C47.4093 41.608 49.2813 41.944 49.2813 43.684C49.2813 45.208 47.8893 46.12 45.8973 46.12ZM45.8973 45.376C47.4333 45.376 48.4653 44.8 48.4653 43.684C48.4653 42.568 47.4093 41.992 45.8973 41.992C44.3853 41.992 43.3293 42.568 43.3293 43.684C43.3293 44.8 44.3613 45.376 45.8973 45.376ZM45.8973 41.248C47.3133 41.248 48.2013 40.648 48.2013 39.748C48.2013 38.812 47.3133 38.224 45.8973 38.224C44.4813 38.224 43.5933 38.812 43.5933 39.748C43.5933 40.648 44.4813 41.248 45.8973 41.248ZM55.1265 39.82V40.12H57.0345V40.816H55.1265V46H54.3825V40.816H53.3625V40.12H54.3825V39.76C54.3825 38.14 55.2825 37.48 56.4225 37.48C57.1905 37.48 57.6225 37.744 57.6225 37.744V38.464C57.6225 38.464 57.2265 38.176 56.4825 38.176C55.7025 38.176 55.1265 38.584 55.1265 39.82ZM58.7067 43.9V40.816H57.6867V40.12H58.7067V38.8H59.4507V40.12H61.7067V40.816H59.4507V43.816C59.4507 45.004 60.0267 45.424 60.8067 45.424C61.5507 45.424 61.9467 45.136 61.9467 45.136V45.844C61.9467 45.844 61.5147 46.12 60.7467 46.12C59.6067 46.12 58.7067 45.46 58.7067 43.9Z" fill="black"/>
<path fill-rule="evenodd" clip-rule="evenodd" d="M100.005 121.246L207 175.194L206.772 175.65L99.7509 121.688L25.2258 158.833L25 158.377L99.4977 121.245V47H100.005V121.246Z" fill="black"/>
<path d="M127.929 140.265L103.049 152.751L100.51 151.467L72.3303 137.216L70.2993 136.188V113.001L82.7391 106.758L95.1789 100.516L127.929 117.588V140.265Z" fill="#E7C89E"/>
<path fill-rule="evenodd" clip-rule="evenodd" d="M95.1835 100.227L128.185 117.43V140.42L103.051 153.033L70.0479 136.342V112.841L95.1835 100.227ZM95.1791 100.799L70.8642 113.001L103.054 129.53L127.367 117.578L95.1791 100.799ZM127.677 117.993L103.305 129.974V152.335L127.677 140.105V117.993ZM102.797 152.334V129.971L70.5556 113.415V136.028L102.797 152.334Z" fill="black"/>
<path fill-rule="evenodd" clip-rule="evenodd" d="M87.5659 122.04L105.781 113.146L104.893 111.312L85.5349 120.764V125.734H87.5659V122.04Z" fill="#F0512D"/>
<path d="M160.426 157.078L135.547 169.563L133.008 168.279L104.828 154.028L102.797 153.001V129.814L115.237 123.571L127.676 117.328L160.426 134.4V157.078Z" fill="#E7C89E"/>
<path fill-rule="evenodd" clip-rule="evenodd" d="M127.681 117.039L160.682 134.242V157.232L135.548 169.845L102.545 153.155V129.653L127.681 117.039ZM127.677 117.611L103.362 129.813L135.551 146.343L159.865 134.39L127.677 117.611ZM160.175 134.806L135.803 146.787V169.148L160.175 156.917V134.806ZM135.295 169.147V146.784L103.053 130.227V152.841L135.295 169.147Z" fill="black"/>
<path fill-rule="evenodd" clip-rule="evenodd" d="M120.061 138.845L139.561 128.936L138.643 127.117L118.03 137.592V142.55H120.061V138.845Z" fill="#F0512D"/>
<path d="M99.7516 88.2812L165.251 121.151V122.68L132.755 138.988L67.2559 106.372V104.589L99.7516 88.2812Z" fill="#837477"/>
<path fill-rule="evenodd" clip-rule="evenodd" d="M99.7516 87.9922L165.505 120.99V154.017H164.997V123.088L133.009 139.141V170.325H132.501V139.141L67.5097 106.779V137.964H67.002V104.427L99.7516 87.9922ZM67.5097 106.21L132.501 138.573V137.358L67.5097 104.996V106.21ZM67.8253 104.584L132.756 136.916L164.68 121.145L99.7516 88.562L67.8253 104.584ZM164.997 121.556L133.009 137.358V138.571L164.997 122.518V121.556Z" fill="black"/>
<path d="M198 170.833L173.121 183.318L170.582 182.034L142.402 167.783L140.371 166.756V133.376L165.251 120.891L198 137.963V170.833Z" fill="#837477"/>
<path d="M198 171L173.5 183.5L173 150.5L198 138V171Z" fill="#9B8F92"/>
<path fill-rule="evenodd" clip-rule="evenodd" d="M165.255 120.609L198.257 137.813V170.995L173.123 183.608L140.12 166.917V133.223L165.255 120.609ZM140.627 133.797V166.603L172.869 182.909V150.354L140.627 133.797ZM173.377 150.357V182.911L197.749 170.68V138.376L173.377 150.357ZM197.439 137.961L173.126 149.913L140.936 133.383L165.251 121.181L197.439 137.961ZM142.151 137.557L170.838 151.824V179.405L142.151 164.879V137.557ZM142.658 138.378V146.474L170.331 160.486V152.14L142.658 138.378ZM170.331 161.057L142.658 147.045V155.137L170.331 169.149V161.057ZM170.331 169.72L142.658 155.708V164.565L170.331 178.577V169.72ZM164.126 152.21L148.639 144.566L148.863 144.109L164.35 151.753L164.126 152.21ZM164.126 160.364L148.639 152.72L148.863 152.263L164.35 159.907L164.126 160.364ZM164.126 169.028L148.639 161.383L148.863 160.926L164.35 168.57L164.126 169.028Z" fill="black"/>
<path d="M85.543 85.9867V103.059L90.6693 105.66L110.169 115.554L127.178 106.881V89.8088L102.299 77.5781L85.543 85.9867Z" fill="#A4A5AB"/>
<path d="M109.5 100L91.9995 91V104.5L109.5 113.5V100Z" fill="#BDBCBC"/>
<path fill-rule="evenodd" clip-rule="evenodd" d="M102.295 77.2891L85.2868 85.8245V103.211L110.167 115.835L127.43 107.032V89.6451L102.295 77.2891ZM126.922 90.2138V106.72L110.42 115.134V98.381L126.922 90.2138ZM109.912 98.3807V115.135L90.9207 105.498V88.9405L109.912 98.3807ZM90.413 88.6882V105.241L85.7945 102.897V86.3925L90.413 88.6882ZM86.1105 85.9809L110.167 97.9383L126.6 89.8048L102.297 77.8577L86.1105 85.9809ZM86.0484 87.8629V90.9807L90.1103 93.0192V89.9014L86.0484 87.8629ZM89.6026 90.2163V92.1946L86.5561 90.6658V88.6875L89.6026 90.2163ZM91.3797 90.9233V104.23L109.405 113.406V99.8378L91.3797 90.9233ZM108.897 100.155V112.576L91.8875 103.917V91.7425L108.897 100.155Z" fill="black"/>
<path d="M86.8108 99.9281C86.8108 100.913 87.2655 102.036 87.8263 102.036C88.3871 102.036 88.8418 101.562 88.8418 100.577C88.8418 99.5916 88.3871 98.4688 87.8263 98.4688C87.2655 98.4688 86.8108 98.943 86.8108 99.9281Z" fill="white"/>
<path fill-rule="evenodd" clip-rule="evenodd" d="M88.313 99.264C88.4808 99.6328 88.5875 100.123 88.5875 100.581C88.5875 101.038 88.4818 101.342 88.3421 101.526C88.2071 101.704 88.0283 101.786 87.8258 101.786C87.775 101.786 87.7019 101.761 87.6091 101.669C87.5165 101.577 87.4227 101.435 87.3387 101.25C87.1709 100.882 87.0642 100.391 87.0642 99.9329C87.0642 99.4765 87.1699 99.1722 87.3096 98.9884C87.4446 98.8108 87.6234 98.7284 87.8258 98.7284C87.8767 98.7284 87.9498 98.7534 88.0426 98.8455C88.1352 98.9375 88.229 99.0794 88.313 99.264ZM88.3997 98.4833C88.2495 98.3341 88.0554 98.2188 87.8258 98.2188C87.4675 98.2188 87.1385 98.3734 86.906 98.6792C86.6782 98.9788 86.5565 99.4042 86.5565 99.9329C86.5565 100.46 86.6772 101.023 86.8769 101.462C86.9766 101.681 87.1016 101.882 87.252 102.031C87.4022 102.18 87.5963 102.296 87.8258 102.296C88.1842 102.296 88.5132 102.141 88.7457 101.835C88.9735 101.536 89.0952 101.11 89.0952 100.581C89.0952 100.054 88.9745 99.4911 88.7748 99.0523C88.6751 98.833 88.5501 98.6326 88.3997 98.4833Z" fill="black"/>
<path d="M63.5714 122.596V148.588C63.5714 150.51 62.4938 152.269 60.7847 153.136L58.4451 154.323L49.0531 159.014C48.3485 159.365 47.5825 159.543 46.8157 159.547C46.0473 159.551 45.278 159.38 44.5688 159.033L40.7852 157.184C39.0386 156.331 37.9302 154.552 37.9302 152.602V126.644C37.9302 124.68 39.0551 122.89 40.8215 122.045L52.7683 116.325C54.1427 115.667 55.7387 115.662 57.1164 116.313L60.6559 117.985C62.4355 118.825 63.5714 120.622 63.5714 122.596Z" fill="#F1A347"/>
<path fill-rule="evenodd" clip-rule="evenodd" d="M52.6614 116.099C54.1045 115.409 55.7803 115.404 57.2269 116.087L60.7664 117.759C62.635 118.642 63.8276 120.528 63.8276 122.601V148.593C63.8276 150.611 62.6962 152.458 60.9017 153.368L58.5621 154.556L58.5606 154.556L49.1686 159.247C48.4288 159.616 47.6245 159.803 46.8194 159.807C46.0125 159.811 45.2047 159.631 44.4601 159.267L40.6765 157.418C38.8425 156.522 37.6787 154.654 37.6787 152.607V126.649C37.6787 124.586 38.8598 122.708 40.7146 121.819L52.6614 116.099ZM57.0107 116.549C55.7019 115.93 54.1857 115.934 52.8801 116.559L40.9332 122.279C39.2551 123.083 38.1865 124.783 38.1865 126.649V152.607C38.1865 154.459 39.2394 156.149 40.8987 156.96L44.6824 158.809C45.2783 159.1 45.919 159.261 46.5643 159.292V130.716C46.5643 128.664 47.7333 126.793 49.5735 125.899L62.353 119.693C61.8895 119.074 61.2762 118.563 60.5502 118.22L57.0107 116.549ZM62.6387 120.12L49.7946 126.358C48.1297 127.167 47.072 128.86 47.072 130.716V159.289C47.7145 159.252 48.3512 159.086 48.9424 158.79L58.333 154.101L58.3345 154.1L60.6726 152.914C62.2962 152.09 63.3199 150.419 63.3199 148.593V122.601C63.3199 121.709 63.0761 120.856 62.6387 120.12Z" fill="black"/>
<path fill-rule="evenodd" clip-rule="evenodd" d="M60.7745 118.065L60.1146 118.396L59.8875 117.941L60.5474 117.609L60.7745 118.065ZM59.6746 118.617L58.3548 119.279L58.1277 118.824L59.4475 118.161L59.6746 118.617ZM57.9148 119.5L56.595 120.163L56.3679 119.707L57.6878 119.044L57.9148 119.5ZM56.1551 120.383L54.8352 121.046L54.6082 120.59L55.928 119.928L56.1551 120.383ZM54.3953 121.266L53.0755 121.929L52.8484 121.473L54.1682 120.811L54.3953 121.266ZM52.6355 122.15L51.3157 122.812L51.0886 122.356L52.4084 121.694L52.6355 122.15ZM50.8757 123.033L49.5559 123.695L49.3288 123.239L50.6487 122.577L50.8757 123.033ZM49.116 123.916L48.456 124.247C48.2423 124.354 48.0359 124.472 47.8372 124.599L47.5644 124.169C47.7778 124.033 47.9995 123.906 48.229 123.791L48.8889 123.46L49.116 123.916ZM47.4463 124.868C47.0619 125.153 46.7111 125.476 46.3979 125.83L46.0183 125.492C46.3547 125.112 46.7316 124.765 47.1445 124.459L47.4463 124.868ZM46.0954 126.197C45.8054 126.574 45.555 126.98 45.3486 127.409L44.8914 127.188C45.1131 126.727 45.3819 126.29 45.6934 125.885L46.0954 126.197ZM45.1572 127.845C44.982 128.284 44.8513 128.744 44.769 129.216L44.2689 129.128C44.3572 128.621 44.4976 128.127 44.6859 127.656L45.1572 127.845ZM44.7037 129.688C44.6793 129.923 44.6669 130.161 44.6669 130.4V131.163H44.1592V130.4C44.1592 130.143 44.1725 129.888 44.1987 129.635L44.7037 129.688ZM44.6669 131.671V133.196H44.1592V131.671H44.6669ZM44.6669 133.704V135.229H44.1592V133.704H44.6669ZM44.6669 135.737V137.262H44.1592V135.737H44.6669ZM44.6669 137.77V139.294H44.1592V137.77H44.6669ZM44.6669 139.803V141.327H44.1592V139.803H44.6669ZM44.6669 141.836V143.36H44.1592V141.836H44.6669ZM44.6669 143.868V145.393H44.1592V143.868H44.6669ZM44.6669 145.901V147.426H44.1592V145.901H44.6669ZM44.6669 147.934V149.459H44.1592V147.934H44.6669ZM44.6669 149.967V151.492H44.1592V149.967H44.6669ZM44.6669 152V153.525H44.1592V152H44.6669ZM44.6669 154.033V155.558H44.1592V154.033H44.6669ZM44.6669 156.066V157.59H44.1592V156.066H44.6669ZM44.6669 158.099V158.861H44.1592V158.099H44.6669Z" fill="black"/>
<path fill-rule="evenodd" clip-rule="evenodd" d="M49.8678 110.297V118.091H49.3601V112.889L44.0287 115.448V120.893H43.521V113.343L49.8678 110.297ZM44.0287 114.883L49.3601 112.324V111.105L44.0287 113.665V114.883Z" fill="black"/>
<path fill-rule="evenodd" clip-rule="evenodd" d="M62.6696 124.944L61.9352 125.298L61.715 124.839L62.4494 124.484L62.6696 124.944ZM61.4456 125.535L59.9768 126.245L59.7565 125.786L61.2254 125.076L61.4456 125.535ZM59.4872 126.481L58.0183 127.191L57.7981 126.732L59.2669 126.022L59.4872 126.481ZM57.5287 127.428L56.0599 128.138L55.8396 127.679L57.3085 126.969L57.5287 127.428ZM55.5703 128.374L54.1014 129.084L53.8812 128.625L55.35 127.915L55.5703 128.374ZM53.6118 129.321L52.143 130.031L51.9227 129.571L53.3916 128.862L53.6118 129.321ZM51.6534 130.267L50.1845 130.977L49.9643 130.518L51.4331 129.808L51.6534 130.267ZM49.6949 131.214L48.9605 131.568L48.7402 131.109L49.4747 130.754L49.6949 131.214Z" fill="black"/>
<path fill-rule="evenodd" clip-rule="evenodd" d="M40.8675 138.931C40.9334 138.648 40.9799 138.27 40.9799 137.711H41.4876C41.4876 138.298 41.4389 138.717 41.362 139.047C41.2846 139.379 41.1806 139.613 41.0835 139.824C41.0783 139.836 41.0731 139.847 41.068 139.858C40.9778 140.054 40.8981 140.227 40.8368 140.463C40.7721 140.712 40.726 141.04 40.726 141.533C40.726 142.027 40.7721 142.354 40.8368 142.603C40.8981 142.839 40.9778 143.012 41.068 143.208C41.0731 143.219 41.0783 143.23 41.0835 143.242C41.1806 143.453 41.2846 143.687 41.362 144.019C41.4389 144.349 41.4876 144.768 41.4876 145.355H40.9799C40.9799 144.796 40.9334 144.418 40.8675 144.135C40.8021 143.854 40.7157 143.658 40.6224 143.455C40.6165 143.442 40.6106 143.43 40.6046 143.417C40.5154 143.223 40.4186 143.013 40.3455 142.732C40.2674 142.431 40.2183 142.059 40.2183 141.533C40.2183 141.007 40.2674 140.635 40.3455 140.334C40.4186 140.053 40.5154 139.843 40.6046 139.649C40.6106 139.636 40.6165 139.624 40.6224 139.611C40.7157 139.408 40.8021 139.212 40.8675 138.931Z" fill="black"/>
<path fill-rule="evenodd" clip-rule="evenodd" d="M42.3934 139.439C42.4593 139.156 42.5058 138.778 42.5058 138.219H43.0135C43.0135 138.806 42.9648 139.224 42.8878 139.555C42.8104 139.887 42.7065 140.121 42.6093 140.332C42.6041 140.343 42.599 140.355 42.5939 140.366C42.5037 140.561 42.424 140.734 42.3627 140.97C42.298 141.219 42.2519 141.547 42.2519 142.041C42.2519 142.534 42.298 142.862 42.3627 143.111C42.424 143.347 42.5037 143.52 42.5939 143.716C42.599 143.727 42.6041 143.738 42.6093 143.75C42.7065 143.961 42.8104 144.195 42.8878 144.527C42.9648 144.857 43.0135 145.276 43.0135 145.863H42.5058C42.5058 145.304 42.4593 144.926 42.3934 144.643C42.328 144.362 42.2416 144.166 42.1483 143.963C42.1424 143.95 42.1365 143.937 42.1305 143.924C42.0413 143.731 41.9444 143.521 41.8714 143.24C41.7933 142.939 41.7441 142.567 41.7441 142.041C41.7441 141.515 41.7933 141.142 41.8714 140.842C41.9444 140.561 42.0413 140.351 42.1305 140.157C42.1365 140.144 42.1424 140.131 42.1483 140.119C42.2416 139.916 42.328 139.72 42.3934 139.439Z" fill="black"/>
<path d="M39.7763 151.696C40.4423 152.948 40.4974 155.005 39.8994 156.29C39.3013 157.576 38.2767 157.604 37.6107 156.352C36.9447 155.101 36.8896 153.044 37.4876 151.758C38.0856 150.472 39.1103 150.445 39.7763 151.696Z" fill="white"/>
<path fill-rule="evenodd" clip-rule="evenodd" d="M37.6081 151.984C37.0694 153.143 37.119 154.995 37.719 156.123C38.3189 157.25 39.242 157.226 39.7807 156.067C40.3194 154.909 40.2698 153.056 39.6698 151.929C39.0699 150.801 38.1468 150.826 37.6081 151.984ZM37.5042 156.585C36.7721 155.209 36.7116 152.948 37.3689 151.535C38.0263 150.122 39.1526 150.091 39.8846 151.467C40.6166 152.843 40.6772 155.104 40.0199 156.517C39.3625 157.93 38.2362 157.96 37.5042 156.585Z" fill="black"/>
<path d="M115.995 178.982L98.7317 187.645L81.9761 178.982V165.987L90.9886 161.782L100.001 157.578L115.995 165.987V178.982Z" fill="#E7C89E"/>
<path fill-rule="evenodd" clip-rule="evenodd" d="M100.01 157.297L116.251 165.835V179.142L98.7324 187.934L81.7246 179.14V165.827L100.01 157.297ZM99.9968 157.865L82.5556 166.001L98.7358 174.367L115.44 165.984L99.9968 157.865ZM115.744 166.402L98.988 174.81V187.236L115.744 178.827V166.402ZM98.4802 187.23V174.808L82.2324 166.407V178.829L98.4802 187.23Z" fill="black"/>
<path fill-rule="evenodd" clip-rule="evenodd" d="M91.1183 171.189L107.583 162.557L106.642 160.75L89.0873 169.954V174.903H91.1183V171.189Z" fill="#F0512D"/>
<path d="M74.3631 135.672L90.8649 144.08V146.119L88.8339 147.097L76.648 153.04L74.617 154.018L72.0978 152.744L60.1462 147.146L58.1152 146.119V144.08L74.3631 135.672Z" fill="#837477"/>
<path fill-rule="evenodd" clip-rule="evenodd" d="M74.3646 135.391L91.1211 143.929V167.273H90.6134V146.529L88.9472 147.331L88.9461 147.331L76.7613 153.274L76.7602 153.275L74.8733 154.183V175.427H74.3655V154.18L71.9894 152.978L60.0378 147.38L58.3715 146.538V167.273H57.8638V143.93L74.3646 135.391ZM58.3715 145.967L60.2595 146.922L72.211 152.52L74.3655 153.609V152.398L58.3715 144.495V145.967ZM58.6818 144.08L74.6185 151.955L90.303 144.084L74.3664 135.963L58.6818 144.08ZM90.6134 144.498L74.8733 152.397V153.618L76.5394 152.816L76.5406 152.815L88.7253 146.872L88.7265 146.872L90.6134 145.963V144.498Z" fill="black"/>
<path fill-rule="evenodd" clip-rule="evenodd" d="M58.0044 160.621L58.2287 160.164L74.6174 168.262L90.7526 160.165L90.9797 160.621L74.6192 168.831L58.0044 160.621Z" fill="black"/>
<path d="M115.995 166.247L98.7317 174.911L81.9761 166.247V153.252L90.9886 149.048L100.001 144.844L115.995 153.252V166.247Z" fill="#E7C89E"/>
<path fill-rule="evenodd" clip-rule="evenodd" d="M100.01 144.562L116.251 153.101V166.408L98.7324 175.199L81.7246 166.406V153.093L100.01 144.562ZM99.9968 145.131L82.5556 153.267L98.7358 161.633L115.44 153.25L99.9968 145.131ZM115.744 153.667L98.988 162.076V174.501L115.744 166.093V153.667ZM98.4802 174.496V162.074L82.2324 153.673V166.095L98.4802 174.496Z" fill="black"/>
<path fill-rule="evenodd" clip-rule="evenodd" d="M91.1183 158.455L107.583 149.822L106.642 148.016L89.0873 157.22V162.169H91.1183V158.455Z" fill="#F0512D"/>
<path d="M156.365 191.734L131.485 204.22L128.947 202.936L100.767 188.684L98.7358 187.657V164.47L111.176 158.227L123.615 151.984L156.365 169.056V191.734Z" fill="#E7C89E"/>
<path fill-rule="evenodd" clip-rule="evenodd" d="M123.62 151.695L156.621 168.899V191.888L131.487 204.502L98.4844 187.811V164.309L123.62 151.695ZM123.616 152.267L99.3007 164.469L131.49 180.999L155.804 169.047L123.616 152.267ZM156.114 169.462L131.742 181.443V203.804L156.114 191.574V169.462ZM131.234 203.803V181.44L98.9921 164.883V187.497L131.234 203.803Z" fill="black"/>
<path fill-rule="evenodd" clip-rule="evenodd" d="M116.002 173.482L139.078 161.03L138.116 159.234L113.971 172.263V177.204H116.002V173.482Z" fill="#F0512D"/>
<path d="M141.381 119.364C141.381 121.334 138.653 122.931 135.288 122.931C131.923 122.931 129.195 121.334 129.195 119.364C129.195 117.394 131.923 115.797 135.288 115.797C138.653 115.797 141.381 117.394 141.381 119.364Z" fill="white"/>
<path fill-rule="evenodd" clip-rule="evenodd" d="M131.11 117.059C130.047 117.682 129.452 118.504 129.452 119.361C129.452 120.218 130.047 121.041 131.11 121.664C132.168 122.283 133.645 122.674 135.291 122.674C136.936 122.674 138.414 122.283 139.471 121.664C140.535 121.041 141.13 120.218 141.13 119.361C141.13 118.504 140.535 117.682 139.471 117.059C138.414 116.44 136.936 116.049 135.291 116.049C133.645 116.049 132.168 116.44 131.11 117.059ZM130.854 116.619C132.002 115.947 133.571 115.539 135.291 115.539C137.01 115.539 138.579 115.947 139.727 116.619C140.869 117.287 141.638 118.248 141.638 119.361C141.638 120.474 140.869 121.435 139.727 122.104C138.579 122.776 137.01 123.183 135.291 123.183C133.571 123.183 132.002 122.776 130.854 122.104C129.713 121.435 128.944 120.474 128.944 119.361C128.944 118.248 129.713 117.287 130.854 116.619Z" fill="black"/>
<path d="M134.783 113.766H135.799V119.371H134.783V113.766Z" fill="white"/>
<path fill-rule="evenodd" clip-rule="evenodd" d="M135.037 113.766V119.371H134.529V113.766H135.037ZM135.545 119.371V113.766H136.053V119.371H135.545Z" fill="black"/>
<path d="M135.288 98.9844C133.045 98.9844 131.226 100.125 131.226 101.532L129.195 111.725C129.195 113.695 131.923 115.292 135.288 115.292C138.653 115.292 141.381 113.695 141.381 111.725L139.35 101.532C139.35 100.125 137.532 98.9844 135.288 98.9844Z" fill="#F8DD4D"/>
<path fill-rule="evenodd" clip-rule="evenodd" d="M132.553 99.9438C131.861 100.378 131.483 100.945 131.483 101.529V101.555L129.452 111.746C129.463 112.594 130.057 113.407 131.11 114.024C132.168 114.643 133.645 115.034 135.291 115.034C136.936 115.034 138.414 114.643 139.471 114.024C140.525 113.407 141.118 112.594 141.13 111.746L139.099 101.555V101.529C139.099 100.945 138.721 100.378 138.028 99.9438C137.34 99.5117 136.372 99.2362 135.291 99.2362C134.209 99.2362 133.242 99.5117 132.553 99.9438ZM132.284 99.5116C133.065 99.0214 134.129 98.7266 135.291 98.7266C136.452 98.7266 137.516 99.0214 138.297 99.5116C139.067 99.9944 139.595 100.691 139.606 101.503L141.638 111.696V111.722C141.638 112.835 140.869 113.796 139.727 114.464C138.579 115.136 137.01 115.544 135.291 115.544C133.571 115.544 132.002 115.136 130.854 114.464C129.713 113.796 128.944 112.835 128.944 111.722V111.696L130.975 101.503C130.986 100.691 131.514 99.9944 132.284 99.5116Z" fill="black"/>
<path fill-rule="evenodd" clip-rule="evenodd" d="M132.553 99.9438C131.861 100.378 131.483 100.945 131.483 101.529C131.483 102.113 131.861 102.681 132.553 103.115C133.242 103.547 134.209 103.823 135.291 103.823C136.372 103.823 137.34 103.547 138.028 103.115C138.721 102.681 139.099 102.113 139.099 101.529C139.099 100.945 138.721 100.378 138.028 99.9438C137.34 99.5117 136.372 99.2362 135.291 99.2362C134.209 99.2362 133.242 99.5117 132.553 99.9438ZM132.284 99.5116C133.065 99.0214 134.129 98.7266 135.291 98.7266C136.452 98.7266 137.516 99.0214 138.297 99.5116C139.067 99.9944 139.595 100.691 139.606 101.503L141.638 111.696V111.722C141.638 112.835 140.869 113.796 139.727 114.464C138.579 115.136 137.01 115.544 135.291 115.544C133.571 115.544 132.002 115.136 130.854 114.464C129.713 113.796 128.944 112.835 128.944 111.722V111.696L130.975 101.503C130.986 100.691 131.514 99.9944 132.284 99.5116ZM131.28 102.574L129.452 111.746C129.463 112.594 130.057 113.407 131.11 114.024C132.168 114.643 133.645 115.034 135.291 115.034C136.936 115.034 138.414 114.643 139.471 114.024C140.525 113.407 141.118 112.594 141.13 111.746L139.302 102.574C139.07 102.952 138.72 103.282 138.297 103.547C137.516 104.037 136.452 104.332 135.291 104.332C134.129 104.332 133.065 104.037 132.284 103.547C131.861 103.282 131.511 102.952 131.28 102.574Z" fill="black"/>
<path fill-rule="evenodd" clip-rule="evenodd" d="M135.291 101.783C134.337 101.783 133.514 102.667 133.514 103.821H133.006C133.006 102.443 134.002 101.273 135.291 101.273C136.58 101.273 137.576 102.443 137.576 103.821H137.068C137.068 102.667 136.245 101.783 135.291 101.783Z" fill="black"/>
<path d="M183.718 119.322L163.172 109.022C163.042 108.957 162.891 108.951 162.757 109.005L162.258 109.205C161.966 109.323 161.849 109.676 162.014 109.945L180.063 139.477C180.166 139.645 180.356 139.738 180.551 139.717L181.102 139.657C181.336 139.631 181.522 139.448 181.551 139.214L183.994 119.842C184.021 119.627 183.91 119.419 183.718 119.322Z" fill="#8B8FA5"/>
<path fill-rule="evenodd" clip-rule="evenodd" d="M162.663 108.766C162.865 108.685 163.091 108.694 163.286 108.791L183.831 119.091C184.121 119.236 184.287 119.549 184.247 119.871L181.804 139.243C181.759 139.594 181.481 139.869 181.13 139.907L180.579 139.967C180.286 139.999 180.001 139.859 179.848 139.607L161.798 110.075C161.551 109.671 161.726 109.142 162.164 108.966L162.663 108.766ZM163.059 109.247C162.994 109.215 162.919 109.212 162.851 109.239L162.353 109.439C162.207 109.498 162.148 109.674 162.231 109.809L180.28 139.341C180.332 139.424 180.427 139.471 180.524 139.461L181.075 139.4C181.192 139.388 181.285 139.296 181.3 139.179L183.743 119.807C183.757 119.7 183.701 119.596 183.605 119.547L163.059 109.247Z" fill="black"/>
<path d="M162.074 109.492L182.698 119.831C182.891 119.928 183.002 120.136 182.975 120.351L181.028 135.79L180.57 139.419C180.526 139.765 180.158 139.966 179.846 139.814L172.357 136.191L169.529 137.932C169.235 138.113 168.869 138.131 168.558 137.982L163.61 135.598C163.236 135.417 163.223 134.887 163.589 134.689L166.264 133.243L158.981 129.72C158.783 129.624 158.669 129.41 158.699 129.191L159.277 124.972L161.344 109.878C161.392 109.532 161.763 109.336 162.074 109.492Z" fill="#8B8FA5"/>
<path d="M181 135.5L159.5 125L161.5 109.5L183 120L181 135.5Z" fill="#BEDDF9"/>
<path fill-rule="evenodd" clip-rule="evenodd" d="M161.095 109.841C161.166 109.322 161.724 109.027 162.19 109.261L182.814 119.6C183.103 119.745 183.27 120.058 183.229 120.38L180.824 139.449C180.759 139.967 180.207 140.268 179.738 140.041L172.374 136.479L169.664 138.146C169.296 138.372 168.84 138.396 168.451 138.209L163.502 135.825C162.941 135.554 162.923 134.759 163.471 134.462L165.708 133.253L158.873 129.946C158.576 129.802 158.405 129.482 158.45 129.154L161.095 109.841ZM166.273 133.527L163.712 134.911C163.529 135.01 163.535 135.275 163.722 135.365L168.671 137.749C168.904 137.862 169.178 137.847 169.398 137.712L171.831 136.215L166.273 133.527ZM161.963 109.717C161.808 109.639 161.622 109.737 161.598 109.91L159.555 124.822L180.823 135.4L182.725 120.316C182.739 120.209 182.683 120.104 182.587 120.056L161.963 109.717ZM180.756 135.935L159.482 125.355L158.953 129.223C158.938 129.333 158.995 129.439 159.094 129.487L179.958 139.582C180.115 139.658 180.299 139.557 180.321 139.385L180.756 135.935Z" fill="black"/>
</svg>
