<svg width="232" height="216" viewBox="0 0 232 216" fill="none" xmlns="http://www.w3.org/2000/svg">
<rect width="232" height="216" rx="16" fill="white"/>
<path d="M16.376 20.528V18.8H24.712V20.528L20.456 23.024V23.088H21.656C23.848 23.088 25.272 24.48 25.272 26.544C25.272 28.848 23.464 30.16 20.616 30.16C17.768 30.16 15.96 28.864 15.96 26.512V26.208H17.944V26.512C17.944 27.92 19.096 28.432 20.616 28.432C22.2 28.432 23.288 27.888 23.288 26.544C23.288 25.136 22.136 24.688 20.616 24.688H17.544V23.12L21.848 20.592V20.528H16.376ZM36.3944 21.952H34.3144C34.3144 21.92 34.0264 20.368 32.0904 20.368C30.2984 20.368 29.3544 21.856 29.3544 23.856H29.4024C29.4024 23.856 30.1704 22.704 32.4264 22.704C35.0344 22.704 36.8264 24.288 36.8264 26.384C36.8264 28.64 34.9864 30.16 32.1544 30.16C28.8744 30.16 27.2744 28.016 27.2744 24.688V24.304C27.2744 21.216 28.8424 18.64 32.0904 18.64C35.2744 18.64 36.3944 20.832 36.3944 21.952ZM32.1704 24.368C30.7144 24.368 29.5784 25.136 29.5784 26.4C29.5784 27.648 30.6664 28.432 32.1704 28.432C33.6744 28.432 34.7624 27.648 34.7624 26.4C34.7624 25.136 33.6264 24.368 32.1704 24.368ZM47.3831 23.696H45.0791V30H43.2871V23.696H41.9431V22.688L43.2871 22.16V21.776C43.2871 19.632 44.5831 18.64 46.6791 18.64C47.7031 18.64 48.3911 19.072 48.3911 19.072V20.704C48.3911 20.704 47.9111 20.272 46.9831 20.272C45.8631 20.272 45.0791 20.752 45.0791 21.952V22.16H47.3831V23.696ZM49.6023 27.072V23.696H48.3063V22.56L50.2263 20.4H51.3943V22.16H54.1303V23.696H51.3943V26.832C51.3943 28.176 52.1783 28.528 53.0903 28.528C53.9063 28.528 54.3703 28.192 54.3703 28.192V29.856C54.3703 29.856 53.7783 30.16 52.8503 30.16C50.8343 30.16 49.6023 29.216 49.6023 27.072ZM55.4175 23.28V22.272C55.4175 19.504 59.3215 20.624 59.3215 19.072C59.3215 18.64 59.0015 18.32 58.2495 18.32C57.4655 18.32 57.1615 18.72 57.1615 19.168V19.312H55.6255V19.168C55.6255 17.856 56.5375 17.04 58.2495 17.04C59.9615 17.04 60.8575 17.872 60.8575 18.992C60.8575 21.584 56.9695 21.024 56.9695 22H60.8095V23.28H55.4175Z" fill="black"/>
<path d="M21.432 39.796C21.432 39.796 21.084 38.224 19.284 38.224C17.436 38.224 16.692 39.892 16.692 41.872H16.716C16.716 41.872 17.304 40.504 19.416 40.504C21.204 40.504 22.572 41.632 22.572 43.312C22.572 45.052 21.264 46.12 19.32 46.12C17.076 46.12 15.9 44.56 15.9 42.232V41.812C15.9 39.484 16.98 37.48 19.284 37.48C21.6 37.48 22.272 39.424 22.272 39.796H21.432ZM19.32 45.376C20.76 45.376 21.756 44.596 21.756 43.312C21.756 42.028 20.712 41.248 19.32 41.248C18 41.248 16.932 42.076 16.932 43.312C16.932 44.548 17.94 45.376 19.32 45.376ZM28.0327 41.416L26.5447 42.904L28.0327 44.392L27.5407 44.884L26.0527 43.396L24.5647 44.884L24.0727 44.392L25.5607 42.904L24.0727 41.416L24.5647 40.924L26.0527 42.412L27.5407 40.924L28.0327 41.416ZM35.0609 39.796C35.0609 39.796 34.7129 38.224 32.9129 38.224C31.0649 38.224 30.3209 39.892 30.3209 41.872H30.3449C30.3449 41.872 30.9329 40.504 33.0449 40.504C34.8329 40.504 36.2009 41.632 36.2009 43.312C36.2009 45.052 34.8929 46.12 32.9489 46.12C30.7049 46.12 29.5289 44.56 29.5289 42.232V41.812C29.5289 39.484 30.6089 37.48 32.9129 37.48C35.2289 37.48 35.9009 39.424 35.9009 39.796H35.0609ZM32.9489 45.376C34.3889 45.376 35.3849 44.596 35.3849 43.312C35.3849 42.028 34.3409 41.248 32.9489 41.248C31.6289 41.248 30.5609 42.076 30.5609 43.312C30.5609 44.548 31.5689 45.376 32.9489 45.376ZM41.6616 41.416L40.1736 42.904L41.6616 44.392L41.1696 44.884L39.6816 43.396L38.1936 44.884L37.7016 44.392L39.1896 42.904L37.7016 41.416L38.1936 40.924L39.6816 42.412L41.1696 40.924L41.6616 41.416ZM46.5418 46.12C44.5498 46.12 43.1578 45.208 43.1578 43.684C43.1578 41.944 45.0298 41.608 45.0298 41.608V41.572C45.0298 41.572 43.4218 41.284 43.4218 39.748C43.4218 38.344 44.6698 37.48 46.5418 37.48C48.4138 37.48 49.6618 38.344 49.6618 39.748C49.6618 41.284 48.0538 41.572 48.0538 41.572V41.608C48.0538 41.608 49.9258 41.944 49.9258 43.684C49.9258 45.208 48.5338 46.12 46.5418 46.12ZM46.5418 45.376C48.0778 45.376 49.1098 44.8 49.1098 43.684C49.1098 42.568 48.0538 41.992 46.5418 41.992C45.0298 41.992 43.9738 42.568 43.9738 43.684C43.9738 44.8 45.0058 45.376 46.5418 45.376ZM46.5418 41.248C47.9578 41.248 48.8458 40.648 48.8458 39.748C48.8458 38.812 47.9578 38.224 46.5418 38.224C45.1258 38.224 44.2378 38.812 44.2378 39.748C44.2378 40.648 45.1258 41.248 46.5418 41.248ZM55.771 39.82V40.12H57.679V40.816H55.771V46H55.027V40.816H54.007V40.12H55.027V39.76C55.027 38.14 55.927 37.48 57.067 37.48C57.835 37.48 58.267 37.744 58.267 37.744V38.464C58.267 38.464 57.871 38.176 57.127 38.176C56.347 38.176 55.771 38.584 55.771 39.82ZM59.3513 43.9V40.816H58.3313V40.12H59.3513V38.8H60.0953V40.12H62.3513V40.816H60.0953V43.816C60.0953 45.004 60.6713 45.424 61.4513 45.424C62.1953 45.424 62.5913 45.136 62.5913 45.136V45.844C62.5913 45.844 62.1593 46.12 61.3913 46.12C60.2513 46.12 59.3513 45.46 59.3513 43.9Z" fill="black"/>
<path fill-rule="evenodd" clip-rule="evenodd" d="M116.111 120.351L213.3 169.058L213.094 169.472L115.88 120.752L18.2055 169.472L18 169.058L115.65 120.351V53H116.111V120.351Z" fill="black"/>
<path d="M141.939 137.597L119.34 148.923L117.034 147.759L91.4362 134.831L89.5913 133.899V112.865L100.891 107.202L112.191 101.539L141.939 117.026V137.597Z" fill="#E7C89E"/>
<path fill-rule="evenodd" clip-rule="evenodd" d="M112.194 101.281L142.171 116.887V137.742L119.341 149.184L89.3623 134.043V112.724L112.194 101.281ZM112.19 101.8L90.1038 112.869L119.344 127.864L141.429 117.021L112.19 101.8ZM141.71 117.398L119.572 128.266V148.551L141.71 137.456V117.398ZM119.111 148.55V128.263L89.8235 113.245V133.758L119.111 148.55Z" fill="black"/>
<path fill-rule="evenodd" clip-rule="evenodd" d="M105.274 121.075L121.82 113.007L121.013 111.344L103.429 119.918V124.426H105.274V121.075Z" fill="#F0512D"/>
<path d="M171.456 152.855L148.856 164.181L146.55 163.017L120.953 150.089L119.108 149.157V128.123L130.408 122.46L141.707 116.797L171.456 132.283V152.855Z" fill="#E7C89E"/>
<path fill-rule="evenodd" clip-rule="evenodd" d="M141.711 116.539L171.688 132.145V153L148.858 164.441L118.879 149.301V127.982L141.711 116.539ZM141.707 117.058L119.62 128.127L148.86 143.121L170.946 132.279L141.707 117.058ZM171.227 132.656L149.089 143.524V163.809L171.227 152.714V132.656ZM148.627 163.808V143.521L119.34 128.502V149.016L148.627 163.808Z" fill="black"/>
<path fill-rule="evenodd" clip-rule="evenodd" d="M134.788 136.318L152.5 127.329L151.667 125.68L132.943 135.182V139.68H134.788V136.318Z" fill="#F0512D"/>
<path d="M116.343 90.4453L175.84 120.263V121.65L146.322 136.443L86.8252 106.856V105.238L116.343 90.4453Z" fill="#837477"/>
<path fill-rule="evenodd" clip-rule="evenodd" d="M116.344 90.1875L176.072 120.121V150.081H175.61V122.024L146.554 136.586V164.874H146.093V136.587L87.0569 107.23V135.519H86.5957V105.096L116.344 90.1875ZM87.0569 106.714L146.093 136.071V134.969L87.0569 105.612V106.714ZM87.3436 105.238L146.324 134.568L175.322 120.262L116.344 90.7044L87.3436 105.238ZM175.61 120.635L146.554 134.969V136.069L175.61 121.507V120.635Z" fill="black"/>
<path d="M205.59 165.335L182.991 176.661L180.685 175.497L155.087 162.569L153.242 161.637V131.357L175.842 120.031L205.59 135.518V165.335Z" fill="#837477"/>
<path d="M205.5 165.5L183 176.5V147L205.5 136V165.5Z" fill="#948689"/>
<path fill-rule="evenodd" clip-rule="evenodd" d="M175.843 119.773L205.82 135.379V165.48L182.99 176.922L153.011 161.781V131.216L175.843 119.773ZM153.472 131.737V161.496L182.76 176.288V146.756L153.472 131.737ZM183.221 146.758V176.289L205.359 165.194V135.89L183.221 146.758ZM205.078 135.513L182.992 146.356L153.753 131.361L175.839 120.292L205.078 135.513ZM154.856 135.147L180.915 148.089V173.109L154.856 159.932V135.147ZM155.317 135.892V143.236L180.454 155.947V148.376L155.317 135.892ZM180.454 156.465L155.317 143.754V151.095L180.454 163.806V156.465ZM180.454 164.323L155.317 151.613V159.647L180.454 172.358V164.323ZM174.817 148.44L160.75 141.505L160.954 141.091L175.021 148.025L174.817 148.44ZM174.817 155.836L160.75 148.902L160.954 148.487L175.021 155.421L174.817 155.836ZM174.817 163.695L160.75 156.761L160.954 156.346L175.021 163.28L174.817 163.695Z" fill="black"/>
<path d="M103.435 88.3699V103.856L108.092 106.216L125.804 115.191L141.255 107.324V91.8371L118.655 80.7422L103.435 88.3699Z" fill="#ADAEB3"/>
<path d="M125 101L109 93V104.5L125 113V101Z" fill="#BDBCBC"/>
<path fill-rule="evenodd" clip-rule="evenodd" d="M118.653 80.4844L103.203 88.2271V103.999L125.803 115.451L141.484 107.466V91.693L118.653 80.4844ZM141.023 92.2088V107.182L126.033 114.815V99.6176L141.023 92.2088ZM125.572 99.6173V114.816L108.321 106.074V91.0538L125.572 99.6173ZM107.859 90.8249V105.84L103.664 103.714V88.7424L107.859 90.8249ZM103.951 88.369L125.803 99.216L140.73 91.8378L118.655 81.0002L103.951 88.369ZM103.895 90.0763V92.9046L107.585 94.7537V91.9254L103.895 90.0763ZM107.123 92.2111V94.0057L104.356 92.6189V90.8243L107.123 92.2111ZM108.738 92.8524V104.923L125.111 113.248V100.939L108.738 92.8524ZM124.65 101.227V112.495L109.199 104.639V93.5956L124.65 101.227Z" fill="black"/>
<path d="M104.586 101.019C104.586 101.913 104.999 102.931 105.508 102.931C106.018 102.931 106.431 102.501 106.431 101.607C106.431 100.714 106.018 99.6953 105.508 99.6953C104.999 99.6953 104.586 100.126 104.586 101.019Z" fill="white"/>
<path fill-rule="evenodd" clip-rule="evenodd" d="M105.953 100.417C106.105 100.751 106.202 101.197 106.202 101.612C106.202 102.026 106.106 102.302 105.979 102.469C105.857 102.63 105.694 102.705 105.511 102.705C105.464 102.705 105.398 102.682 105.314 102.598C105.23 102.515 105.144 102.386 105.068 102.219C104.916 101.884 104.819 101.439 104.819 101.024C104.819 100.61 104.915 100.334 105.042 100.167C105.164 100.006 105.327 99.931 105.511 99.931C105.557 99.931 105.623 99.9537 105.707 100.037C105.792 100.121 105.877 100.249 105.953 100.417ZM106.032 99.7087C105.895 99.5734 105.719 99.4688 105.511 99.4688C105.185 99.4688 104.886 99.6091 104.675 99.8865C104.468 100.158 104.357 100.544 104.357 101.024C104.357 101.502 104.467 102.013 104.649 102.411C104.739 102.61 104.853 102.792 104.989 102.927C105.126 103.062 105.302 103.167 105.511 103.167C105.836 103.167 106.135 103.027 106.346 102.749C106.553 102.478 106.664 102.092 106.664 101.612C106.664 101.134 106.554 100.623 106.373 100.225C106.282 100.026 106.168 99.8442 106.032 99.7087Z" fill="black"/>
<path d="M154.167 118.642C154.167 120.429 151.689 121.878 148.632 121.878C145.576 121.878 143.098 120.429 143.098 118.642C143.098 116.855 145.576 115.406 148.632 115.406C151.689 115.406 154.167 116.855 154.167 118.642Z" fill="white"/>
<path fill-rule="evenodd" clip-rule="evenodd" d="M144.836 116.55C143.87 117.115 143.33 117.862 143.33 118.639C143.33 119.416 143.87 120.163 144.836 120.728C145.797 121.289 147.139 121.644 148.634 121.644C150.129 121.644 151.471 121.289 152.431 120.728C153.397 120.163 153.938 119.416 153.938 118.639C153.938 117.862 153.397 117.115 152.431 116.55C151.471 115.989 150.129 115.634 148.634 115.634C147.139 115.634 145.797 115.989 144.836 116.55ZM144.604 116.151C145.647 115.542 147.072 115.172 148.634 115.172C150.196 115.172 151.621 115.542 152.664 116.151C153.701 116.757 154.399 117.629 154.399 118.639C154.399 119.649 153.701 120.521 152.664 121.127C151.621 121.737 150.196 122.106 148.634 122.106C147.072 122.106 145.647 121.737 144.604 121.127C143.567 120.521 142.869 119.649 142.869 118.639C142.869 117.629 143.567 116.757 144.604 116.151Z" fill="black"/>
<path d="M148.17 113.562H149.093V118.648H148.17V113.562Z" fill="white"/>
<path fill-rule="evenodd" clip-rule="evenodd" d="M148.406 113.562V118.648H147.945V113.562H148.406ZM148.867 118.648V113.562H149.328V118.648H148.867Z" fill="black"/>
<path d="M148.632 100.156C146.594 100.156 144.943 101.191 144.943 102.468L143.098 111.713C143.098 113.501 145.576 114.949 148.632 114.949C151.689 114.949 154.167 113.501 154.167 111.713L152.322 102.468C152.322 101.191 150.67 100.156 148.632 100.156Z" fill="#F8DD4D"/>
<path fill-rule="evenodd" clip-rule="evenodd" d="M146.147 101.026C145.518 101.42 145.175 101.935 145.175 102.464V102.487L143.33 111.732C143.34 112.502 143.88 113.239 144.836 113.799C145.797 114.36 147.139 114.715 148.634 114.715C150.129 114.715 151.471 114.36 152.431 113.799C153.388 113.239 153.928 112.502 153.938 111.732L152.093 102.487V102.464C152.093 101.935 151.75 101.42 151.121 101.026C150.495 100.634 149.616 100.384 148.634 100.384C147.651 100.384 146.773 100.634 146.147 101.026ZM145.903 100.634C146.612 100.189 147.579 99.9219 148.634 99.9219C149.689 99.9219 150.655 100.189 151.365 100.634C152.064 101.072 152.544 101.704 152.554 102.441L154.399 111.687V111.71C154.399 112.72 153.701 113.592 152.664 114.198C151.621 114.808 150.196 115.177 148.634 115.177C147.072 115.177 145.647 114.808 144.604 114.198C143.567 113.592 142.869 112.72 142.869 111.71V111.687L144.714 102.441C144.724 101.704 145.204 101.072 145.903 100.634Z" fill="black"/>
<path fill-rule="evenodd" clip-rule="evenodd" d="M146.147 101.026C145.518 101.42 145.175 101.935 145.175 102.464C145.175 102.994 145.518 103.509 146.147 103.903C146.773 104.295 147.651 104.545 148.634 104.545C149.616 104.545 150.495 104.295 151.121 103.903C151.75 103.509 152.093 102.994 152.093 102.464C152.093 101.935 151.75 101.42 151.121 101.026C150.495 100.634 149.616 100.384 148.634 100.384C147.651 100.384 146.773 100.634 146.147 101.026ZM145.903 100.634C146.612 100.189 147.579 99.9219 148.634 99.9219C149.689 99.9219 150.655 100.189 151.365 100.634C152.064 101.072 152.544 101.704 152.554 102.441L154.399 111.687V111.71C154.399 112.72 153.701 113.592 152.664 114.198C151.621 114.808 150.196 115.177 148.634 115.177C147.072 115.177 145.647 114.808 144.604 114.198C143.567 113.592 142.869 112.72 142.869 111.71V111.687L144.714 102.441C144.724 101.704 145.204 101.072 145.903 100.634ZM144.99 103.412L143.33 111.732C143.34 112.502 143.88 113.239 144.836 113.799C145.797 114.36 147.139 114.715 148.634 114.715C150.129 114.715 151.471 114.36 152.431 113.799C153.388 113.239 153.928 112.502 153.938 111.732L152.277 103.412C152.067 103.755 151.749 104.054 151.365 104.295C150.655 104.74 149.689 105.007 148.634 105.007C147.579 105.007 146.612 104.74 145.903 104.295C145.518 104.054 145.2 103.755 144.99 103.412Z" fill="black"/>
<path fill-rule="evenodd" clip-rule="evenodd" d="M148.637 102.697C147.771 102.697 147.023 103.498 147.023 104.546H146.562C146.562 103.296 147.466 102.234 148.637 102.234C149.809 102.234 150.713 103.296 150.713 104.546H150.252C150.252 103.498 149.504 102.697 148.637 102.697Z" fill="black"/>
<path d="M192.613 118.611L173.95 109.267C173.832 109.208 173.695 109.203 173.573 109.252L173.12 109.433C172.854 109.54 172.748 109.86 172.898 110.104L189.294 136.894C189.387 137.046 189.559 137.131 189.736 137.111L190.237 137.057C190.449 137.034 190.618 136.868 190.645 136.655L192.864 119.082C192.889 118.888 192.788 118.698 192.613 118.611Z" fill="#8B8FA5"/>
<path fill-rule="evenodd" clip-rule="evenodd" d="M173.483 109.034C173.667 108.96 173.873 108.969 174.049 109.057L192.712 118.401C192.975 118.532 193.126 118.816 193.089 119.108L190.87 136.681C190.83 137 190.577 137.249 190.258 137.283L189.758 137.338C189.492 137.367 189.233 137.24 189.093 137.011L172.698 110.222C172.473 109.856 172.632 109.375 173.03 109.216L173.483 109.034ZM173.843 109.471C173.784 109.442 173.716 109.439 173.655 109.463L173.202 109.645C173.069 109.698 173.016 109.858 173.091 109.98L189.486 136.77C189.533 136.846 189.619 136.888 189.708 136.878L190.209 136.824C190.315 136.812 190.399 136.729 190.412 136.623L192.632 119.05C192.644 118.953 192.594 118.858 192.506 118.814L173.843 109.471Z" fill="black"/>
<path d="M172.953 109.69L191.686 119.069C191.861 119.157 191.962 119.346 191.938 119.54L190.169 133.546L189.753 136.838C189.714 137.152 189.379 137.334 189.095 137.197L182.293 133.91L179.724 135.489C179.457 135.653 179.125 135.67 178.842 135.534L174.347 133.371C174.007 133.208 173.996 132.727 174.328 132.548L176.759 131.236L170.143 128.039C169.963 127.952 169.859 127.758 169.886 127.56L170.411 123.733L172.29 110.04C172.333 109.727 172.67 109.548 172.953 109.69Z" fill="#8B8FA5"/>
<path d="M190 133.5L170.5 124L172.5 109.5L192 119.5L190 133.5Z" fill="#BEDDF9"/>
<path fill-rule="evenodd" clip-rule="evenodd" d="M172.063 110.006C172.127 109.536 172.633 109.268 173.057 109.48L191.791 118.859C192.054 118.991 192.205 119.274 192.168 119.566L189.984 136.864C189.924 137.334 189.423 137.607 188.997 137.402L182.308 134.17L179.846 135.683C179.512 135.888 179.097 135.909 178.744 135.739L174.249 133.577C173.739 133.331 173.722 132.61 174.22 132.341L176.253 131.244L170.044 128.244C169.774 128.114 169.618 127.823 169.659 127.525L172.063 110.006ZM176.766 131.492L174.439 132.748C174.273 132.838 174.279 133.078 174.449 133.16L178.944 135.323C179.156 135.425 179.404 135.412 179.605 135.289L181.814 133.931L176.766 131.492ZM172.851 109.893C172.71 109.823 172.541 109.912 172.52 110.069L170.664 123.596L189.982 133.192L191.711 119.508C191.723 119.411 191.672 119.316 191.585 119.273L172.851 109.893ZM189.921 133.677L170.598 124.079L170.116 127.588C170.103 127.688 170.154 127.784 170.245 127.828L189.197 136.985C189.339 137.054 189.506 136.963 189.526 136.806L189.921 133.677Z" fill="black"/>
<path d="M55.4699 150.543L78.0695 161.869L80.3755 160.704L105.973 147.776L107.818 146.844V125.81L96.5181 120.147L85.2183 114.484L55.4699 129.971V150.543Z" fill="#E7C89E"/>
<path fill-rule="evenodd" clip-rule="evenodd" d="M85.2152 114.227L55.2382 129.832V150.687L78.0688 162.129L108.047 146.988V125.669L85.2152 114.227ZM85.2192 114.745L107.306 125.814L78.0661 140.809L55.9807 129.967L85.2192 114.745ZM55.6994 130.343L77.8377 141.212V161.496L55.6994 150.401V130.343ZM78.299 161.495V141.209L107.586 126.19V146.704L78.299 161.495Z" fill="black"/>
<path fill-rule="evenodd" clip-rule="evenodd" d="M92.1381 134.006L74.4258 125.017L75.2592 123.367L93.9829 132.87V137.367H92.1381V134.006Z" fill="#F0512D"/>
<path d="M55.4704 129.746L78.07 141.072L80.376 139.907L105.973 126.979L107.818 126.048V105.014L96.5186 99.3505L85.2188 93.6875L55.4704 109.174V129.746Z" fill="#E7C89E"/>
<path fill-rule="evenodd" clip-rule="evenodd" d="M85.2157 93.4219L55.2387 109.027V129.882L78.0692 141.324L108.048 126.184V104.864L85.2157 93.4219ZM85.2197 93.9407L107.306 105.01L78.0666 120.004L55.9812 109.162L85.2197 93.9407ZM55.6999 109.538L77.8382 120.407V140.692L55.6999 129.597V109.538ZM78.2994 140.69V120.404L107.587 105.385V125.899L78.2994 140.69Z" fill="black"/>
<path fill-rule="evenodd" clip-rule="evenodd" d="M92.1368 113.209L69.8267 102.367L70.6315 100.703L93.9817 112.051V116.559H92.1368V113.209Z" fill="#F0512D"/>
<path d="M25.947 165.808L48.5465 177.134L50.8526 175.97L76.4501 163.042L78.2949 162.11V141.076L66.9951 135.413L55.6954 129.75L25.947 145.237V165.808Z" fill="#E7C89E"/>
<path fill-rule="evenodd" clip-rule="evenodd" d="M55.6913 129.484L25.7143 145.09V165.945L48.5448 177.387L78.5234 162.246V140.927L55.6913 129.484ZM55.6953 130.003L77.7819 141.072L48.5422 156.067L26.4568 145.224L55.6953 130.003ZM26.1755 145.601L48.3138 156.469V176.754L26.1755 165.659V145.601ZM48.775 176.753V156.467L78.0622 141.448V161.961L48.775 176.753Z" fill="black"/>
<path fill-rule="evenodd" clip-rule="evenodd" d="M62.6127 149.264L44.9004 140.275L45.7338 138.625L64.4575 148.127V152.625H62.6127V149.264Z" fill="#F0512D"/>
<path fill-rule="evenodd" clip-rule="evenodd" d="M63.8531 156.344L67.0816 157.731L66.8999 158.156L63.6714 156.769L63.8531 156.344Z" fill="black"/>
<path d="M25.9465 144.996L48.546 156.322L50.8521 155.157L76.4496 142.229L78.2944 141.298V120.264L66.9947 114.601L55.6949 108.938L25.9465 124.424V144.996Z" fill="#E7C89E"/>
<path fill-rule="evenodd" clip-rule="evenodd" d="M55.6908 108.672L25.7138 124.277V145.132L48.5443 156.574L78.5229 141.434V120.114L55.6908 108.672ZM55.6948 109.191L77.7814 120.26L48.5417 135.254L26.4563 124.412L55.6948 109.191ZM26.175 124.788L48.3133 135.657V155.942L26.175 144.847V124.788ZM48.7745 155.94V135.654L78.0617 120.635V141.149L48.7745 155.94Z" fill="black"/>
<path fill-rule="evenodd" clip-rule="evenodd" d="M62.6103 128.446L40.9683 117.148L41.8205 115.508L64.4551 127.324V131.814H62.6103V128.446Z" fill="#F0512D"/>
<path d="M67.9171 122.807L52.2357 130.666L37.0156 122.807V111.018L45.2022 107.204L53.3888 103.391L67.9171 111.018V122.807Z" fill="#E7C89E"/>
<path fill-rule="evenodd" clip-rule="evenodd" d="M53.3926 103.133L68.1454 110.878V122.949L52.2319 130.925L36.7827 122.947V110.871L53.3926 103.133ZM53.3804 103.648L37.5375 111.029L52.235 118.618L67.4086 111.013L53.3804 103.648ZM67.6841 111.392L52.464 119.02V130.291L67.6841 122.664V111.392ZM52.0028 130.286V119.018L37.2439 111.397V122.666L52.0028 130.286Z" fill="black"/>
<path fill-rule="evenodd" clip-rule="evenodd" d="M45.3132 115.735L60.2686 107.905L59.4144 106.266L43.4683 114.615V119.105H45.3132V115.735Z" fill="#F0512D"/>
<path d="M97.8956 107.549L82.2143 115.408L66.9941 107.549V95.7605L75.1807 91.9467L83.3673 88.1328L97.8956 95.7605V107.549Z" fill="#E7C89E"/>
<path fill-rule="evenodd" clip-rule="evenodd" d="M83.375 87.875L98.1278 95.6206V107.692L82.2143 115.667L66.7651 107.69V95.613L83.375 87.875ZM83.3628 88.3905L67.52 95.7711L82.2174 103.36L97.3911 95.7557L83.3628 88.3905ZM97.6666 96.1344L82.4465 103.762V115.034L97.6666 107.406V96.1344ZM81.9852 115.029V103.76L67.2264 96.1395V107.408L81.9852 115.029Z" fill="black"/>
<path fill-rule="evenodd" clip-rule="evenodd" d="M75.3014 100.485L90.2568 92.6546L89.4026 91.0156L73.4566 99.365V103.855H75.3014V100.485Z" fill="#F0512D"/>
<path d="M151.855 147.921V171.499C151.855 173.243 152.833 174.838 154.386 175.625L156.511 176.702L165.042 180.956C165.682 181.275 166.378 181.437 167.075 181.44C167.773 181.444 168.472 181.288 169.116 180.974L172.553 179.297C174.139 178.523 175.146 176.909 175.146 175.14V151.593C175.146 149.811 174.124 148.188 172.52 147.42L161.668 142.232C160.419 141.635 158.97 141.631 157.718 142.221L154.503 143.738C152.886 144.5 151.855 146.13 151.855 147.921Z" fill="#F2AC59"/>
<path fill-rule="evenodd" clip-rule="evenodd" d="M161.771 142.028C160.46 141.401 158.938 141.397 157.624 142.017L154.409 143.533C152.712 144.334 151.628 146.045 151.628 147.925V171.504C151.628 173.335 152.656 175.01 154.286 175.836L156.411 176.912L156.413 176.913L164.944 181.168C165.616 181.503 166.347 181.672 167.078 181.676C167.811 181.679 168.545 181.516 169.221 181.186L172.658 179.509C174.324 178.696 175.381 177.002 175.381 175.145V151.597C175.381 149.726 174.308 148.022 172.623 147.216L161.771 142.028ZM157.82 142.435C159.009 141.874 160.387 141.878 161.573 142.445L172.425 147.634C173.949 148.363 174.92 149.905 174.92 151.597V175.145C174.92 176.825 173.963 178.358 172.456 179.094L169.019 180.771C168.478 181.035 167.896 181.181 167.31 181.209V155.287C167.31 153.426 166.248 151.728 164.576 150.917L152.968 145.287C153.389 144.726 153.946 144.263 154.605 143.951L157.82 142.435ZM152.708 145.675L164.375 151.334C165.888 152.067 166.848 153.603 166.848 155.287V181.206C166.265 181.173 165.686 181.022 165.149 180.754L156.619 176.5L156.618 176.499L154.494 175.423C153.019 174.676 152.089 173.16 152.089 171.504V147.925C152.089 147.117 152.311 146.343 152.708 145.675Z" fill="black"/>
<path fill-rule="evenodd" clip-rule="evenodd" d="M154.407 143.812L155.006 144.112L155.213 143.699L154.613 143.398L154.407 143.812ZM155.406 144.313L156.605 144.913L156.811 144.5L155.612 143.899L155.406 144.313ZM157.004 145.114L158.203 145.715L158.41 145.301L157.211 144.7L157.004 145.114ZM158.603 145.915L159.802 146.516L160.008 146.102L158.809 145.501L158.603 145.915ZM160.201 146.716L161.4 147.317L161.607 146.903L160.408 146.302L160.201 146.716ZM161.8 147.517L162.999 148.118L163.205 147.704L162.006 147.104L161.8 147.517ZM163.398 148.318L164.597 148.919L164.804 148.506L163.605 147.905L163.398 148.318ZM164.997 149.119L165.596 149.42C165.791 149.517 165.978 149.624 166.159 149.739L166.406 149.349C166.213 149.225 166.011 149.111 165.803 149.006L165.203 148.706L164.997 149.119ZM166.514 149.983C166.863 150.242 167.181 150.535 167.466 150.856L167.811 150.549C167.505 150.204 167.163 149.889 166.788 149.612L166.514 149.983ZM167.741 151.188C168.004 151.53 168.232 151.899 168.419 152.288L168.834 152.087C168.633 151.669 168.389 151.273 168.106 150.906L167.741 151.188ZM168.593 152.683C168.752 153.082 168.871 153.499 168.946 153.927L169.4 153.848C169.32 153.387 169.192 152.94 169.021 152.512L168.593 152.683ZM169.005 154.355C169.027 154.568 169.038 154.784 169.038 155.002V155.693H169.5V155.002C169.5 154.768 169.487 154.536 169.464 154.307L169.005 154.355ZM169.038 156.154V157.537H169.5V156.154H169.038ZM169.038 157.998V159.381H169.5V157.998H169.038ZM169.038 159.842V161.226H169.5V159.842H169.038ZM169.038 161.687V163.07H169.5V161.687H169.038ZM169.038 163.531V164.914H169.5V163.531H169.038ZM169.038 165.375V166.758H169.5V165.375H169.038ZM169.038 167.219V168.602H169.5V167.219H169.038ZM169.038 169.063V170.446H169.5V169.063H169.038ZM169.038 170.907V172.29H169.5V170.907H169.038ZM169.038 172.751V174.134H169.5V172.751H169.038ZM169.038 174.595V175.978H169.5V174.595H169.038ZM169.038 176.439V177.823H169.5V176.439H169.038ZM169.038 178.284V179.667H169.5V178.284H169.038ZM169.038 180.128V180.819H169.5V180.128H169.038Z" fill="black"/>
<path fill-rule="evenodd" clip-rule="evenodd" d="M164.309 136.766V143.836H164.77V139.117L169.613 141.439V146.378H170.074V139.529L164.309 136.766ZM169.613 140.926L164.77 138.605V137.499L169.613 139.821V140.926Z" fill="black"/>
<path fill-rule="evenodd" clip-rule="evenodd" d="M152.677 150.057L153.344 150.379L153.544 149.963L152.877 149.641L152.677 150.057ZM153.789 150.594L155.123 151.238L155.323 150.821L153.989 150.177L153.789 150.594ZM155.568 151.452L156.902 152.096L157.102 151.68L155.768 151.036L155.568 151.452ZM157.346 152.311L158.681 152.955L158.881 152.538L157.547 151.894L157.346 152.311ZM159.125 153.169L160.46 153.813L160.66 153.397L159.326 152.753L159.125 153.169ZM160.904 154.028L162.239 154.672L162.439 154.255L161.105 153.611L160.904 154.028ZM162.683 154.886L164.018 155.53L164.218 155.114L162.884 154.47L162.683 154.886ZM164.462 155.745L165.13 156.067L165.33 155.65L164.662 155.328L164.462 155.745Z" fill="black"/>
<path fill-rule="evenodd" clip-rule="evenodd" d="M172.484 162.74C172.425 162.483 172.382 162.14 172.382 161.633H171.921C171.921 162.166 171.965 162.545 172.035 162.845C172.106 163.146 172.2 163.358 172.288 163.55C172.293 163.56 172.298 163.57 172.302 163.58C172.384 163.758 172.457 163.915 172.512 164.129C172.571 164.355 172.613 164.652 172.613 165.1C172.613 165.548 172.571 165.845 172.512 166.071C172.457 166.285 172.384 166.442 172.302 166.62C172.298 166.63 172.293 166.64 172.288 166.65C172.2 166.842 172.106 167.054 172.035 167.355C171.965 167.655 171.921 168.034 171.921 168.567H172.382C172.382 168.06 172.425 167.717 172.484 167.46C172.544 167.206 172.622 167.028 172.707 166.844C172.712 166.832 172.718 166.82 172.723 166.809C172.804 166.633 172.892 166.443 172.959 166.188C173.03 165.915 173.074 165.577 173.074 165.1C173.074 164.623 173.03 164.285 172.959 164.012C172.892 163.757 172.804 163.567 172.723 163.391C172.718 163.38 172.712 163.368 172.707 163.356C172.622 163.172 172.544 162.994 172.484 162.74Z" fill="black"/>
<path fill-rule="evenodd" clip-rule="evenodd" d="M171.104 163.2C171.044 162.944 171.002 162.601 171.002 162.094H170.54C170.54 162.626 170.585 163.006 170.654 163.306C170.725 163.607 170.819 163.819 170.907 164.011C170.912 164.021 170.917 164.031 170.921 164.041C171.003 164.219 171.076 164.376 171.132 164.59C171.19 164.816 171.232 165.113 171.232 165.561C171.232 166.009 171.19 166.306 171.132 166.532C171.076 166.746 171.003 166.903 170.921 167.08C170.917 167.091 170.912 167.101 170.907 167.111C170.819 167.303 170.725 167.515 170.654 167.816C170.585 168.116 170.54 168.495 170.54 169.028H171.002C171.002 168.521 171.044 168.178 171.104 167.921C171.163 167.667 171.242 167.489 171.326 167.305C171.332 167.293 171.337 167.281 171.342 167.27C171.423 167.094 171.511 166.904 171.578 166.649C171.649 166.376 171.693 166.038 171.693 165.561C171.693 165.084 171.649 164.746 171.578 164.473C171.511 164.218 171.423 164.028 171.342 163.852C171.337 163.84 171.332 163.829 171.326 163.817C171.242 163.633 171.163 163.455 171.104 163.2Z" fill="black"/>
<path d="M173.472 174.317C172.867 175.452 172.817 177.318 173.36 178.484C173.904 179.65 174.834 179.676 175.439 178.54C176.044 177.405 176.094 175.539 175.551 174.373C175.008 173.206 174.077 173.181 173.472 174.317Z" fill="white"/>
<path fill-rule="evenodd" clip-rule="evenodd" d="M175.441 174.579C175.93 175.629 175.885 177.31 175.34 178.333C174.795 179.356 173.957 179.333 173.467 178.282C172.978 177.232 173.023 175.551 173.568 174.528C174.113 173.505 174.952 173.528 175.441 174.579ZM175.535 178.752C176.2 177.504 176.255 175.453 175.658 174.171C175.061 172.889 174.038 172.861 173.373 174.109C172.708 175.357 172.653 177.408 173.25 178.69C173.847 179.972 174.87 180 175.535 178.752Z" fill="black"/>
<path d="M64.5791 177.537L66.9909 178.741L69.2969 177.576L94.8944 164.648L96.2319 163.973C96.543 163.816 96.7393 163.496 96.7393 163.147V142.682L93.4695 141.05C93.2056 140.918 92.8948 140.921 92.6331 141.057L64.5443 155.68C63.7805 156.077 63.3011 156.868 63.3011 157.731V175.468C63.3011 176.345 63.7961 177.146 64.5791 177.537Z" fill="#37AFB7"/>
<path fill-rule="evenodd" clip-rule="evenodd" d="M93.5727 140.84C93.2428 140.675 92.8542 140.679 92.5272 140.849L64.4384 155.471C63.5981 155.909 63.0709 156.779 63.0709 157.728V175.464C63.0709 176.429 63.6153 177.31 64.4766 177.74L66.9918 178.996L96.336 164.176C96.7249 163.979 96.9702 163.58 96.9702 163.144V142.536L93.5727 140.84ZM92.7398 141.259C92.936 141.157 93.1691 141.155 93.3671 141.254L96.2279 142.682L66.9823 157.68L64.0042 156.407C64.1792 156.193 64.3977 156.014 64.6509 155.882L92.7398 141.259ZM63.7497 156.801L66.7606 158.087V178.364L64.6823 177.327C63.9775 176.975 63.5321 176.254 63.5321 175.464V157.728C63.5321 157.4 63.609 157.084 63.7497 156.801ZM67.2218 178.362V158.076L96.509 143.057V163.144C96.509 163.406 96.3618 163.645 96.1285 163.763L67.2218 178.362Z" fill="black"/>
<path fill-rule="evenodd" clip-rule="evenodd" d="M102.97 194.922H101.125V198.62C101.125 199.131 101.538 199.545 102.047 199.545C102.557 199.545 102.97 199.131 102.97 198.62V194.922Z" fill="white"/>
<path fill-rule="evenodd" clip-rule="evenodd" d="M100.892 194.688H103.198V198.617C103.198 199.255 102.682 199.773 102.045 199.773C101.408 199.773 100.892 199.255 100.892 198.617V194.688ZM101.353 195.15V198.617C101.353 199 101.663 199.31 102.045 199.31C102.427 199.31 102.737 199 102.737 198.617V195.15H101.353Z" fill="black"/>
<path fill-rule="evenodd" clip-rule="evenodd" d="M67.9108 177.82H66.0659V181.519C66.0659 182.029 66.4789 182.443 66.9883 182.443C67.4978 182.443 67.9108 182.029 67.9108 181.519V177.82Z" fill="white"/>
<path fill-rule="evenodd" clip-rule="evenodd" d="M65.8408 177.594H68.1469V181.523C68.1469 182.161 67.6307 182.679 66.9939 182.679C66.3571 182.679 65.8408 182.161 65.8408 181.523V177.594ZM66.302 178.056V181.523C66.302 181.906 66.6118 182.217 66.9939 182.217C67.3759 182.217 67.6857 181.906 67.6857 181.523V178.056H66.302Z" fill="black"/>
<path d="M65.8408 177.666V174.699C65.8408 172.667 67.0477 170.831 68.9101 170.028L88.9016 161.412V140.156C88.9016 138.444 89.8459 136.872 91.3558 136.07L94.6573 134.318C95.9666 133.624 97.5292 133.602 98.8575 134.259L131.531 150.432C133.104 151.21 134.101 152.817 134.101 154.577V161.18V174.356V182.619C134.101 182.796 134 182.957 133.842 183.035L105.011 197.163C103.723 197.794 102.216 197.789 100.933 197.149L67.6327 180.564C66.535 180.018 65.8408 178.895 65.8408 177.666Z" fill="#37AFB7"/>
<path fill-rule="evenodd" clip-rule="evenodd" d="M98.7531 134.463C97.4912 133.839 96.0068 133.86 94.7629 134.52L91.4614 136.271C90.027 137.033 89.1299 138.526 89.1299 140.153V161.265L124.414 178.769L133.868 174.207V154.573C133.868 153.605 133.55 152.686 132.992 151.939L128.479 154.503C127.106 155.283 126.258 156.742 126.258 158.324V165.569H125.797V158.324C125.797 156.576 126.734 154.962 128.252 154.101L132.692 151.579C132.336 151.197 131.91 150.875 131.426 150.636L98.7531 134.463ZM133.868 174.72L105.678 188.325C104.161 189.057 103.197 190.595 103.197 192.282V197.393C103.784 197.364 104.366 197.217 104.907 196.952L133.738 182.824C133.818 182.785 133.868 182.704 133.868 182.616V174.72ZM102.736 197.391V192.282C102.736 190.417 103.801 188.717 105.478 187.908L123.887 179.024L88.8925 161.663L68.9989 170.237C67.2211 171.003 66.0691 172.757 66.0691 174.696V177.663C66.0691 178.804 66.7137 179.846 67.733 180.354L101.033 196.939C101.571 197.207 102.151 197.358 102.736 197.391ZM88.6687 161.256V140.153C88.6687 138.355 89.6602 136.704 91.2456 135.863L94.5471 134.111C95.9219 133.381 97.5626 133.358 98.9573 134.049L131.631 150.221C133.283 151.039 134.329 152.726 134.329 154.573V182.616C134.329 182.881 134.178 183.123 133.941 183.239L105.11 197.367C103.758 198.029 102.176 198.024 100.828 197.353L67.5278 180.768C66.3516 180.182 65.6079 178.979 65.6079 177.663V174.696C65.6079 172.572 66.8696 170.651 68.8167 169.812L88.6687 161.256Z" fill="black"/>
<path d="M105.628 197.875L107.006 198.563C107.656 198.888 108.422 198.886 109.071 198.558L110.346 197.915L135.943 184.987L136.52 184.696C137.297 184.303 137.788 183.504 137.788 182.632V163.021L135.148 161.703C134.489 161.374 133.711 161.381 133.057 161.721L104.35 176.666V195.806C104.35 196.683 104.845 197.485 105.628 197.875Z" fill="#37AFB7"/>
<path fill-rule="evenodd" clip-rule="evenodd" d="M135.252 161.493C134.526 161.131 133.671 161.138 132.951 161.513L104.12 176.522V195.803C104.12 196.768 104.664 197.649 105.525 198.079L106.903 198.767C107.619 199.124 108.461 199.122 109.175 198.762L136.624 184.899C137.479 184.467 138.019 183.589 138.019 182.628V162.875L135.252 161.493ZM133.164 161.923C133.753 161.617 134.452 161.611 135.046 161.907L137.277 163.021L108.906 177.57C108.353 177.853 107.702 177.874 107.132 177.625L104.886 176.644L133.164 161.923ZM104.581 177.015L106.948 178.049C107.644 178.353 108.44 178.328 109.116 177.981L137.558 163.396V182.628C137.558 183.414 137.116 184.133 136.416 184.486L108.968 198.349C108.384 198.644 107.695 198.646 107.109 198.353L105.731 197.665C105.026 197.314 104.581 196.592 104.581 195.803V177.015Z" fill="black"/>
<path fill-rule="evenodd" clip-rule="evenodd" d="M107.808 198.622V178.281H108.27V198.622H107.808Z" fill="black"/>
<path d="M116.114 203.242L117.267 203.936L162.005 181.284V146.381L160.852 145.688L116.114 168.802V203.242Z" fill="#333333"/>
<path d="M162 146.5L117.5 169.504V204.001L162 181.303V146.5Z" fill="#7A7A7A"/>
<path fill-rule="evenodd" clip-rule="evenodd" d="M160.86 145.422L115.883 168.66V203.372L117.257 204.198L162.235 181.425V146.249L160.86 145.422ZM160.843 145.951L161.529 146.363L117.036 169.121V203.526L116.344 203.11V168.942L160.843 145.951ZM117.497 203.559V169.404L161.774 146.757V181.14L117.497 203.559Z" fill="black"/>
<path fill-rule="evenodd" clip-rule="evenodd" d="M150.48 190.797C150.441 190.775 150.397 190.765 150.352 190.767L142.648 191.222L142.621 190.76L150.325 190.306C150.459 190.298 150.592 190.329 150.709 190.396L151.032 190.581C151.604 190.909 151.438 191.778 150.784 191.87L140.814 193.269C140.744 193.279 140.682 193.32 140.646 193.382L137.517 198.819C137.334 199.137 136.936 199.257 136.608 199.093L136.033 198.804C135.687 198.631 135.55 198.207 135.729 197.864L138.279 192.964L138.688 193.178L136.138 198.077C136.078 198.192 136.124 198.333 136.239 198.391L136.815 198.679C136.924 198.734 137.056 198.694 137.117 198.588L140.247 193.151C140.353 192.966 140.539 192.841 140.75 192.811L150.72 191.412C150.938 191.381 150.994 191.092 150.803 190.982L150.48 190.797Z" fill="black"/>
</svg>
