<svg width="232" height="216" viewBox="0 0 232 216" fill="none" xmlns="http://www.w3.org/2000/svg">
<rect width="232" height="216" rx="16" fill="white"/>
<path d="M16.232 26.848H18.312C18.312 26.88 18.648 28.432 20.648 28.432C22.488 28.432 23.512 26.88 23.512 24.88H23.464C23.464 24.88 22.696 26.128 20.44 26.128C17.832 26.128 16.04 24.512 16.04 22.416C16.04 20.16 17.88 18.64 20.712 18.64C23.992 18.64 25.592 20.784 25.592 24.112V24.496C25.592 27.584 23.944 30.16 20.648 30.16C17.416 30.16 16.232 27.968 16.232 26.848ZM20.696 24.432C22.152 24.432 23.288 23.664 23.288 22.4C23.288 21.152 22.2 20.368 20.696 20.368C19.192 20.368 18.104 21.152 18.104 22.4C18.104 23.664 19.24 24.432 20.696 24.432ZM36.1488 23.696H33.8448V30H32.0528V23.696H30.7088V22.688L32.0528 22.16V21.776C32.0528 19.632 33.3488 18.64 35.4448 18.64C36.4688 18.64 37.1568 19.072 37.1568 19.072V20.704C37.1568 20.704 36.6768 20.272 35.7488 20.272C34.6288 20.272 33.8448 20.752 33.8448 21.952V22.16H36.1488V23.696ZM38.3679 27.072V23.696H37.0719V22.56L38.9919 20.4H40.1599V22.16H42.8959V23.696H40.1599V26.832C40.1599 28.176 40.9439 28.528 41.8559 28.528C42.6719 28.528 43.1359 28.192 43.1359 28.192V29.856C43.1359 29.856 42.5439 30.16 41.6159 30.16C39.5999 30.16 38.3679 29.216 38.3679 27.072ZM44.1831 23.28V22.272C44.1831 19.504 48.0871 20.624 48.0871 19.072C48.0871 18.64 47.7671 18.32 47.0151 18.32C46.2311 18.32 45.9271 18.72 45.9271 19.168V19.312H44.3911V19.168C44.3911 17.856 45.3031 17.04 47.0151 17.04C48.7271 17.04 49.6231 17.872 49.6231 18.992C49.6231 21.584 45.7351 21.024 45.7351 22H49.5751V23.28H44.1831Z" fill="black"/>
<path d="M22.236 43.456C22.236 45.136 20.88 46.12 18.984 46.12C17.076 46.12 15.72 45.148 15.72 43.432V43.216H16.512V43.432C16.512 44.74 17.532 45.4 18.984 45.4C20.424 45.4 21.444 44.74 21.444 43.456C21.444 42.148 20.424 41.548 18.984 41.548H16.992V40.768L20.7 38.344V38.32H16.032V37.6H21.9V38.38L18.192 40.804V40.828H18.984C20.88 40.828 22.236 41.74 22.236 43.456ZM27.5756 41.416L26.0876 42.904L27.5756 44.392L27.0836 44.884L25.5956 43.396L24.1076 44.884L23.6156 44.392L25.1036 42.904L23.6156 41.416L24.1076 40.924L25.5956 42.412L27.0836 40.924L27.5756 41.416ZM35.4079 43.456C35.4079 45.136 34.0519 46.12 32.1559 46.12C30.2479 46.12 28.8919 45.148 28.8919 43.432V43.216H29.6839V43.432C29.6839 44.74 30.7039 45.4 32.1559 45.4C33.5959 45.4 34.6159 44.74 34.6159 43.456C34.6159 42.148 33.5959 41.548 32.1559 41.548H30.1639V40.768L33.8719 38.344V38.32H29.2039V37.6H35.0719V38.38L31.3639 40.804V40.828H32.1559C34.0519 40.828 35.4079 41.74 35.4079 43.456ZM40.7475 41.416L39.2595 42.904L40.7475 44.392L40.2555 44.884L38.7675 43.396L37.2795 44.884L36.7875 44.392L38.2755 42.904L36.7875 41.416L37.2795 40.924L38.7675 42.412L40.2555 40.924L40.7475 41.416ZM45.6278 46.12C43.6358 46.12 42.2438 45.208 42.2438 43.684C42.2438 41.944 44.1158 41.608 44.1158 41.608V41.572C44.1158 41.572 42.5078 41.284 42.5078 39.748C42.5078 38.344 43.7558 37.48 45.6278 37.48C47.4998 37.48 48.7478 38.344 48.7478 39.748C48.7478 41.284 47.1398 41.572 47.1398 41.572V41.608C47.1398 41.608 49.0118 41.944 49.0118 43.684C49.0118 45.208 47.6198 46.12 45.6278 46.12ZM45.6278 45.376C47.1638 45.376 48.1958 44.8 48.1958 43.684C48.1958 42.568 47.1398 41.992 45.6278 41.992C44.1158 41.992 43.0598 42.568 43.0598 43.684C43.0598 44.8 44.0918 45.376 45.6278 45.376ZM45.6278 41.248C47.0438 41.248 47.9318 40.648 47.9318 39.748C47.9318 38.812 47.0438 38.224 45.6278 38.224C44.2118 38.224 43.3238 38.812 43.3238 39.748C43.3238 40.648 44.2118 41.248 45.6278 41.248ZM54.857 39.82V40.12H56.765V40.816H54.857V46H54.113V40.816H53.093V40.12H54.113V39.76C54.113 38.14 55.013 37.48 56.153 37.48C56.921 37.48 57.353 37.744 57.353 37.744V38.464C57.353 38.464 56.957 38.176 56.213 38.176C55.433 38.176 54.857 38.584 54.857 39.82ZM58.4372 43.9V40.816H57.4172V40.12H58.4372V38.8H59.1812V40.12H61.4372V40.816H59.1812V43.816C59.1812 45.004 59.7572 45.424 60.5372 45.424C61.2812 45.424 61.6772 45.136 61.6772 45.136V45.844C61.6772 45.844 61.2452 46.12 60.4772 46.12C59.3372 46.12 58.4372 45.46 58.4372 43.9Z" fill="black"/>
<g clip-path="url(#clip0_6365_60284)">
<path d="M106.787 148.177V37M106.787 148.177L194.199 191.866M106.787 148.177L38.2998 181.991" stroke="black" stroke-width="0.7"/>
<path d="M142.894 179.48L113.456 194.143L110.452 192.647L77.1096 175.89L74.7065 174.693V147.462L89.4253 140.161L104.144 132.859L142.894 152.908V179.48Z" fill="#E7C89E"/>
<path d="M113.456 194.14L142.894 179.478V152.846M113.456 194.14V167.209M113.456 194.14L110.452 192.644L77.1096 175.887L74.7065 174.69V147.459L113.456 167.209M142.894 152.846L104.144 132.797L89.4253 140.098L74.7065 147.4M142.894 152.846L128.175 160.027L113.456 167.209" stroke="black" stroke-width="0.7"/>
<path d="M110.151 149.555L130.277 159.429V164.517" stroke="#F0512D" stroke-width="3.04466"/>
<path d="M131.179 151.951L109.852 161.826L106.848 160.33L92.4294 153.148L90.0264 151.951V136.69L100.72 131.782L111.414 126.875L131.239 137.348V151.951H131.179Z" fill="#E7C89E"/>
<path d="M109.851 161.823L131.178 151.948V137.286M109.851 161.823V146.861L90.0259 136.687V151.948L92.429 153.145L106.847 160.327L109.851 161.823ZM131.178 137.286L111.353 126.812L100.659 131.72L89.9658 136.627M131.178 137.286L120.485 142.074L109.791 146.861" stroke="black" stroke-width="0.7"/>
<path d="M101.14 131.602L121.266 141.476V146.563" stroke="#F0512D" stroke-width="3.04466"/>
</g>
<defs>
<clipPath id="clip0_6365_60284">
<rect width="156.8" height="156.8" fill="white" transform="translate(37.6001 37)"/>
</clipPath>
</defs>
</svg>
