<svg width="232" height="216" viewBox="0 0 232 216" fill="none" xmlns="http://www.w3.org/2000/svg">
<rect width="232" height="216" rx="16" fill="white"/>
<path d="M15.56 23.04V20.928L18.136 18.8H19.88V30H17.896V21.2L15.56 23.04ZM27.3144 22.496C29.8424 22.496 31.6344 23.84 31.6344 26.304C31.6344 28.752 29.8744 30.16 27.0744 30.16C24.2104 30.16 22.5144 28.864 22.5144 26.72H24.4984C24.4984 27.712 25.3144 28.432 27.0744 28.432C28.6904 28.432 29.6504 27.744 29.6504 26.304C29.6504 24.816 28.5944 24.16 27.0104 24.16C24.8664 24.16 24.4984 25.264 24.4984 25.264H22.5144V18.8H30.8664V20.528H24.4984V23.312H24.5464C24.5464 23.312 25.2184 22.496 27.3144 22.496ZM42.1175 23.696H39.8135V30H38.0215V23.696H36.6775V22.688L38.0215 22.16V21.776C38.0215 19.632 39.3175 18.64 41.4135 18.64C42.4375 18.64 43.1255 19.072 43.1255 19.072V20.704C43.1255 20.704 42.6455 20.272 41.7175 20.272C40.5975 20.272 39.8135 20.752 39.8135 21.952V22.16H42.1175V23.696ZM44.3366 27.072V23.696H43.0406V22.56L44.9606 20.4H46.1286V22.16H48.8646V23.696H46.1286V26.832C46.1286 28.176 46.9126 28.528 47.8246 28.528C48.6406 28.528 49.1046 28.192 49.1046 28.192V29.856C49.1046 29.856 48.5126 30.16 47.5846 30.16C45.5686 30.16 44.3366 29.216 44.3366 27.072ZM50.1519 23.28V22.272C50.1519 19.504 54.0559 20.624 54.0559 19.072C54.0559 18.64 53.7359 18.32 52.9839 18.32C52.1999 18.32 51.8959 18.72 51.8959 19.168V19.312H50.3599V19.168C50.3599 17.856 51.2719 17.04 52.9839 17.04C54.6959 17.04 55.5919 17.872 55.5919 18.992C55.5919 21.584 51.7039 21.024 51.7039 22H55.5439V23.28H50.1519Z" fill="black"/>
<path d="M22.524 43.276C22.524 45.064 21.192 46.12 19.296 46.12C16.896 46.12 16.08 44.62 16.08 43.648H16.872C16.872 44.248 17.4 45.4 19.296 45.4C20.736 45.4 21.732 44.656 21.732 43.276C21.732 41.896 20.736 41.152 19.26 41.152C17.364 41.152 16.956 42.328 16.956 42.328H16.164V37.6H21.948V38.32H16.956V41.248H16.98C16.98 41.248 17.616 40.432 19.332 40.432C21.18 40.432 22.524 41.488 22.524 43.276ZM27.7983 41.416L26.3103 42.904L27.7983 44.392L27.3063 44.884L25.8183 43.396L24.3303 44.884L23.8383 44.392L25.3263 42.904L23.8383 41.416L24.3303 40.924L25.8183 42.412L27.3063 40.924L27.7983 41.416ZM35.6305 43.456C35.6305 45.136 34.2745 46.12 32.3785 46.12C30.4705 46.12 29.1145 45.148 29.1145 43.432V43.216H29.9065V43.432C29.9065 44.74 30.9265 45.4 32.3785 45.4C33.8185 45.4 34.8385 44.74 34.8385 43.456C34.8385 42.148 33.8185 41.548 32.3785 41.548H30.3865V40.768L34.0945 38.344V38.32H29.4265V37.6H35.2945V38.38L31.5865 40.804V40.828H32.3785C34.2745 40.828 35.6305 41.74 35.6305 43.456ZM40.9702 41.416L39.4822 42.904L40.9702 44.392L40.4782 44.884L38.9902 43.396L37.5022 44.884L37.0102 44.392L38.4982 42.904L37.0102 41.416L37.5022 40.924L38.9902 42.412L40.4782 40.924L40.9702 41.416ZM47.9984 39.796C47.9984 39.796 47.6504 38.224 45.8504 38.224C44.0024 38.224 43.2584 39.892 43.2584 41.872H43.2824C43.2824 41.872 43.8704 40.504 45.9824 40.504C47.7704 40.504 49.1384 41.632 49.1384 43.312C49.1384 45.052 47.8304 46.12 45.8864 46.12C43.6424 46.12 42.4664 44.56 42.4664 42.232V41.812C42.4664 39.484 43.5464 37.48 45.8504 37.48C48.1664 37.48 48.8384 39.424 48.8384 39.796H47.9984ZM45.8864 45.376C47.3264 45.376 48.3224 44.596 48.3224 43.312C48.3224 42.028 47.2784 41.248 45.8864 41.248C44.5664 41.248 43.4984 42.076 43.4984 43.312C43.4984 44.548 44.5064 45.376 45.8864 45.376ZM54.9859 39.82V40.12H56.8939V40.816H54.9859V46H54.2419V40.816H53.2219V40.12H54.2419V39.76C54.2419 38.14 55.1419 37.48 56.2819 37.48C57.0499 37.48 57.4819 37.744 57.4819 37.744V38.464C57.4819 38.464 57.0859 38.176 56.3419 38.176C55.5619 38.176 54.9859 38.584 54.9859 39.82ZM58.5661 43.9V40.816H57.5461V40.12H58.5661V38.8H59.3101V40.12H61.5661V40.816H59.3101V43.816C59.3101 45.004 59.8861 45.424 60.6661 45.424C61.4101 45.424 61.8061 45.136 61.8061 45.136V45.844C61.8061 45.844 61.3741 46.12 60.6061 46.12C59.4661 46.12 58.5661 45.46 58.5661 43.9Z" fill="black"/>
<g opacity="0.9">
<path fill-rule="evenodd" clip-rule="evenodd" d="M106.801 137.891L194.4 181.845L194.13 182.385L106.498 138.414L37.868 172.431L37.6001 171.891L106.197 137.89V50H106.801V137.891Z" fill="black"/>
<path d="M145.406 157.682L115.849 172.462L112.833 170.943L79.3552 154.072L76.9424 152.856V113.342L106.499 98.5625L145.406 118.772V157.682Z" fill="#A9A0A2"/>
<path fill-rule="evenodd" clip-rule="evenodd" d="M106.502 98.2266L145.707 118.591V157.872L115.848 172.803L76.6406 153.045V113.159L106.502 98.2266ZM77.2438 113.838V152.673L79.0534 153.585V118.288L113.134 135.177V170.759L115.547 171.975V133.437L77.2438 113.838ZM116.15 133.441V171.977L145.104 157.499V119.258L116.15 133.441ZM144.736 118.767L115.852 132.916L77.6104 113.348L106.496 98.9036L144.736 118.767ZM112.531 170.455V135.551L79.6566 119.261V153.889L112.531 170.455ZM105.16 135.635L86.7619 126.586L87.0282 126.045L105.426 135.094L105.16 135.635Z" fill="black"/>
<path d="M111.626 113.649L101.371 118.776L91.7202 113.649V97.6621L101.673 92.8359L111.626 97.6621V113.649Z" fill="#6B6B6B"/>
<path fill-rule="evenodd" clip-rule="evenodd" d="M101.673 92.5L111.927 97.4724V113.834L101.367 119.115L91.4185 113.829V97.4724L101.673 92.5ZM92.0217 98.1631L101.07 102.97V118.274L92.0217 113.467V98.1631ZM101.673 118.288L111.324 113.461V98.1494L101.673 102.976V118.288ZM101.375 102.45L110.943 97.6655L101.673 93.1704L92.386 97.6736L101.375 102.45Z" fill="black"/>
<path d="M97.8986 105.54C97.8616 106.504 97.2246 106.793 96.4758 106.185C95.727 105.577 95.15 104.303 95.1869 103.339C95.2239 102.375 95.8609 102.087 96.6097 102.694C97.3585 103.302 97.9356 104.576 97.8986 105.54Z" fill="white"/>
<path fill-rule="evenodd" clip-rule="evenodd" d="M96.5967 102.995C95.9772 102.492 95.4502 102.731 95.4196 103.528C95.389 104.326 95.8664 105.38 96.4859 105.883C97.1053 106.385 97.6323 106.147 97.6629 105.349C97.6935 104.552 97.2161 103.498 96.5967 102.995ZM94.9513 103.148C94.9946 102.018 95.7417 101.679 96.6198 102.392C97.4979 103.105 98.1746 104.599 98.1313 105.73C98.0879 106.86 97.3409 107.198 96.4627 106.485C95.5846 105.772 94.9079 104.278 94.9513 103.148Z" fill="black"/>
<path d="M96.9955 104.801C97.0079 104.479 96.8155 104.055 96.5659 103.852C96.3163 103.649 96.104 103.745 96.0917 104.067C96.0793 104.388 96.2717 104.813 96.5213 105.015C96.7709 105.218 96.9832 105.122 96.9955 104.801Z" fill="white"/>
<path fill-rule="evenodd" clip-rule="evenodd" d="M96.531 104.72C96.4108 104.622 96.3181 104.418 96.324 104.263C96.33 104.108 96.4323 104.062 96.5525 104.159C96.6728 104.257 96.7655 104.462 96.7595 104.616C96.7536 104.771 96.6513 104.817 96.531 104.72ZM95.8557 103.883C95.8369 104.37 96.129 105.015 96.5079 105.323C96.8868 105.63 97.2092 105.484 97.2279 104.997C97.2466 104.509 96.9546 103.864 96.5757 103.556C96.1967 103.249 95.8744 103.395 95.8557 103.883Z" fill="black"/>
<path d="M98.5352 113.249C98.4736 114.856 97.4119 115.336 96.1639 114.323C94.9159 113.31 93.9542 111.187 94.0158 109.58C94.0775 107.974 95.1391 107.493 96.3871 108.506C97.6352 109.52 98.5969 111.643 98.5352 113.249Z" fill="white"/>
<path fill-rule="evenodd" clip-rule="evenodd" d="M96.3746 108.807C95.2559 107.899 94.3042 108.33 94.249 109.77C94.1937 111.21 95.0558 113.113 96.1745 114.021C97.2931 114.929 98.2448 114.498 98.3 113.059C98.3553 111.619 97.4932 109.715 96.3746 108.807ZM93.7806 109.39C93.8487 107.617 95.0204 107.086 96.3977 108.204C97.775 109.322 98.8364 111.666 98.7684 113.439C98.7004 115.212 97.5287 115.742 96.1513 114.624C94.774 113.506 93.7126 111.162 93.7806 109.39Z" fill="black"/>
<path d="M96.9532 111.965C96.9347 112.447 96.6162 112.592 96.2418 112.288C95.8674 111.984 95.5789 111.347 95.5974 110.865C95.6159 110.383 95.9344 110.239 96.3088 110.543C96.6832 110.846 96.9717 111.484 96.9532 111.965Z" fill="white"/>
<path fill-rule="evenodd" clip-rule="evenodd" d="M96.2962 110.843C96.0511 110.644 95.8426 110.739 95.8305 111.054C95.8184 111.37 96.0073 111.787 96.2524 111.986C96.4974 112.184 96.7059 112.09 96.718 111.775C96.7301 111.459 96.5413 111.042 96.2962 110.843ZM95.3622 110.674C95.3871 110.026 95.8156 109.832 96.3193 110.24C96.8231 110.649 97.2112 111.507 97.1864 112.155C97.1615 112.803 96.733 112.997 96.2292 112.588C95.7255 112.179 95.3373 111.322 95.3622 110.674Z" fill="black"/>
<path d="M121.277 118.469L111.023 123.597L101.372 118.469V102.482L111.324 97.6562L121.277 102.482V118.469Z" fill="#6B6B6B"/>
<path fill-rule="evenodd" clip-rule="evenodd" d="M111.325 97.3203L121.579 102.293V118.655L111.019 123.935L101.07 118.649V102.293L111.325 97.3203ZM101.674 102.983L110.722 107.791V123.094L101.674 118.287V102.983ZM111.325 123.108L120.976 118.282V102.97L111.325 107.796V123.108ZM111.027 107.27L120.595 102.486L111.325 97.9907L102.038 102.494L111.027 107.27Z" fill="black"/>
<path d="M107.551 110.353C107.514 111.317 106.877 111.605 106.129 110.997C105.38 110.389 104.803 109.115 104.84 108.151C104.877 107.188 105.514 106.899 106.263 107.507C107.011 108.115 107.588 109.389 107.551 110.353Z" fill="white"/>
<path fill-rule="evenodd" clip-rule="evenodd" d="M106.249 107.808C105.63 107.305 105.103 107.543 105.072 108.341C105.042 109.138 105.519 110.192 106.139 110.695C106.758 111.198 107.285 110.959 107.316 110.162C107.346 109.365 106.869 108.311 106.249 107.808ZM104.604 107.961C104.647 106.83 105.394 106.492 106.273 107.205C107.151 107.918 107.827 109.412 107.784 110.542C107.741 111.672 106.994 112.011 106.116 111.298C105.237 110.585 104.561 109.091 104.604 107.961Z" fill="black"/>
<path d="M106.648 109.613C106.66 109.292 106.468 108.867 106.218 108.664C105.969 108.462 105.756 108.558 105.744 108.879C105.732 109.201 105.924 109.625 106.174 109.828C106.423 110.03 106.636 109.934 106.648 109.613Z" fill="white"/>
<path fill-rule="evenodd" clip-rule="evenodd" d="M106.184 109.532C106.064 109.435 105.971 109.23 105.977 109.075C105.983 108.92 106.085 108.874 106.205 108.972C106.326 109.069 106.418 109.274 106.412 109.429C106.406 109.584 106.304 109.63 106.184 109.532ZM105.508 108.695C105.49 109.183 105.782 109.828 106.161 110.135C106.54 110.443 106.862 110.297 106.881 109.809C106.899 109.321 106.607 108.677 106.229 108.369C105.85 108.061 105.527 108.207 105.508 108.695Z" fill="black"/>
<path d="M108.188 118.062C108.126 119.668 107.065 120.149 105.817 119.136C104.569 118.123 103.607 115.999 103.669 114.393C103.73 112.787 104.792 112.306 106.04 113.319C107.288 114.332 108.25 116.456 108.188 118.062Z" fill="white"/>
<path fill-rule="evenodd" clip-rule="evenodd" d="M106.027 113.62C104.909 112.711 103.957 113.142 103.902 114.582C103.847 116.022 104.709 117.926 105.827 118.834C106.946 119.742 107.898 119.311 107.953 117.871C108.008 116.431 107.146 114.528 106.027 113.62ZM103.433 114.202C103.501 112.429 104.673 111.899 106.051 113.017C107.428 114.135 108.489 116.479 108.421 118.251C108.353 120.024 107.182 120.555 105.804 119.437C104.427 118.318 103.365 115.975 103.433 114.202Z" fill="black"/>
<path d="M106.606 116.778C106.588 117.26 106.269 117.404 105.895 117.1C105.52 116.796 105.232 116.159 105.25 115.677C105.269 115.195 105.587 115.051 105.962 115.355C106.336 115.659 106.625 116.296 106.606 116.778Z" fill="white"/>
<path fill-rule="evenodd" clip-rule="evenodd" d="M105.949 115.656C105.704 115.457 105.495 115.551 105.483 115.867C105.471 116.182 105.66 116.599 105.905 116.798C106.15 116.997 106.359 116.903 106.371 116.587C106.383 116.272 106.194 115.855 105.949 115.656ZM105.015 115.486C105.04 114.838 105.468 114.644 105.972 115.053C106.476 115.462 106.864 116.319 106.839 116.967C106.814 117.616 106.386 117.81 105.882 117.401C105.378 116.992 104.99 116.135 105.015 115.486Z" fill="black"/>
<path d="M82.6731 128.637V159.406C82.6731 161.681 81.393 163.763 79.3626 164.789L76.5832 166.195L65.4254 171.747C64.5884 172.163 63.6784 172.374 62.7675 172.378C61.8545 172.383 60.9406 172.18 60.0981 171.77L55.6032 169.581C53.5282 168.571 52.2114 166.465 52.2114 164.157V133.429C52.2114 131.103 53.5478 128.985 55.6463 127.984L69.8391 121.213C71.4718 120.434 73.3679 120.429 75.0047 121.199L79.2095 123.178C81.3237 124.173 82.6731 126.3 82.6731 128.637Z" fill="#F1A347"/>
<path fill-rule="evenodd" clip-rule="evenodd" d="M69.7096 120.937C71.4239 120.12 73.4148 120.114 75.1334 120.923L79.3383 122.902C81.5581 123.947 82.975 126.18 82.975 128.634V159.403C82.975 161.792 81.6309 163.978 79.499 165.056L76.7196 166.461L76.7179 166.462L65.5601 172.014C64.6812 172.451 63.7257 172.672 62.7692 172.677C61.8107 172.682 60.8511 172.469 59.9665 172.038L55.4715 169.85C53.2928 168.789 51.9102 166.578 51.9102 164.154V133.426C51.9102 130.984 53.3133 128.76 55.5168 127.709L69.7096 120.937ZM74.8766 121.469C73.3216 120.737 71.5204 120.742 69.9693 121.482L55.7765 128.253C53.7829 129.204 52.5134 131.217 52.5134 133.426V164.154C52.5134 166.347 53.7643 168.347 55.7355 169.307L60.2305 171.496C60.9385 171.84 61.6996 172.031 62.4662 172.067V138.24C62.4662 135.811 63.855 133.596 66.0411 132.538L81.2231 125.191C80.6726 124.458 79.944 123.854 79.0814 123.448L74.8766 121.469ZM81.5626 125.697L66.3039 133.081C64.3259 134.039 63.0694 136.043 63.0694 138.24V172.064C63.8327 172.02 64.5891 171.823 65.2914 171.474L76.4474 165.922L76.4492 165.922L79.2268 164.517C81.1557 163.542 82.3718 161.564 82.3718 159.403V128.634C82.3718 127.578 82.0822 126.568 81.5626 125.697Z" fill="black"/>
<path fill-rule="evenodd" clip-rule="evenodd" d="M66.3867 114.07V123.296H65.7835V117.139L59.4499 120.168V126.614H58.8467V117.677L66.3867 114.07ZM59.4499 119.5L65.7835 116.47V115.028L59.4499 118.057V119.5Z" fill="black"/>
<path fill-rule="evenodd" clip-rule="evenodd" d="M81.597 131.411L80.7245 131.831L80.4628 131.287L81.3353 130.867L81.597 131.411ZM80.1428 132.111L78.3978 132.951L78.1362 132.408L79.8811 131.567L80.1428 132.111ZM77.8162 133.231L76.0712 134.072L75.8095 133.528L77.5545 132.688L77.8162 133.231ZM75.4895 134.352L73.7446 135.192L73.4829 134.648L75.2279 133.808L75.4895 134.352ZM73.1629 135.472L71.4179 136.312L71.1562 135.769L72.9012 134.928L73.1629 135.472ZM70.8363 136.592L69.0913 137.433L68.8296 136.889L70.5746 136.049L70.8363 136.592ZM68.5096 137.713L66.7647 138.553L66.503 138.009L68.248 137.169L68.5096 137.713ZM66.183 138.833L65.3105 139.253L65.0488 138.71L65.9213 138.29L66.183 138.833Z" fill="black"/>
<path fill-rule="evenodd" clip-rule="evenodd" d="M55.6972 147.968C55.7755 147.633 55.8307 147.186 55.8307 146.523H56.4339C56.4339 147.219 56.3761 147.714 56.2846 148.105C56.1927 148.498 56.0691 148.775 55.9537 149.025C55.9476 149.039 55.9414 149.052 55.9354 149.065C55.8282 149.297 55.7335 149.501 55.6607 149.781C55.5838 150.075 55.529 150.464 55.529 151.048C55.529 151.632 55.5838 152.02 55.6607 152.315C55.7335 152.594 55.8282 152.799 55.9354 153.031C55.9414 153.044 55.9476 153.057 55.9537 153.071C56.0691 153.321 56.1927 153.598 56.2846 153.991C56.3761 154.382 56.4339 154.877 56.4339 155.572H55.8307C55.8307 154.91 55.7755 154.463 55.6972 154.128C55.6195 153.796 55.5168 153.564 55.406 153.323C55.399 153.308 55.3919 153.293 55.3848 153.278C55.2789 153.049 55.1638 152.8 55.0769 152.467C54.9841 152.112 54.9258 151.67 54.9258 151.048C54.9258 150.426 54.9841 149.984 55.0769 149.629C55.1638 149.296 55.2789 149.047 55.3848 148.818C55.3919 148.803 55.399 148.788 55.406 148.772C55.5168 148.532 55.6195 148.3 55.6972 147.968Z" fill="black"/>
<path fill-rule="evenodd" clip-rule="evenodd" d="M57.5068 148.569C57.585 148.234 57.6402 147.787 57.6402 147.125H58.2435C58.2435 147.82 58.1856 148.315 58.0942 148.707C58.0022 149.1 57.8787 149.377 57.7633 149.627C57.7571 149.64 57.751 149.653 57.7449 149.666C57.6378 149.898 57.5431 150.103 57.4702 150.382C57.3934 150.677 57.3386 151.065 57.3386 151.649C57.3386 152.234 57.3934 152.622 57.4702 152.917C57.5431 153.196 57.6378 153.401 57.7449 153.632C57.751 153.646 57.7571 153.659 57.7633 153.672C57.8787 153.922 58.0022 154.199 58.0942 154.592C58.1856 154.984 58.2435 155.479 58.2435 156.174H57.6402C57.6402 155.512 57.585 155.064 57.5068 154.73C57.4291 154.397 57.3264 154.165 57.2156 153.925C57.2085 153.91 57.2015 153.895 57.1944 153.879C57.0884 153.65 56.9733 153.402 56.8865 153.069C56.7937 152.713 56.7354 152.272 56.7354 151.649C56.7354 151.027 56.7937 150.586 56.8865 150.23C56.9733 149.897 57.0884 149.649 57.1944 149.42C57.2015 149.404 57.2085 149.389 57.2156 149.374C57.3264 149.134 57.4291 148.902 57.5068 148.569Z" fill="black"/>
<path d="M54.4052 163.077C55.1965 164.559 55.2619 166.994 54.5514 168.516C53.8409 170.038 52.6234 170.071 51.8321 168.589C51.0409 167.107 50.9754 164.672 51.6859 163.15C52.3965 161.628 53.6139 161.596 54.4052 163.077Z" fill="white"/>
<path fill-rule="evenodd" clip-rule="evenodd" d="M51.8292 163.417C51.1891 164.788 51.2481 166.982 51.9609 168.316C52.6737 169.651 53.7704 169.621 54.4104 168.25C55.0505 166.879 54.9915 164.686 54.2787 163.351C53.5659 162.017 52.4692 162.046 51.8292 163.417ZM51.7057 168.863C50.8359 167.234 50.764 164.558 51.545 162.885C52.326 161.212 53.6642 161.176 54.5339 162.805C55.4037 164.433 55.4756 167.11 54.6946 168.782C53.9136 170.455 52.5754 170.491 51.7057 168.863Z" fill="black"/>
<path d="M184.011 177.285L154.454 192.065L151.438 190.545L117.96 173.675L115.547 172.459V152.853V123.293V82.8737L145.104 68.0938L184.011 88.3031V177.285Z" fill="#837477"/>
<path d="M184 88.5L154.5 103V192L184 177.5V88.5Z" fill="#908386"/>
<path fill-rule="evenodd" clip-rule="evenodd" d="M145.107 67.7578L184.312 88.1225V177.474L154.453 192.405L115.246 172.647V82.6899L145.107 67.7578ZM115.849 83.3695V122.814L145.104 108.628V98.3389L115.849 83.3695ZM145.707 98.6475V108.63L154.152 112.853V102.969L145.707 98.6475ZM154.755 102.972V191.579L183.709 177.101V88.7893L154.755 102.972ZM183.341 88.2978L154.457 102.447L116.215 82.8794L145.101 68.4349L183.341 88.2978ZM154.152 191.578V172.647L115.849 153.345V172.275L154.152 191.578ZM116.227 152.86L154.152 171.971V143.087L145.403 138.678L116.227 152.86ZM144.726 138.337L115.849 123.785V152.373L144.726 138.337ZM116.228 123.3L154.152 142.411V113.528L145.404 109.153L116.228 123.3Z" fill="black"/>
<path d="M134.548 182.117L104.991 196.897L101.975 195.377L68.4973 178.507L66.0845 177.291V149.842L80.8629 142.452L95.6413 135.062L134.548 155.272V182.117Z" fill="#E7C89E"/>
<path fill-rule="evenodd" clip-rule="evenodd" d="M95.6443 134.719L134.85 155.083V182.298L104.991 197.229L65.7832 177.472V149.651L95.6443 134.719ZM95.6391 135.396L66.753 149.84L104.994 169.408L133.879 155.259L95.6391 135.396ZM134.247 155.75L105.293 169.933V196.404L134.247 181.926V155.75ZM104.69 196.402V169.93L66.3864 150.33V177.1L104.69 196.402Z" fill="black"/>
<path fill-rule="evenodd" clip-rule="evenodd" d="M120.675 162.662L101.141 153.04L102.207 150.875L123.088 161.161V167.039H120.675V162.662Z" fill="#F0512D"/>
<path d="M122.787 154.361L101.373 164.314L98.3569 162.795L83.8801 155.576L81.4673 154.361V138.977L92.1741 134L102.881 129.023L122.787 139.581V154.361Z" fill="#E7C89E"/>
<path fill-rule="evenodd" clip-rule="evenodd" d="M102.89 128.688L123.089 139.4V154.554L101.368 164.65L98.2227 163.065L98.2215 163.065L83.7459 155.847L83.7447 155.847L81.166 154.547V138.786L102.89 128.688ZM102.872 129.361L82.1532 138.992L101.382 148.899L122.102 139.559L102.872 129.361ZM122.485 140.048L101.675 149.429V163.842L122.485 154.169V140.048ZM101.072 163.825V149.418L81.7692 139.473V154.176L84.015 155.307L84.0161 155.308L98.493 162.526L101.072 163.825Z" fill="black"/>
<path fill-rule="evenodd" clip-rule="evenodd" d="M111.628 144.553L92.0942 134.93L93.1603 132.766L114.041 143.051V148.93H111.628V144.553Z" fill="#F0512D"/>
<path d="M154.455 172.165V192.374L148.365 195.453L125.199 207.166L104.992 196.899V176.689L134.549 162.211L154.455 172.165Z" fill="#A4A5AB"/>
<path d="M147.5 178.5L126.5 188.5V204.5L147.5 193.5V178.5Z" fill="#D9D9D9"/>
<path fill-rule="evenodd" clip-rule="evenodd" d="M134.551 161.875L154.757 171.979V192.56L125.199 207.505L104.691 197.084V176.502L134.551 161.875ZM105.294 177.175V196.714L124.898 206.675V186.843L105.294 177.175ZM125.501 186.843V206.676L148.064 195.268V175.668L125.501 186.843ZM148.667 175.369V194.963L154.153 192.189V172.651L148.667 175.369ZM153.778 172.164L125.199 186.319L105.676 176.691L134.548 162.548L153.778 172.164ZM153.852 174.392V178.083L149.026 180.496V176.805L153.852 174.392ZM149.629 177.178V179.52L153.249 177.71V175.368L149.629 177.178ZM147.518 178.015V193.767L126.105 204.63V188.568L147.518 178.015ZM126.708 188.943V203.647L146.915 193.396V178.985L126.708 188.943Z" fill="black"/>
<path d="M152.947 188.673C152.947 189.839 152.407 191.168 151.741 191.168C151.074 191.168 150.534 190.607 150.534 189.441C150.534 188.275 151.074 186.945 151.741 186.945C152.407 186.945 152.947 187.507 152.947 188.673Z" fill="white"/>
<path fill-rule="evenodd" clip-rule="evenodd" d="M151.162 187.878C150.962 188.315 150.836 188.895 150.836 189.438C150.836 189.978 150.961 190.338 151.127 190.556C151.288 190.766 151.5 190.863 151.741 190.863C151.801 190.863 151.888 190.834 151.998 190.725C152.108 190.616 152.22 190.448 152.319 190.229C152.519 189.793 152.645 189.212 152.645 188.67C152.645 188.129 152.52 187.769 152.354 187.552C152.194 187.341 151.981 187.244 151.741 187.244C151.68 187.244 151.593 187.273 151.483 187.383C151.373 187.491 151.262 187.659 151.162 187.878ZM151.059 186.954C151.237 186.777 151.468 186.641 151.741 186.641C152.166 186.641 152.557 186.824 152.834 187.186C153.104 187.54 153.249 188.044 153.249 188.67C153.249 189.294 153.105 189.961 152.868 190.48C152.75 190.74 152.601 190.977 152.422 191.154C152.244 191.33 152.013 191.467 151.741 191.467C151.315 191.467 150.924 191.284 150.648 190.922C150.377 190.567 150.232 190.063 150.232 189.438C150.232 188.814 150.376 188.147 150.613 187.627C150.732 187.368 150.88 187.131 151.059 186.954Z" fill="black"/>
</g>
</svg>
