<svg width="232" height="216" viewBox="0 0 232 216" fill="none" xmlns="http://www.w3.org/2000/svg">
<rect x="-0.000244141" width="232" height="216" rx="16" fill="transparent"/>
<path d="M98.5001 117V56.5M98.5001 56.5L46.8251 84.8992M98.5001 56.5L93.0001 54L40.9751 82.9492M46.8251 84.8992V152M46.8251 84.8992L40.9751 82.9492M46.8251 152L40.9751 149.249V82.9492M46.8251 152L52.0251 149.249V139.5" stroke="black" stroke-width="0.7"/>
<path d="M46.8252 130.602L147.775 176.602M46.8252 130.602V137.102L143.614 182.415M46.8252 130.602L94.2752 99.8516L200.525 148.652M147.775 176.602L200.525 148.652M147.775 176.602V184.402M200.525 148.652V155.004M200.525 155.004V170.352L198 172.004M200.525 155.004L197 157.004M147.775 184.402V198.302M147.775 184.402L152 182.004M147.775 184.402L143.614 182.415M198 172.004L197 157.004M198 172.004L195.5 171.004L193.075 159.474M197 157.004L193.075 159.474M193.075 159.474L152 182.004M147.775 198.302L150 197.004L152 182.004M147.775 198.302L145.5 197.004L143.614 182.415" stroke="black" stroke-width="0.7"/>
<path d="M51.6816 128.699L147.775 173.35L198.177 147.093C199.466 146.421 200.275 145.088 200.275 143.634V132.725C200.275 131.163 199.343 129.752 197.907 129.139L98.6201 86.7451C97.5185 86.2747 96.2618 86.3367 95.2118 86.9131L51.4482 110.939C50.2005 111.624 49.425 112.935 49.425 114.358V125.162C49.425 126.679 50.3054 128.059 51.6816 128.699Z" fill="white"/>
<path d="M147.775 173.35L51.6816 128.699C50.3054 128.059 49.425 126.679 49.425 125.162V114.358C49.425 112.935 50.2005 111.624 51.4482 110.939L95.2118 86.9131C96.2618 86.3367 97.5185 86.2747 98.6201 86.7451L197.907 129.139C199.343 129.752 200.275 131.163 200.275 132.725V143.634C200.275 145.088 199.466 146.421 198.177 147.093L147.775 173.35ZM147.775 173.35V157.5" stroke="black" stroke-width="0.7"/>
<path d="M50 113L148 158L200.5 130.5" stroke="black" stroke-width="0.7"/>
<path d="M106.038 101.983L83.6548 117.029C82.7613 117.629 81.6145 117.705 80.6497 117.227L61.4151 107.701C60.5293 107.262 59.9165 106.415 59.7767 105.437L59.2777 101.944C59.109 100.763 59.6556 99.5947 60.67 98.9676L84.9647 83.9491C85.9093 83.3651 87.0993 83.3508 88.0577 83.9118L105.655 94.2129C106.498 94.7063 107.048 95.5793 107.129 96.5528L107.354 99.2441C107.444 100.328 106.94 101.376 106.038 101.983Z" fill="white" stroke="black" stroke-width="0.7"/>
</svg>
