<svg width="232" height="216" viewBox="0 0 232 216" fill="none" xmlns="http://www.w3.org/2000/svg">
<rect x="-0.000244141" width="232" height="216" rx="16" fill="transparent"/>
<path fill-rule="evenodd" clip-rule="evenodd" d="M109.058 19L163.116 48.7348V179.199L121.945 201L67.8839 172.15V40.8014L109.058 19ZM68.7145 41.7944V99.3887L109.055 78.6754V63.6524L68.7145 41.7944ZM109.886 64.1026V78.678L121.53 84.8441V70.4128L109.886 64.1026ZM122.363 70.4179V199.794L162.286 178.653V49.7072L122.363 70.4179ZM161.778 48.9895L121.95 69.6487L69.2195 41.0792L109.05 19.9878L161.778 48.9895ZM121.53 199.791V163.685L68.7145 135.501V171.607L121.53 199.791ZM69.2375 134.794L121.53 162.7V128.99L99.9448 117.26L69.2375 134.794ZM99.0091 116.764L68.7145 100.806V134.084L99.0091 116.764ZM69.2375 100.099L121.53 128.002V85.8294L109.468 79.442L69.2375 100.099Z" fill="#1B1B1E"/>
<path fill-rule="evenodd" clip-rule="evenodd" d="M67.8838 41.2188L121.849 70.3176V200.469L67.8838 171.899V41.2188ZM71.0582 48.625L117.616 72.9622V192.532L71.0582 167.666V48.625Z" fill="white"/>
<path d="M121.849 70.3176H122.272V70.0649L122.05 69.945L121.849 70.3176ZM67.8838 41.2188L68.0847 40.8462L67.4605 40.5097V41.2188H67.8838ZM121.849 200.469L121.651 200.843L122.272 201.172V200.469H121.849ZM67.8838 171.899H67.4605V172.154L67.6858 172.273L67.8838 171.899ZM117.616 72.9622H118.04V72.7059L117.812 72.5871L117.616 72.9622ZM71.0582 48.625L71.2543 48.2499L70.635 47.9262V48.625H71.0582ZM117.616 192.532L117.417 192.905L118.04 193.238V192.532H117.616ZM71.0582 167.666H70.635V167.919L70.8588 168.039L71.0582 167.666ZM122.05 69.945L68.0847 40.8462L67.6829 41.5913L121.648 70.6901L122.05 69.945ZM122.272 200.469V70.3176H121.426V200.469H122.272ZM67.6858 172.273L121.651 200.843L122.047 200.095L68.0818 171.525L67.6858 172.273ZM67.4605 41.2188V171.899H68.307V41.2188H67.4605ZM117.812 72.5871L71.2543 48.2499L70.8622 49.0001L117.42 73.3373L117.812 72.5871ZM118.04 192.532V72.9622H117.193V192.532H118.04ZM70.8588 168.039L117.417 192.905L117.816 192.159L71.2576 167.292L70.8588 168.039ZM70.635 48.625V167.666H71.4815V48.625H70.635Z" fill="black"/>
<path d="M91.1628 178.252L91.1628 59.2109L94.8663 61.0957L94.8663 180.368L91.1628 178.252Z" fill="white" stroke="black" stroke-width="0.846512"/>
<path d="M98.5698 157.617V164.495" stroke="black" stroke-width="0.846512"/>
<path d="M87.9883 154.441V161.319" stroke="black" stroke-width="0.846512"/>
</svg>
