<svg width="232" height="216" viewBox="0 0 232 216" fill="none" xmlns="http://www.w3.org/2000/svg">
<rect width="232" height="216" rx="16" fill="transparent"/>
<path d="M87.1942 62.4844L199.596 118.754V121.372L143.83 149.288L31.4282 93.4564V90.4024L87.1942 62.4844Z" fill="white"/>
<path fill-rule="evenodd" clip-rule="evenodd" d="M87.2025 62L200.04 118.488V181.028H199.168V122.082L144.274 149.562V208.944H143.402V149.562L31.8725 94.162V154.548H31.0005V90.136L87.2025 62ZM31.8725 93.188L143.402 148.588V146.51L31.8725 91.108V93.188ZM32.4145 90.404L143.84 145.752L198.624 118.754L87.2025 62.976L32.4145 90.404ZM199.168 119.458L144.274 146.51V148.586L199.168 121.106V119.458Z" fill="#1B1B1E"/>
<path d="M94.3451 76.3346C94.3451 79.7066 89.6651 82.4406 83.8891 82.4406C78.1151 82.4406 73.4331 79.7066 73.4331 76.3346C73.4331 72.9606 78.1151 70.2266 83.8891 70.2266C89.6651 70.2266 94.3451 72.9606 94.3451 76.3346Z" fill="white"/>
<path fill-rule="evenodd" clip-rule="evenodd" d="M76.7185 72.3911C74.8925 73.4571 73.8725 74.8671 73.8725 76.3331C73.8725 77.7991 74.8925 79.2091 76.7185 80.2751C78.5325 81.3331 81.0685 82.0031 83.8925 82.0031C86.7165 82.0031 89.2505 81.3331 91.0665 80.2751C92.8905 79.2091 93.9125 77.7991 93.9125 76.3331C93.9125 74.8671 92.8905 73.4571 91.0665 72.3911C89.2505 71.3311 86.7165 70.6631 83.8925 70.6631C81.0685 70.6631 78.5325 71.3311 76.7185 72.3911ZM76.2785 71.6371C78.2485 70.4871 80.9405 69.7891 83.8925 69.7891C86.8425 69.7891 89.5345 70.4871 91.5045 71.6371C93.4645 72.7831 94.7845 74.4271 94.7845 76.3331C94.7845 78.2391 93.4645 79.8831 91.5045 81.0271C89.5345 82.1791 86.8425 82.8751 83.8925 82.8751C80.9405 82.8751 78.2485 82.1791 76.2785 81.0271C74.3205 79.8831 73.0005 78.2391 73.0005 76.3331C73.0005 74.4271 74.3205 72.7831 76.2785 71.6371Z" fill="#1B1B1E"/>
<path d="M83.021 66.7344H84.767V76.3304H83.021V66.7344Z" fill="white"/>
<path fill-rule="evenodd" clip-rule="evenodd" d="M83.4604 66.7344V76.3304H82.5884V66.7344H83.4604ZM84.3324 76.3304V66.7344H85.2044V76.3304H84.3324Z" fill="#1B1B1E"/>
<path d="M83.8891 41.4375C80.0391 41.4375 76.9171 43.3895 76.9171 45.7995L73.4331 63.2475C73.4331 66.6195 78.1131 69.3535 83.8891 69.3535C89.6631 69.3535 94.3451 66.6195 94.3451 63.2475L90.8591 45.7995C90.8591 43.3895 87.7391 41.4375 83.8891 41.4375Z" fill="white"/>
<path fill-rule="evenodd" clip-rule="evenodd" d="M79.1945 43.084C78.0065 43.826 77.3565 44.798 77.3565 45.798V45.842L73.8725 63.288C73.8905 64.74 74.9105 66.132 76.7185 67.188C78.5325 68.248 81.0685 68.916 83.8925 68.916C86.7165 68.916 89.2505 68.248 91.0665 67.188C92.8745 66.132 93.8925 64.74 93.9125 63.288L90.4265 45.842V45.798C90.4265 44.798 89.7785 43.826 88.5905 43.084C87.4085 42.344 85.7485 41.872 83.8925 41.872C82.0365 41.872 80.3765 42.344 79.1945 43.084ZM78.7325 42.344C80.0725 41.504 81.8985 41 83.8925 41C85.8845 41 87.7105 41.504 89.0525 42.344C90.3725 43.17 91.2785 44.364 91.2985 45.754L94.7845 63.202V63.246C94.7845 65.152 93.4645 66.796 91.5045 67.94C89.5345 69.092 86.8425 69.788 83.8925 69.788C80.9405 69.788 78.2485 69.092 76.2785 67.94C74.3205 66.796 73.0005 65.152 73.0005 63.246V63.202L76.4865 45.754C76.5045 44.364 77.4105 43.17 78.7325 42.344Z" fill="#1B1B1E"/>
<path fill-rule="evenodd" clip-rule="evenodd" d="M79.1945 43.084C78.0065 43.826 77.3565 44.798 77.3565 45.798C77.3565 46.798 78.0065 47.77 79.1945 48.512C80.3765 49.252 82.0365 49.724 83.8925 49.724C85.7485 49.724 87.4085 49.252 88.5905 48.512C89.7785 47.77 90.4265 46.798 90.4265 45.798C90.4265 44.798 89.7785 43.826 88.5905 43.084C87.4085 42.344 85.7485 41.872 83.8925 41.872C82.0365 41.872 80.3765 42.344 79.1945 43.084ZM78.7325 42.344C80.0725 41.504 81.8985 41 83.8925 41C85.8845 41 87.7105 41.504 89.0525 42.344C90.3725 43.17 91.2785 44.364 91.2985 45.754L94.7845 63.202V63.246C94.7845 65.152 93.4645 66.796 91.5045 67.94C89.5345 69.092 86.8425 69.788 83.8925 69.788C80.9405 69.788 78.2485 69.092 76.2785 67.94C74.3205 66.796 73.0005 65.152 73.0005 63.246V63.202L76.4865 45.754C76.5045 44.364 77.4105 43.17 78.7325 42.344ZM77.0085 47.586L73.8725 63.288C73.8905 64.74 74.9105 66.132 76.7185 67.188C78.5325 68.248 81.0685 68.916 83.8925 68.916C86.7165 68.916 89.2505 68.248 91.0665 67.188C92.8745 66.132 93.8925 64.74 93.9125 63.288L90.7745 47.586C90.3785 48.234 89.7785 48.798 89.0525 49.252C87.7105 50.092 85.8845 50.596 83.8925 50.596C81.8985 50.596 80.0725 50.092 78.7325 49.252C78.0065 48.798 77.4045 48.234 77.0085 47.586Z" fill="#1B1B1E"/>
<path fill-rule="evenodd" clip-rule="evenodd" d="M83.899 46.2314C82.263 46.2314 80.849 47.7434 80.849 49.7214H79.979C79.979 47.3614 81.687 45.3594 83.899 45.3594C86.113 45.3594 87.821 47.3614 87.821 49.7214H86.951C86.951 47.7434 85.537 46.2314 83.899 46.2314Z" fill="#1B1B1E"/>
<path d="M64.5005 110V171M64.5005 171L31.0005 154M64.5005 171L101 150.5V128" stroke="black"/>
<path d="M60.5005 128.5V141.5" stroke="black"/>
</svg>
