<svg width="232" height="216" viewBox="0 0 232 216" fill="none" xmlns="http://www.w3.org/2000/svg">
<rect width="232" height="216" rx="16" fill="transparent"/>
<path d="M220 135.5V128.5M220 135.5L219.5 152.5L217.5 154M220 135.5L217 137.176M220 128.5L118 186M220 128.5L212.5 125.5M118 186L17.0005 137.236M118 186V206.5M17.0005 137.236V144.736L112.683 189.985M17.0005 137.236L20.5005 135.5M217.5 154L217 137.176M217.5 154L215.5 153.5L213 139.412M217 137.176L213 139.412M213 139.412L122.5 189.985M122.5 189.985L118 192.5L112.683 189.985M122.5 189.985L120 205.5L118 206.5M118 206.5L115 205.5L112.683 189.985" stroke="black" stroke-width="0.7"/>
<path d="M69.1226 110.758L171 153L215.338 127.623C216.551 126.929 217.3 125.637 217.3 124.239V114.733C217.3 113.167 216.364 111.753 214.922 111.142L117.203 69.7216C116.125 69.2649 114.9 69.3161 113.864 69.8611L69.8579 93.0223C68.6981 93.6327 67.9225 94.7848 67.7933 96.0891L66.7353 106.771C66.566 108.481 67.5355 110.1 69.1226 110.758Z" fill="white"/>
<path d="M171 153L69.1226 110.758C67.5355 110.1 66.566 108.481 66.7353 106.771L67.7933 96.0891C67.9225 94.7848 68.6981 93.6327 69.8579 93.0223L113.864 69.8611C114.9 69.3161 116.125 69.2649 117.203 69.7216L214.922 111.142C216.364 111.753 217.3 113.167 217.3 114.733V124.239C217.3 125.637 216.551 126.929 215.338 127.623L171 153ZM171 153L164.8 139.5" stroke="black" stroke-width="0.7"/>
<path d="M67.0254 95L169.5 139L216.5 112.5" stroke="black" stroke-width="0.7"/>
<path d="M123.063 83.983L100.68 99.0287C99.7867 99.6293 98.6399 99.7051 97.6751 99.2273L78.4405 89.7008C77.5547 89.2621 76.9419 88.4153 76.8021 87.4368L76.3031 83.9437C76.1344 82.7631 76.681 81.5947 77.6954 80.9676L101.99 65.9491C102.935 65.3651 104.125 65.3508 105.083 65.9118L122.681 76.2129C123.524 76.7063 124.074 77.5793 124.155 78.5528L124.379 81.2441C124.469 82.3281 123.966 83.3761 123.063 83.983Z" fill="white" stroke="black" stroke-width="0.7"/>
<path d="M21.673 136.709L117.8 182.5L168.261 155.107C169.518 154.425 170.3 153.11 170.3 151.68V140.725C170.3 139.163 169.368 137.752 167.932 137.139L68.6452 94.7451C67.5436 94.2747 66.2869 94.3367 65.2369 94.9131L21.4733 118.939C20.2256 119.624 19.4502 120.935 19.4502 122.358V133.188C19.4502 134.692 20.3151 136.062 21.673 136.709Z" fill="white"/>
<path d="M117.8 182.5L21.673 136.709C20.3151 136.062 19.4502 134.692 19.4502 133.188V122.358C19.4502 120.935 20.2256 119.624 21.4733 118.939L65.2369 94.9131C66.2869 94.3367 67.5436 94.2747 68.6452 94.7451L167.932 137.139C169.368 137.752 170.3 139.163 170.3 140.725V151.68C170.3 153.11 169.518 154.425 168.261 155.107L117.8 182.5ZM117.8 182.5V167.5" stroke="black" stroke-width="0.7"/>
<path d="M20.0254 121L116.619 167.325C117.5 167.748 118.533 167.715 119.386 167.236L170.525 138.5" stroke="black" stroke-width="0.7"/>
<path d="M76.0631 109.983L53.6802 125.029C52.7867 125.629 51.6399 125.705 50.6751 125.227L31.4405 115.701C30.5547 115.262 29.9419 114.415 29.8021 113.437L29.3031 109.944C29.1344 108.763 29.681 107.595 30.6954 106.968L54.9901 91.9491C55.9347 91.3651 57.1247 91.3508 58.0831 91.9118L75.6807 102.213C76.5237 102.706 77.0737 103.579 77.1548 104.553L77.3791 107.244C77.4694 108.328 76.9658 109.376 76.0631 109.983Z" fill="white" stroke="black" stroke-width="0.7"/>
<path d="M116 72V37.5M116 37.5L17.0005 93M116 37.5L110 35L11.0005 90.5M17.0005 93V161M17.0005 93L11.0005 90.5M17.0005 161L11.0005 158.5V90.5M17.0005 161L22.0005 158.5V147.5" stroke="black" stroke-width="0.7"/>
</svg>
