<svg width="232" height="216" viewBox="0 0 232 216" fill="none" xmlns="http://www.w3.org/2000/svg">
<rect width="232" height="216" rx="16" fill="transparent"/>
<path d="M41.8419 135.346L45.7455 137.398L49.4779 135.413L90.9074 113.382L93.072 112.23C93.5757 111.963 93.8932 111.418 93.8932 110.824V75.9472L88.6013 73.1652C88.174 72.9407 87.6711 72.9453 87.2475 73.1774L41.7855 98.0974C40.5493 98.7752 39.7734 100.123 39.7734 101.593V131.821C39.7734 133.315 40.5746 134.681 41.8419 135.346Z" fill="white"/>
<path fill-rule="evenodd" clip-rule="evenodd" d="M88.7746 72.8159C88.2406 72.5352 87.6118 72.541 87.0824 72.8311L41.6206 97.7511C40.2606 98.4966 39.4072 99.9792 39.4072 101.597V131.824C39.4072 133.467 40.2884 134.969 41.6825 135.703L45.7534 137.843L93.2472 112.584C93.8765 112.251 94.2736 111.57 94.2736 110.826V75.7064L88.7746 72.8159ZM87.4266 73.5301C87.7441 73.3561 88.1214 73.3527 88.4419 73.5211L93.0721 75.9549L46.3953 101.159C45.7715 101.496 45.3793 102.173 45.3793 102.912V136.766L42.0155 134.997C40.8747 134.398 40.1538 133.167 40.1538 131.824V101.597C40.1538 100.273 40.8519 99.0603 41.9646 98.4503L87.4266 73.5301ZM46.1256 136.761V102.912C46.1256 102.469 46.361 102.063 46.7354 101.861L93.527 76.5943V110.826C93.527 111.273 93.2889 111.68 92.9113 111.883L46.1256 136.761Z" fill="#1B1B1E"/>
<path d="M138.477 185.956L142.38 188.008L146.113 186.022L187.542 163.992L189.707 162.839C190.21 162.572 190.528 162.027 190.528 161.433V126.557L185.236 123.775C184.809 123.55 184.306 123.555 183.882 123.787L138.42 148.707C137.184 149.385 136.408 150.732 136.408 152.203V182.431C136.408 183.924 137.209 185.291 138.477 185.956Z" fill="white"/>
<path fill-rule="evenodd" clip-rule="evenodd" d="M185.409 123.425C184.875 123.145 184.247 123.15 183.717 123.44L138.255 148.36C136.895 149.106 136.042 150.589 136.042 152.206V182.433C136.042 184.076 136.923 185.578 138.317 186.312L142.388 188.452L189.882 163.194C190.511 162.86 190.908 162.179 190.908 161.436V126.316L185.409 123.425ZM184.061 124.139C184.379 123.966 184.756 123.962 185.077 124.13L189.707 126.564L143.03 151.769C142.406 152.106 142.014 152.783 142.014 153.521V187.375L138.65 185.606C137.509 185.008 136.789 183.777 136.789 182.433V152.206C136.789 150.883 137.487 149.67 138.599 149.06L184.061 124.139ZM142.76 187.371V153.521C142.76 153.078 142.996 152.672 143.37 152.47L190.162 127.204V161.436C190.162 161.882 189.924 162.289 189.546 162.492L142.76 187.371Z" fill="#1B1B1E"/>
<path d="M23.4351 116.924L27.3387 118.977L31.0711 116.991L72.5007 94.9606L74.6653 93.8079C75.1689 93.541 75.4865 92.9957 75.4865 92.4021V57.5253L70.1946 54.7434C69.7673 54.5188 69.2643 54.5234 68.8408 54.7555L23.3788 79.6755C22.1425 80.3534 21.3667 81.7012 21.3667 83.1714V113.399C21.3667 114.893 22.1679 116.259 23.4351 116.924Z" fill="white"/>
<path fill-rule="evenodd" clip-rule="evenodd" d="M70.3679 54.394C69.8339 54.1133 69.2051 54.1191 68.6756 54.4092L23.2139 79.3292C21.8539 80.0747 21.0005 81.5573 21.0005 83.1748V113.402C21.0005 115.045 21.8817 116.547 23.2758 117.281L27.3466 119.421L74.8405 94.1624C75.4697 93.8288 75.8669 93.1477 75.8669 92.4046V57.2846L70.3679 54.394ZM69.0199 55.1082C69.3374 54.9343 69.7147 54.9308 70.0352 55.0992L74.6654 57.533L27.9886 82.7374C27.3648 83.0743 26.9725 83.7514 26.9725 84.4897V118.344L23.6087 116.575C22.468 115.977 21.7471 114.746 21.7471 113.402V83.1748C21.7471 81.8514 22.4452 80.6384 23.5579 80.0284L69.0199 55.1082ZM27.7189 118.339V84.4897C27.7189 84.0471 27.9543 83.6407 28.3286 83.4387L75.1203 58.1724V92.4046C75.1203 92.8509 74.8821 93.2582 74.5046 93.4607L27.7189 118.339Z" fill="#1B1B1E"/>
<path d="M27.5952 117.179V111.599C27.5952 108.452 29.371 105.606 32.1113 104.361L64.9192 89.4722V53.2485C64.9192 50.3301 66.4476 47.651 68.8913 46.2855L74.2235 43.3062C76.349 42.1187 78.8863 42.0844 81.0397 43.2146L116.799 61.9797L155.616 82.3488L207.088 109.358C209.626 110.69 211.229 113.424 211.229 116.413V127.682V150.136V164.219C211.229 164.52 211.066 164.794 210.811 164.928L164.152 189.001C162.065 190.078 159.622 190.069 157.544 188.974L105.447 161.559L68.7669 142.258L30.489 122.114C28.7157 121.182 27.5952 119.27 27.5952 117.179Z" fill="white"/>
<path fill-rule="evenodd" clip-rule="evenodd" d="M80.8762 43.5705C78.8303 42.497 76.4199 42.5294 74.4007 43.6577L69.0686 46.6371C66.747 47.9343 65.295 50.4794 65.295 53.2517V89.2308L102.992 109.036V73.6163C102.992 70.402 104.756 67.4786 107.517 66.1197L115.943 61.9716L80.8762 43.5705ZM116.797 62.42L107.833 66.8337C105.334 68.063 103.739 70.708 103.739 73.6163V109.427L139.961 128.458L140.928 94.2742C141.015 91.1727 142.738 88.3841 145.394 87.052L154.765 82.3445L116.797 62.42ZM155.616 82.7904L145.713 87.7629C143.311 88.9685 141.751 91.4926 141.673 94.2973L140.695 128.844L195.558 157.667L210.859 149.892V116.417C210.859 114.772 210.348 113.208 209.449 111.938L202.137 116.312C199.914 117.639 198.543 120.126 198.543 122.823V135.171H197.795V122.823C197.795 119.843 199.313 117.094 201.768 115.626L208.963 111.323C208.39 110.672 207.704 110.125 206.925 109.715L155.616 82.7904ZM210.859 150.766L165.234 173.952C162.779 175.199 161.219 177.819 161.219 180.695V189.402C162.169 189.354 163.115 189.103 163.991 188.649L210.65 164.576C210.776 164.509 210.859 164.373 210.859 164.222V150.766ZM160.471 189.4V180.695C160.471 177.516 162.196 174.619 164.909 173.241L194.707 158.099L140.316 129.525L109.756 145.562C107.347 146.825 105.824 149.423 105.824 152.262V161.318L157.712 188.624C158.584 189.084 159.523 189.342 160.471 189.4ZM105.076 160.927V152.262C105.076 149.124 106.76 146.254 109.425 144.856L139.478 129.083L103.364 110.113L73.0966 125.871C70.6757 127.132 69.1426 129.735 69.1426 132.583V142.016L105.076 160.927ZM68.3963 141.625V132.583C68.3963 129.435 70.0906 126.559 72.7664 125.165L102.525 109.671L64.9103 89.9096L32.2611 104.727C29.658 105.907 27.971 108.611 27.971 111.602V117.184C27.971 119.125 29.0117 120.899 30.6581 121.764L68.3963 141.625ZM64.5486 89.217V53.2517C64.5486 50.1875 66.1534 47.3745 68.7193 45.9408L74.0515 42.9613C76.2833 41.7144 78.9474 41.6786 81.2084 42.8651L207.256 109.009C209.92 110.408 211.604 113.277 211.604 116.417V164.222C211.604 164.675 211.361 165.087 210.976 165.285L164.32 189.358C162.127 190.49 159.562 190.479 157.379 189.33L30.325 122.471C28.4252 121.47 27.2246 119.422 27.2246 117.184V111.602C27.2246 108.298 29.089 105.309 31.9664 104.002L64.5486 89.217Z" fill="#1B1B1E"/>
<path d="M159.195 187.965L161.425 189.136C162.476 189.691 163.717 189.689 164.768 189.13L166.83 188.032L208.26 165.999L209.192 165.505C210.451 164.835 211.245 163.473 211.245 161.987V128.565L206.974 126.319C205.904 125.758 204.648 125.769 203.59 126.349L157.127 151.819V184.438C157.127 185.934 157.928 187.298 159.195 187.965Z" fill="white"/>
<path fill-rule="evenodd" clip-rule="evenodd" d="M207.137 125.977C205.961 125.361 204.579 125.372 203.414 126.012L156.749 151.59V184.451C156.749 186.093 157.63 187.596 159.025 188.327L161.254 189.501C162.414 190.108 163.776 190.106 164.933 189.492L209.357 165.867C210.742 165.131 211.617 163.633 211.617 161.997V128.331L207.137 125.977ZM203.757 126.709C204.71 126.187 205.842 126.178 206.803 126.684L210.413 128.582L164.496 153.376C163.601 153.859 162.547 153.893 161.624 153.47L157.989 151.797L203.757 126.709ZM157.497 152.43L161.328 154.192C162.455 154.71 163.741 154.669 164.836 154.077L210.869 129.219V161.997C210.869 163.336 210.156 164.56 209.021 165.163L164.597 188.788C163.651 189.292 162.536 189.294 161.588 188.795L159.358 187.623C158.217 187.023 157.497 185.794 157.497 184.451V152.43Z" fill="#1B1B1E"/>
</svg>
