<svg width="232" height="217" viewBox="0 0 232 217" fill="none" xmlns="http://www.w3.org/2000/svg">
<rect width="232" height="216" rx="16" fill="transparent"/>
<path d="M87.5005 60.5V144" stroke="black"/>
<path d="M87.1942 60.4844L199.596 116.754V119.372L143.83 147.288L31.4282 91.4564V88.4024L87.1942 60.4844Z" fill="white"/>
<path fill-rule="evenodd" clip-rule="evenodd" d="M87.2025 60L200.04 116.488V189.028H199.168V120.082L144.274 147.562V216.944H143.402V147.562L31.8725 92.162V161.548H31.0005V88.136L87.2025 60ZM31.8725 91.188L143.402 146.588V144.51L31.8725 89.108V91.188ZM32.4145 88.404L143.84 143.752L198.624 116.754L87.2025 60.976L32.4145 88.404ZM199.168 117.458L144.274 144.51V146.586L199.168 119.106V117.458Z" fill="#1B1B1E"/>
</svg>
