<svg width="232" height="216" viewBox="0 0 232 216" fill="none" xmlns="http://www.w3.org/2000/svg">
<rect width="232" height="216" rx="16" fill="transparent"/>
<path d="M102.5 143V155" stroke="black"/>
<path d="M92.5005 139V151" stroke="black"/>
<path d="M62.0005 150.5L57.0005 161.5H60.5005L66.5005 152.5" stroke="black"/>
<path fill-rule="evenodd" clip-rule="evenodd" d="M74.2025 75.5156L187.04 132.004V176.544H186.168V135.598L155.274 155.078V196.46H154.402V155.078L42.8725 99.6776V141.064H42.0005V95.6516L74.2025 75.5156ZM42.8725 98.7036L154.402 154.104V152.026L42.8725 96.6236V98.7036ZM43.4145 95.9196L154.84 151.268L185.624 132.27L74.2025 76.4916L43.4145 95.9196ZM186.168 132.974L155.274 152.026V154.102L186.168 134.622V132.974Z" fill="#1B1B1E"/>
<path d="M158.605 131.457L156.983 132.485L71.3306 87.9706V29.4186L72.9528 28.3906L158.605 73.5886V131.457Z" fill="white"/>
<path fill-rule="evenodd" clip-rule="evenodd" d="M72.9329 28L158.923 73.376V131.65L156.992 132.874L71.0005 88.184V29.224L72.9329 28ZM72.9613 28.78L72.0005 29.388L157.301 74.062V131.88L158.275 131.262V73.8L72.9613 28.78ZM156.653 131.934V74.486L71.6495 29.97V87.756L156.653 131.934Z" fill="#1B1B1E"/>
<path fill-rule="evenodd" clip-rule="evenodd" d="M99.2179 107.886C99.2725 107.852 99.3351 107.838 99.3979 107.842L110.235 108.514L110.275 107.83L99.4359 107.158C99.2475 107.146 99.0599 107.192 98.8959 107.292L98.4419 107.564C97.6359 108.05 97.8707 109.338 98.7897 109.474L112.817 111.546C112.915 111.562 113.003 111.624 113.053 111.714L117.455 119.768C117.713 120.24 118.273 120.418 118.733 120.174L119.543 119.748C120.029 119.49 120.223 118.862 119.971 118.354L116.383 111.096L115.807 111.412L119.395 118.67C119.479 118.84 119.415 119.05 119.253 119.134L118.443 119.562C118.289 119.642 118.103 119.584 118.017 119.426L113.615 111.372C113.465 111.098 113.203 110.912 112.907 110.868L98.8797 108.796C98.5733 108.75 98.4951 108.322 98.7637 108.16L99.2179 107.886Z" fill="#1B1B1E"/>
<path d="M135 186L138.5 200H135L127.5 182.5" stroke="black"/>
<path d="M42.5005 140.5L98.5005 167.66M187 176.5L155 196L98.5005 167.66M98.5005 126.5V167.66" stroke="black"/>
</svg>
