<svg width="232" height="216" viewBox="0 0 232 216" fill="none" xmlns="http://www.w3.org/2000/svg">
<rect x="-0.000244141" width="232" height="216" rx="16" fill="transparent"/>
<path d="M170.977 186.374L141.039 202.172L61.3071 160.259V139.303V45.1577L91.2458 29.3594L170.977 71.918V186.374Z" fill="white"/>
<path fill-rule="evenodd" clip-rule="evenodd" d="M91.2438 29L171.281 71.7211V186.575L141.039 202.535L61 160.461V44.9599L91.2438 29ZM61.6102 45.6817V160.062L140.732 201.654V87.5936L61.6102 45.6817ZM141.344 87.5955V201.654L170.67 186.178V72.4363L141.344 87.5955ZM170.29 71.9149L141.039 87.0362L61.9868 45.1597L91.2419 29.7218L170.29 71.9149ZM63.7494 50.4418L137.982 89.4523V197.215L63.7494 158.203V50.4418ZM64.3596 51.4832V157.804L100.56 176.828V70.507L64.3596 51.4832ZM101.172 70.8281V177.15L137.372 196.174V89.8515L101.172 70.8281ZM97.0477 133.178V116.412H97.6579V133.178H97.0477ZM103.769 135.758V118.992H104.379V135.758H103.769Z" fill="#1B1B1E"/>
</svg>
