<svg width="232" height="216" viewBox="0 0 232 216" fill="none" xmlns="http://www.w3.org/2000/svg">
<rect x="-0.000244141" width="232" height="216" rx="16" fill="transparent"/>
<path d="M160.494 136.213L123.152 154.811L119.342 152.914L77.0476 131.657L73.9993 130.139V95.5971L92.6697 86.3358L111.34 77.0742L160.494 102.506V136.213Z" fill="white"/>
<path d="M123.152 154.813L160.494 136.213V102.432M123.152 154.813V120.651M123.152 154.813L119.342 152.916L77.0476 131.659L73.9993 130.141V95.5992L123.152 120.651M160.494 102.432L111.34 77L92.6697 86.2611L73.9993 95.5237M160.494 102.432L141.823 111.541L123.152 120.651" stroke="#1B1B1E" stroke-width="0.887936"/>
<path d="M93.6539 85.7734L144.493 110.782V117.235" stroke="#F0512D" stroke-width="3.86209"/>
</svg>
