<svg width="232" height="216" viewBox="0 0 232 216" fill="none" xmlns="http://www.w3.org/2000/svg">
<rect width="232" height="216" rx="16" fill="transparent"/>
<path d="M186.145 141.637L125.21 171.987L118.992 168.891L49.9743 134.203L45 131.726V75.3593L75.4673 60.2463L105.935 45.1328L186.145 86.633V141.637Z" fill="white"/>
<path d="M125.21 171.978L186.145 141.627V86.5014M125.21 171.978V116.232M125.21 171.978L118.992 168.883L49.9743 134.195L45 131.717V75.351L125.21 116.232M186.145 86.5014L105.935 45L75.4673 60.1127L45 75.2278M186.145 86.5014L155.677 101.366L125.21 116.232" stroke="#1B1B1E" stroke-width="0.669858"/>
<path d="M45 78.8906L125.115 119.975L185.716 90.189" stroke="black" stroke-width="0.669858"/>
<path d="M45 83L125.115 124.085L185.716 94.2983" stroke="black" stroke-width="0.669858"/>
<path d="M45 87.1094L125.115 128.194L185.716 98.4077" stroke="black" stroke-width="0.669858"/>
<path d="M45 91.2188L125.115 132.304L185.716 102.517" stroke="black" stroke-width="0.669858"/>
<path d="M45 95.3203L125.115 136.405L185.716 106.619" stroke="black" stroke-width="0.669858"/>
<path d="M45 99.4297L125.115 140.515L185.716 110.728" stroke="black" stroke-width="0.669858"/>
<path d="M45 103.555L125.115 144.64L185.716 114.853" stroke="black" stroke-width="0.669858"/>
<path d="M45 107.664L125.115 148.749L185.716 118.962" stroke="black" stroke-width="0.669858"/>
<path d="M45 111.773L125.115 152.858L185.716 123.072" stroke="black" stroke-width="0.669858"/>
<path d="M45 115.883L125.115 156.968L185.716 127.181" stroke="black" stroke-width="0.669858"/>
<path d="M45 119.984L125.115 161.069L185.716 131.283" stroke="black" stroke-width="0.669858"/>
<path d="M45 124.094L125.115 165.179L185.716 135.392" stroke="black" stroke-width="0.669858"/>
<path d="M45 128.203L125.115 169.288L185.716 139.501" stroke="black" stroke-width="0.669858"/>
</svg>
