<svg width="232" height="216" viewBox="0 0 232 216" fill="none" xmlns="http://www.w3.org/2000/svg">
<rect width="232" height="216" rx="16" fill="transparent"/>
<path d="M142.709 140.041L113.046 154.815L110.019 153.308L76.421 136.422L73.9995 135.216V107.777L88.8309 100.42L103.662 93.0625L142.709 113.265V140.041Z" fill="white"/>
<path d="M113.046 154.813L142.709 140.038V113.203M113.046 154.813V127.676M113.046 154.813L110.019 153.306L76.421 136.42L73.9995 135.214V107.775L113.046 127.676M142.709 113.203L103.662 93L88.8309 100.357L73.9995 107.715M142.709 113.203L127.877 120.439L113.046 127.676" stroke="#1B1B1E" stroke-width="0.705357"/>
<path d="M89.6128 99.9688L129.998 119.835V124.961" stroke="#F0512D" stroke-width="3.06796"/>
</svg>
