<svg width="232" height="216" viewBox="0 0 232 216" fill="none" xmlns="http://www.w3.org/2000/svg">
<rect width="232" height="216" rx="16" fill="transparent"/>
<path d="M149.787 172.999L100.461 144.387L125.182 137.051L172 164.929L149.787 172.999Z" fill="#F0512D" stroke="black" stroke-width="0.716559"/>
<path fill-rule="evenodd" clip-rule="evenodd" d="M123.83 137.717L102.611 144.025L84.6968 65.1577L104.288 58.8234C107.572 57.3633 111.414 57.6796 115.522 60.1076C127.599 67.2468 137.39 89.9398 137.39 110.794C137.39 126.569 131.787 136.774 123.83 137.717Z" fill="#F0512D"/>
<path d="M102.611 144.025L102.261 144.104L102.346 144.477L102.713 144.368L102.611 144.025ZM123.83 137.717L123.788 137.361L123.757 137.365L123.728 137.374L123.83 137.717ZM84.6968 65.1577L84.5866 64.8168L84.2748 64.9176L84.3474 65.2371L84.6968 65.1577ZM104.288 58.8234L104.398 59.1643L104.417 59.1585L104.434 59.1508L104.288 58.8234ZM115.522 60.1076L115.704 59.7991L115.522 60.1076ZM102.713 144.368L123.932 138.061L123.728 137.374L102.509 143.681L102.713 144.368ZM84.3474 65.2371L102.261 144.104L102.96 143.945L85.0462 65.0784L84.3474 65.2371ZM104.178 58.4825L84.5866 64.8168L84.807 65.4986L104.398 59.1643L104.178 58.4825ZM104.434 59.1508C107.589 57.7477 111.309 58.0333 115.34 60.416L115.704 59.7991C111.52 57.3259 107.554 56.9788 104.143 58.496L104.434 59.1508ZM115.34 60.416C121.285 63.9302 126.712 71.3086 130.656 80.4496C134.596 89.5804 137.032 100.419 137.032 110.794H137.748C137.748 100.315 135.289 89.3797 131.314 80.1657C127.343 70.9618 121.837 63.4241 115.704 59.7991L115.34 60.416ZM137.032 110.794C137.032 118.644 135.637 125.078 133.276 129.653C130.915 134.228 127.61 136.908 123.788 137.361L123.872 138.073C128.007 137.583 131.483 134.689 133.912 129.982C136.342 125.275 137.748 118.719 137.748 110.794H137.032Z" fill="black"/>
<path d="M72.3083 91.9405C72.3083 81.575 74.7421 73.6455 78.6608 69.1955C82.5809 64.7441 87.9633 63.7931 93.8681 67.2836C99.773 70.7741 105.155 78.0883 109.075 87.1741C112.994 96.257 115.428 107.064 115.428 117.429C115.428 127.795 112.994 135.724 109.075 140.174C105.155 144.626 99.773 145.577 93.8681 142.086C87.9633 138.596 82.5809 131.281 78.6608 122.196C74.7421 113.113 72.3083 102.306 72.3083 91.9405Z" fill="white" stroke="black" stroke-width="0.716559"/>
<path d="M82.3215 97.861C82.3215 92.2699 83.6345 88.0003 85.7412 85.608C87.8492 83.2142 90.7283 82.7187 93.8681 84.5747C97.0079 86.4307 99.887 90.33 101.995 95.2159C104.102 100.099 105.415 105.921 105.415 111.512C105.415 117.103 104.102 121.372 101.995 123.765C99.887 126.159 97.0079 126.654 93.8681 124.798C90.7283 122.942 87.8492 119.043 85.7412 114.157C83.6345 109.274 82.3215 103.452 82.3215 97.861Z" fill="white" stroke="black" stroke-width="0.716559"/>
<mask id="path-7-inside-1_5259_110374" fill="white">
<path fill-rule="evenodd" clip-rule="evenodd" d="M96.0251 85.832C95.8798 87.0265 95.8037 88.3046 95.8037 89.6585C95.8037 99.6919 99.9844 110.511 105.502 115.523C104.434 124.304 99.6315 128.566 93.8682 125.159C87.3209 121.289 82.0132 108.987 82.0132 97.6813C82.0132 86.376 87.3209 80.3488 93.8682 84.2191C94.6048 84.6545 95.3257 85.1966 96.0251 85.832Z"/>
</mask>
<path fill-rule="evenodd" clip-rule="evenodd" d="M96.0251 85.832C95.8798 87.0265 95.8037 88.3046 95.8037 89.6585C95.8037 99.6919 99.9844 110.511 105.502 115.523C104.434 124.304 99.6315 128.566 93.8682 125.159C87.3209 121.289 82.0132 108.987 82.0132 97.6813C82.0132 86.376 87.3209 80.3488 93.8682 84.2191C94.6048 84.6545 95.3257 85.1966 96.0251 85.832Z" fill="white"/>
<path d="M96.0251 85.832L96.7364 85.9185L96.7811 85.5507L96.5069 85.3016L96.0251 85.832ZM105.502 115.523L106.213 115.61L106.258 115.242L105.984 114.993L105.502 115.523ZM93.8682 125.159L93.5036 125.776L93.8682 125.159ZM93.8682 84.2191L94.2329 83.6022L94.2329 83.6022L93.8682 84.2191ZM96.5203 89.6585C96.5203 88.3313 96.5949 87.0822 96.7364 85.9185L95.3138 85.7455C95.1648 86.9708 95.0872 88.278 95.0872 89.6585H96.5203ZM105.984 114.993C103.336 112.587 100.964 108.74 99.2539 104.22C97.547 99.7084 96.5203 94.5811 96.5203 89.6585H95.0872C95.0872 94.7693 96.1508 100.068 97.9135 104.727C99.6731 109.378 102.15 113.447 105.02 116.054L105.984 114.993ZM104.791 115.437C104.267 119.741 102.842 122.793 100.983 124.364C100.065 125.14 99.0399 125.56 97.9349 125.61C96.8245 125.66 95.5803 125.339 94.2329 124.542L93.5036 125.776C95.0379 126.683 96.5552 127.106 97.9996 127.041C99.4494 126.976 100.772 126.42 101.909 125.458C104.159 123.555 105.669 120.086 106.213 115.61L104.791 115.437ZM94.2329 124.542C91.1466 122.718 88.2616 118.834 86.1434 113.924C84.0339 109.035 82.7297 103.229 82.7297 97.6813H81.2966C81.2966 103.438 82.6463 109.436 84.8275 114.492C87 119.527 90.0425 123.73 93.5036 125.776L94.2329 124.542ZM82.7297 97.6813C82.7297 92.1102 84.0424 87.9823 86.0232 85.7329C87.0025 84.6208 88.1318 83.9796 89.3525 83.8097C90.5764 83.6393 91.9736 83.9315 93.5036 84.8359L94.2329 83.6022C92.4892 82.5715 90.7677 82.1657 89.1549 82.3903C87.539 82.6152 86.1137 83.4617 84.9477 84.7858C82.6378 87.4088 81.2966 91.9471 81.2966 97.6813H82.7297ZM93.5036 84.8359C94.1926 85.2432 94.8747 85.7549 95.5432 86.3623L96.5069 85.3016C95.7767 84.6382 95.017 84.0657 94.2329 83.6022L93.5036 84.8359Z" fill="black" mask="url(#path-7-inside-1_5259_110374)"/>
</svg>
